<?xml version="1.0" encoding="UTF-8"?>
<svg fill="#113660" width="100pt" height="100pt" version="1.1" viewBox="0 0 100 100" xmlns="http://www.w3.org/2000/svg">
 <g>
  <path d="m35.938 34.375h3.125v3.125h-3.125z"/>
  <path d="m35.938 40.625h3.125v3.125h-3.125z"/>
  <path d="m35.938 46.875h3.125v3.125h-3.125z"/>
  <path d="m35.938 53.125h3.125v3.125h-3.125z"/>
  <path d="m42.188 34.375h3.125v3.125h-3.125z"/>
  <path d="m42.188 40.625h3.125v3.125h-3.125z"/>
  <path d="m42.188 46.875h3.125v3.125h-3.125z"/>
  <path d="m42.188 53.125h3.125v3.125h-3.125z"/>
  <path d="m48.438 34.375h3.125v3.125h-3.125z"/>
  <path d="m48.438 40.625h3.125v3.125h-3.125z"/>
  <path d="m48.438 46.875h3.125v3.125h-3.125z"/>
  <path d="m48.438 53.125h3.125v3.125h-3.125z"/>
  <path d="m54.688 34.375h3.125v3.125h-3.125z"/>
  <path d="m42.188 28.125h3.125v3.125h-3.125z"/>
  <path d="m48.438 28.125h3.125v3.125h-3.125z"/>
  <path d="m54.688 28.125h3.125v3.125h-3.125z"/>
  <path d="m54.688 40.625h3.125v3.125h-3.125z"/>
  <path d="m54.688 46.875h3.125v3.125h-3.125z"/>
  <path d="m54.688 53.125h3.125v3.125h-3.125z"/>
  <path d="m60.938 34.375h3.125v3.125h-3.125z"/>
  <path d="m60.938 40.625h3.125v3.125h-3.125z"/>
  <path d="m60.938 46.875h3.125v3.125h-3.125z"/>
  <path d="m60.938 53.125h3.125v3.125h-3.125z"/>
  <path d="m95.312 26.562h-23.438v-21.875c0-0.41406-0.16406-0.8125-0.45703-1.1055s-0.69141-0.45703-1.1055-0.45703h-40.625c-0.86328 0-1.5625 0.69922-1.5625 1.5625v21.875h-23.438c-0.86328 0-1.5625 0.69922-1.5625 1.5625v56.25c0 0.41406 0.16406 0.8125 0.45703 1.1055s0.69141 0.45703 1.1055 0.45703h3.2656c-0.089844 0.51562-0.13672 1.0391-0.14062 1.5625v7.8125c0 0.41406 0.16406 0.8125 0.45703 1.1055s0.69141 0.45703 1.1055 0.45703h81.25c0.41406 0 0.8125-0.16406 1.1055-0.45703s0.45703-0.69141 0.45703-1.1055v-7.8125c-0.003906-0.52344-0.050781-1.0469-0.14062-1.5625h3.2656c0.41406 0 0.8125-0.16406 1.1055-0.45703s0.45703-0.69141 0.45703-1.1055v-56.25c0-0.41406-0.16406-0.8125-0.45703-1.1055s-0.69141-0.45703-1.1055-0.45703zm-25.082 43.062c0 0.015625 0.011719 0.03125 0.015625 0.046875l-0.003906-0.003906c0.09375 0.42578 0.09375 0.86328 0 1.2891 0 0.015625-0.007813 0.03125-0.015626 0.046875l0.003907-0.003906c-0.14844 0.62891-0.48438 1.1953-0.96484 1.625v0.011719-0.003907c-0.57031 0.51953-1.3086 0.80469-2.0781 0.80469-0.21875 0-0.44141-0.023438-0.65625-0.070312-0.070312-0.015626-0.14062-0.042969-0.20703-0.0625v-0.003907c-0.13672-0.035156-0.26953-0.082031-0.39844-0.13672-0.085937-0.039062-0.15625-0.085937-0.24219-0.13281l-0.003906 0.003906c-0.10547-0.054687-0.21094-0.11719-0.3125-0.1875-0.082032-0.058594-0.15625-0.125-0.22656-0.1875-0.089844-0.074218-0.17188-0.15625-0.25391-0.24219-0.066407-0.070313-0.12891-0.14844-0.1875-0.22656-0.070313-0.09375-0.13672-0.19141-0.19531-0.29297-0.050781-0.085938-0.10156-0.17578-0.14453-0.26953v0.003906c-0.046875-0.10156-0.085937-0.20703-0.12109-0.3125-0.035156-0.097656-0.070312-0.19531-0.09375-0.29687v-0.003907c-0.023437-0.11328-0.042969-0.23047-0.050781-0.34375-0.011719-0.10156-0.027344-0.19922-0.03125-0.30078 0-0.125 0.007812-0.24609 0.023438-0.36719 0.007812-0.10156 0.011718-0.20312 0.03125-0.30078v-0.003906c0.046874-0.25 0.13281-0.49219 0.24219-0.71875 0.039063-0.078125 0.078125-0.14844 0.12109-0.21875 0.10938-0.19531 0.23828-0.375 0.38672-0.54297 0.03125-0.03125 0.050781-0.070312 0.082031-0.10156l0.003906 0.003906c0.18359-0.18359 0.39062-0.34766 0.61328-0.48047 0.0625-0.039062 0.13281-0.074219 0.19922-0.10938v0.003906c0.20703-0.10937 0.42969-0.19531 0.65625-0.25391 0.035156-0.007812 0.066406-0.023437 0.10156-0.03125 0.26562-0.054687 0.53906-0.070312 0.80859-0.054687 0.09375 0 0.17969 0.015625 0.27344 0.027343h-0.003907c0.17188 0.023438 0.33984 0.058594 0.5 0.10938 0.058594 0.019531 0.11719 0.035156 0.17578 0.054687 0.35938 0.14453 0.69141 0.35156 0.98047 0.60547 0.48438 0.42969 0.82422 0.99609 0.97266 1.6289zm-40.469 0.046875c0-0.015625 0.007812-0.027344 0.011719-0.039063v-0.003906c0.14453-0.62891 0.48437-1.1992 0.96484-1.6289 0.28906-0.25781 0.625-0.46094 0.98828-0.60547 0.046876-0.019531 0.10156-0.03125 0.15625-0.046875 0.17188-0.054687 0.35156-0.09375 0.53125-0.11719 0.082032-0.011719 0.16406-0.023438 0.25-0.027344 0.27344-0.015625 0.54688 0.003906 0.8125 0.054687 0.035157 0.007813 0.066407 0.023438 0.10156 0.03125 0.23047 0.058594 0.44922 0.14453 0.66016 0.25391 0.066407 0.035156 0.13672 0.070312 0.19922 0.10938v-0.003906c0.22266 0.13672 0.42969 0.29687 0.61328 0.48047 0.03125 0.03125 0.054688 0.066406 0.082031 0.10156v-0.003907c0.14844 0.16797 0.28125 0.34766 0.39063 0.54297 0.042968 0.070313 0.082031 0.14453 0.11719 0.21875 0.11328 0.22656 0.19531 0.47266 0.24609 0.72266 0.019531 0.097656 0.019531 0.19922 0.03125 0.30078 0.015625 0.12109 0.023437 0.24609 0.023437 0.36719 0 0.10156-0.019531 0.19922-0.03125 0.30078-0.011718 0.11719-0.027344 0.23047-0.050781 0.34375-0.023437 0.10156-0.058594 0.19922-0.09375 0.29687v0.003907c-0.035156 0.10547-0.074219 0.21094-0.12109 0.3125-0.042969 0.09375-0.09375 0.17969-0.14453 0.26953-0.058594 0.10156-0.125 0.19531-0.19531 0.28906-0.058594 0.082032-0.12109 0.15625-0.1875 0.22656-0.082032 0.085937-0.16406 0.16797-0.25391 0.24219-0.074219 0.0625-0.14844 0.12891-0.22656 0.1875h-0.003907c-0.097656 0.070313-0.20312 0.13281-0.3125 0.1875-0.082031 0.042969-0.15625 0.09375-0.24219 0.13281-0.12891 0.050781-0.26562 0.097656-0.39844 0.13281-0.070313 0.019531-0.13672 0.046874-0.20703 0.0625l-0.003906 0.003906c-0.21484 0.042968-0.43359 0.066406-0.65625 0.066406-0.76562-0.003906-1.5039-0.28906-2.0703-0.80469v-0.011718 0.003906c-0.48438-0.42969-0.82031-1-0.96484-1.6289 0-0.015625-0.007813-0.027344-0.011719-0.039063-0.09375-0.42578-0.09375-0.86328 0-1.2891zm-6.3242 24.078h-12.5v-6.25c0-1.1992 0.35156-2.375 1.0078-3.3828 0.074219-0.11719 0.15625-0.22266 0.24219-0.33594l0.003906 0.003906c0.13281-0.18359 0.28125-0.35938 0.43359-0.52734 0.09375-0.10156 0.1875-0.19922 0.28516-0.28906l0.003906-0.003906c0.19141-0.17969 0.39453-0.34766 0.60938-0.50391 0.074218-0.054688 0.14453-0.11719 0.21875-0.16797 0.29297-0.19141 0.59766-0.35938 0.91797-0.49609 0.10156-0.046875 0.21094-0.082031 0.3125-0.12109v-0.003906c0.24609-0.09375 0.5-0.17188 0.75391-0.23438 0.11328-0.027344 0.22266-0.054688 0.33594-0.078125l0.003906 0.003906c0.73828-0.15234 1.5-0.15234 2.2383 0 0.11328 0.023438 0.22656 0.046875 0.33594 0.078125v-0.003906c0.25781 0.0625 0.51172 0.14062 0.75781 0.23438 0.10547 0.039063 0.21094 0.074219 0.3125 0.12109v0.003906c0.32031 0.13672 0.625 0.30469 0.91406 0.49609 0.078125 0.050781 0.14453 0.11328 0.21875 0.16797h0.003906c0.21484 0.15625 0.41797 0.32422 0.60938 0.50391 0.097657 0.09375 0.19141 0.19141 0.28516 0.28906 0.15625 0.17188 0.30469 0.34766 0.4375 0.53125 0.082031 0.10938 0.16797 0.21484 0.24219 0.33203 0.66016 1.0078 1.0117 2.1797 1.0156 3.3828zm-9.375-18.75c0-1.2656 0.76172-2.4023 1.9297-2.8867 1.168-0.48438 2.5117-0.21484 3.4062 0.67578 0.89062 0.89453 1.1602 2.2383 0.67578 3.4062-0.48438 1.168-1.6211 1.9297-2.8867 1.9297-1.7266 0-3.125-1.3984-3.125-3.125zm11.945 1.3867c-0.085937 0.09375-0.17187 0.18359-0.25781 0.28125-0.12109 0.14062-0.23828 0.28125-0.35156 0.42969-0.078126 0.10156-0.15625 0.19922-0.22656 0.30469-0.10938 0.15625-0.21094 0.3125-0.3125 0.46875-0.0625 0.10156-0.12891 0.20312-0.1875 0.3125-0.097656 0.17188-0.1875 0.34766-0.27344 0.52344-0.050782 0.10156-0.10156 0.20312-0.14844 0.3125-0.085938 0.1875-0.15625 0.37891-0.23047 0.57422-0.039062 0.10156-0.078125 0.20312-0.10938 0.3125-0.066406 0.19531-0.11719 0.39844-0.17188 0.60156-0.023437 0.082032-0.050781 0.15625-0.070312 0.24609-0.070313-0.070312-0.15625-0.13281-0.22656-0.19922-0.125-0.11328-0.25-0.22656-0.38281-0.33594-0.097656-0.078125-0.19922-0.15625-0.29688-0.22266-0.14062-0.10547-0.28125-0.21094-0.42578-0.3125-0.09375-0.0625-0.19531-0.11719-0.29297-0.17578-0.097657-0.058593-0.21875-0.14062-0.33594-0.20312v-0.003907c1.7266-1.8086 2.2109-4.4766 1.2266-6.7734-0.98438-2.3008-3.2461-3.793-5.7461-3.793-2.5039 0-4.7656 1.4922-5.7461 3.793-0.98438 2.2969-0.50391 4.9648 1.2227 6.7734-0.035156 0.019531-0.066406 0.039063-0.10156 0.058594-0.070312 0.039063-0.14062 0.085937-0.20703 0.12891-0.25391 0.15234-0.5 0.31641-0.73828 0.49219-0.074219 0.054687-0.14844 0.10938-0.21875 0.15625h0.003906c-0.58594 0.46484-1.1172 0.99609-1.582 1.582l-0.13281 0.17969c-0.19922 0.26562-0.38672 0.54687-0.55859 0.83594-0.015625 0.027344-0.039062 0.054687-0.054687 0.082031l-2.8242-0.003906v-53.125h21.875v36.516c-0.046875 0.050781-0.078125 0.11328-0.12109 0.16406-0.17969 0.21484-0.34375 0.44141-0.49609 0.67578-0.0625 0.097656-0.10937 0.20312-0.16797 0.3125h0.003906c-0.12891 0.22656-0.24219 0.46094-0.34375 0.69922-0.0625 0.15625-0.10156 0.3125-0.15625 0.48437-0.058594 0.20313-0.12891 0.39844-0.17188 0.60938l0.003906-0.003907c-0.16016 0.77344-0.16016 1.5703 0 2.3438 0.039063 0.21094 0.10938 0.40625 0.17188 0.60938 0.050782 0.15625 0.089844 0.32812 0.15625 0.48438l-0.003906-0.003906c0.10156 0.24219 0.21484 0.47656 0.34375 0.69922 0.054688 0.10156 0.10547 0.21094 0.16797 0.3125h-0.003907c0.15234 0.23828 0.31641 0.46484 0.49609 0.67578 0.042969 0.050781 0.074219 0.11328 0.12109 0.16406v0.28125c-0.042969 0.023437-0.078125 0.054687-0.12109 0.078124-0.20703 0.125-0.41406 0.25781-0.60938 0.39844-0.082031 0.054688-0.15625 0.11719-0.23438 0.17578-0.16797 0.125-0.32812 0.25781-0.48438 0.39062-0.089843 0.078125-0.17578 0.15625-0.26172 0.23828-0.14453 0.12109-0.27734 0.25781-0.40625 0.39453zm13.055 17.363h-12.5v-10.938c0.003906-0.375 0.042969-0.75 0.11328-1.1172 0.023438-0.11328 0.046875-0.22656 0.078125-0.33594l-0.003906-0.003906c0.0625-0.25781 0.14062-0.50781 0.23438-0.75781 0.039063-0.10547 0.074219-0.21094 0.12109-0.3125h0.003906c0.13672-0.31641 0.30469-0.625 0.49609-0.91406 0.050781-0.078125 0.11328-0.14453 0.16797-0.21875v-0.003906c0.15625-0.21094 0.32422-0.41797 0.50391-0.60938 0.09375-0.097656 0.19141-0.19141 0.28906-0.28516 0.17188-0.15625 0.34766-0.30078 0.53125-0.4375 0.10938-0.082031 0.21484-0.16797 0.33203-0.24219 1.0078-0.66016 2.1797-1.0078 3.3828-1.0117 1.6562 0 3.2461 0.66016 4.418 1.832s1.832 2.7617 1.832 4.418zm18.75 0h-15.625v-10.938c0-4.3164 3.4961-7.8125 7.8125-7.8125s7.8125 3.4961 7.8125 7.8125zm-12.5-26.562c0-1.8945 1.1406-3.6055 2.8945-4.332 1.75-0.72266 3.7656-0.32422 5.1094 1.0156 1.3398 1.3438 1.7383 3.3594 1.0156 5.1094-0.72656 1.7539-2.4375 2.8945-4.332 2.8945-2.5898 0-4.6875-2.0977-4.6875-4.6875zm15.023 9.25c-0.085938 0.089844-0.16797 0.17969-0.25 0.27344-0.14453 0.16797-0.28125 0.34375-0.41406 0.51953-0.050781 0.066406-0.10547 0.12891-0.15625 0.19531-0.035156-0.0625-0.078125-0.11719-0.11719-0.17578-0.17188-0.29297-0.35938-0.57422-0.55859-0.85156-0.074219-0.10156-0.14844-0.19922-0.22656-0.30078-0.21875-0.28516-0.45312-0.55469-0.69922-0.8125-0.046874-0.050781-0.09375-0.10938-0.14062-0.15625v0.003906c-0.29688-0.30078-0.61328-0.58203-0.94531-0.84766-0.085937-0.066406-0.17578-0.12891-0.26172-0.19531-0.26172-0.19531-0.53125-0.38281-0.80859-0.55469-0.10937-0.066406-0.21484-0.13281-0.32422-0.19922-0.13281-0.078126-0.26562-0.15625-0.40234-0.22266 2.5117-2.1133 3.4297-5.5703 2.3047-8.6523-1.125-3.082-4.0547-5.1367-7.3359-5.1367-3.2852 0-6.2148 2.0547-7.3398 5.1367-1.125 3.082-0.20312 6.5391 2.3047 8.6523-0.13672 0.070313-0.26953 0.14453-0.40234 0.22266-0.10938 0.0625-0.21875 0.13281-0.32422 0.19922-0.27734 0.17188-0.54297 0.35547-0.80469 0.55469-0.089844 0.066406-0.17969 0.12891-0.26562 0.19531-0.33203 0.26562-0.64844 0.54688-0.94531 0.84766-0.046875 0.050782-0.09375 0.10547-0.14062 0.15625-0.24609 0.25781-0.48047 0.53125-0.69922 0.8125-0.078124 0.10156-0.15625 0.19922-0.22656 0.30078-0.19922 0.27344-0.38281 0.55469-0.55859 0.84766-0.035156 0.058594-0.082031 0.11328-0.11719 0.17578-0.046875-0.070312-0.10547-0.12891-0.15625-0.19531-0.13281-0.17969-0.26953-0.35156-0.41406-0.51953-0.082031-0.09375-0.16406-0.18359-0.25-0.27344-0.14453-0.15625-0.29297-0.30469-0.44531-0.44531-0.089844-0.085938-0.17969-0.17188-0.27344-0.25-0.16406-0.14063-0.33594-0.27734-0.50781-0.41016-0.089844-0.066406-0.17969-0.14062-0.27344-0.20312-0.20703-0.14453-0.42578-0.28125-0.64453-0.40625-0.054687-0.035156-0.10938-0.074218-0.16797-0.10547 0.082032-0.085938 0.15625-0.17578 0.24219-0.26953 0.085937-0.09375 0.10938-0.17578 0.17188-0.25781v-0.007813c0.14844-0.19531 0.28516-0.39844 0.41016-0.61328 0.09375-0.15625 0.18359-0.3125 0.26562-0.48438 0.10547-0.23047 0.19922-0.46875 0.27734-0.71484 0.054687-0.15625 0.11328-0.32422 0.15625-0.49219 0.058594-0.26172 0.097656-0.52734 0.125-0.79297 0.015625-0.17188 0.046875-0.33594 0.050781-0.51172 0-0.054687 0.015625-0.10547 0.015625-0.15625-0.011719-0.21875-0.03125-0.44141-0.066406-0.66016-0.015625-0.14062 0-0.28516-0.027344-0.42578 0-0.039063-0.019531-0.074219-0.027344-0.11328-0.011718-0.070313-0.035156-0.13281-0.050781-0.20313-0.070313-0.3125-0.16406-0.61719-0.28516-0.91406-0.03125-0.074219-0.058594-0.14844-0.09375-0.21875h0.003906c-0.13672-0.30859-0.29688-0.60547-0.48438-0.88672-0.019531-0.03125-0.035156-0.0625-0.054688-0.09375v0.003907c-0.21875-0.32031-0.46484-0.61719-0.73437-0.89453-0.015626-0.015625-0.035157-0.03125-0.050782-0.046875l-0.003906 0.003907c-0.24609-0.24219-0.51562-0.46484-0.79688-0.66406l-0.19531-0.12891c-0.26562-0.17188-0.54297-0.32031-0.83203-0.44922-0.058593-0.027344-0.11719-0.058594-0.17578-0.082031-0.33984-0.14453-0.6875-0.25781-1.0469-0.33594h-0.039063c-0.42187-0.09375-0.85547-0.14062-1.2891-0.14453-0.03125 0-0.054688 0.007812-0.085938 0.007812-0.10547 0-0.21094 0.023438-0.3125 0.03125-0.35156 0.019532-0.69922 0.070313-1.043 0.14453-0.039063 0.007812-0.078125 0-0.11719 0.015625v-58.012h37.496v58.016c-0.039062-0.011719-0.078125 0-0.11719-0.015625v-0.003906c-0.33984-0.074219-0.68359-0.12109-1.0312-0.14062-0.11328-0.007813-0.21875-0.03125-0.33203-0.035157-0.027343 0-0.054687-0.007812-0.082031-0.007812-0.43359 0-0.86719 0.046875-1.2891 0.13672h-0.039063c-0.35938 0.078125-0.70703 0.19141-1.0469 0.33594-0.058594 0.023438-0.11719 0.054688-0.17578 0.082032-0.28906 0.12891-0.56641 0.27734-0.83203 0.44922l-0.19531 0.12891c-0.28125 0.19922-0.55078 0.42188-0.79688 0.66406-0.015625 0.015625-0.035156 0.03125-0.050781 0.046875l-0.003907-0.003906c-0.26953 0.27734-0.51562 0.57422-0.73437 0.89453-0.019532 0.03125-0.035157 0.0625-0.054688 0.09375v-0.003906c-0.1875 0.28125-0.34766 0.57812-0.48438 0.88672-0.03125 0.070312-0.0625 0.14453-0.09375 0.21875h0.003906c-0.12109 0.29687-0.21484 0.60156-0.28516 0.91406-0.015625 0.070312-0.039063 0.13281-0.050781 0.20312-0.007813 0.039063-0.023438 0.074219-0.027344 0.11328-0.023438 0.14062-0.011719 0.28516-0.027344 0.42578-0.035156 0.21875-0.054687 0.44141-0.066406 0.66406 0 0.054688 0.015625 0.10547 0.015625 0.15625 0 0.17188 0.035156 0.33984 0.050781 0.51172 0.027344 0.26562 0.066406 0.53125 0.125 0.79297 0.039063 0.16797 0.097656 0.32812 0.15625 0.49219 0.078125 0.24219 0.17188 0.48438 0.27734 0.71484 0.078125 0.16797 0.17188 0.32422 0.26562 0.48438 0.125 0.21094 0.26172 0.41797 0.41016 0.61328 0.0625 0.082031 0.10547 0.17969 0.17188 0.25781 0.066406 0.078124 0.15625 0.18359 0.24219 0.26953-0.058594 0.03125-0.10938 0.070312-0.16797 0.10547-0.21875 0.12891-0.4375 0.26172-0.64453 0.40625-0.09375 0.0625-0.18359 0.13672-0.27344 0.20312-0.17188 0.13281-0.34375 0.26563-0.50781 0.41016-0.09375 0.082031-0.18359 0.16406-0.27344 0.25-0.16016 0.15234-0.30859 0.30078-0.44922 0.45703zm13.102 7.9375v9.375h-12.5v-10.938c0-3.4531 2.7969-6.25 6.25-6.25 1.1992 0 2.375 0.35156 3.3828 1.0078 0.11719 0.074219 0.22266 0.15625 0.33203 0.24219 0.18359 0.13672 0.35938 0.28516 0.53125 0.4375 0.097656 0.09375 0.19531 0.1875 0.28906 0.28516v0.003906c0.17969 0.19141 0.34766 0.39453 0.50391 0.60938 0.054688 0.074218 0.11719 0.14453 0.16797 0.21875 0.19141 0.29297 0.35938 0.59766 0.49609 0.91797 0.046875 0.10156 0.082031 0.21094 0.12109 0.3125h0.003906c0.09375 0.24609 0.17188 0.5 0.23438 0.75781 0.027344 0.11328 0.054688 0.22266 0.078125 0.33594h-0.003906c0.070312 0.37109 0.10938 0.74609 0.11328 1.1211zm15.625 9.375h-12.5v-6.25c0-1.1992 0.35156-2.375 1.0078-3.3828 0.074219-0.11719 0.15625-0.22266 0.24219-0.33594l0.003906 0.003906c0.13281-0.18359 0.28125-0.35938 0.43359-0.52734 0.09375-0.10156 0.1875-0.19922 0.28516-0.28906l0.003906-0.003906c0.19141-0.17969 0.39453-0.34766 0.60938-0.50391 0.074218-0.054688 0.14453-0.11719 0.21875-0.16797 0.29297-0.19141 0.59766-0.35938 0.91797-0.49609 0.10156-0.046875 0.21094-0.082031 0.3125-0.12109v-0.003906c0.24609-0.09375 0.5-0.17188 0.75391-0.23438 0.11328-0.027344 0.22266-0.054688 0.33594-0.078125l0.003906 0.003906c0.73828-0.15234 1.5-0.15234 2.2383 0 0.11328 0.023438 0.22656 0.046875 0.33594 0.078125v-0.003906c0.25781 0.0625 0.51172 0.14062 0.75781 0.23438 0.10547 0.039063 0.21094 0.074219 0.3125 0.12109v0.003906c0.32031 0.13672 0.625 0.30469 0.91406 0.49609 0.078125 0.050781 0.14453 0.11328 0.21875 0.16797h0.003906c0.21484 0.15625 0.41797 0.32422 0.60938 0.50391 0.097657 0.09375 0.19141 0.19141 0.28516 0.28906 0.15625 0.17188 0.30469 0.34766 0.4375 0.53125 0.082031 0.10938 0.16797 0.21484 0.24219 0.33203 0.66016 1.0078 1.0117 2.1797 1.0156 3.3828zm-9.375-18.75c0-1.2656 0.76172-2.4023 1.9297-2.8867 1.168-0.48438 2.5117-0.21484 3.4062 0.67578 0.89062 0.89453 1.1602 2.2383 0.67578 3.4062-0.48438 1.168-1.6211 1.9297-2.8867 1.9297-1.7266 0-3.125-1.3984-3.125-3.125zm14.062 7.8125h-2.8281c-0.015625-0.027344-0.039063-0.054688-0.054687-0.082031h0.003906c-0.17188-0.28906-0.35938-0.56641-0.55859-0.83594l-0.13281-0.17969v0.003906c-0.46484-0.58984-0.99609-1.1172-1.5859-1.582-0.070312-0.054688-0.14453-0.10938-0.21875-0.15625-0.23828-0.17578-0.48438-0.33984-0.73828-0.49219-0.070313-0.042969-0.13672-0.085937-0.20703-0.12891-0.035157-0.019531-0.066407-0.039063-0.10156-0.058594 1.7305-1.8086 2.2109-4.4766 1.2266-6.7734-0.98438-2.3008-3.2422-3.793-5.7461-3.793-2.5 0-4.7617 1.4922-5.7461 3.793-0.98438 2.2969-0.5 4.9648 1.2266 6.7734-0.11719 0.0625-0.22266 0.13672-0.33594 0.20312s-0.19531 0.11328-0.28906 0.17578c-0.14844 0.097656-0.28906 0.20312-0.42969 0.3125-0.10156 0.074218-0.20312 0.14453-0.29688 0.22266-0.13281 0.10547-0.25781 0.21875-0.38281 0.33594-0.074219 0.066407-0.15625 0.12891-0.22656 0.19922-0.019531-0.085938-0.046875-0.15625-0.070313-0.24609-0.050781-0.20312-0.10547-0.40234-0.17187-0.60156-0.035157-0.10156-0.074219-0.20312-0.10938-0.3125-0.070312-0.19531-0.14453-0.38672-0.23047-0.57422-0.046875-0.10547-0.097656-0.20312-0.14844-0.3125-0.085937-0.17578-0.17578-0.35156-0.27344-0.52344-0.0625-0.10547-0.125-0.20703-0.1875-0.3125-0.10156-0.15625-0.20312-0.3125-0.3125-0.46875-0.074219-0.10156-0.15625-0.20313-0.22656-0.30469-0.11328-0.14844-0.22656-0.28906-0.35156-0.42969-0.082032-0.09375-0.16797-0.1875-0.25781-0.28125-0.12891-0.14062-0.26562-0.27344-0.40234-0.40234-0.085938-0.082031-0.17188-0.15625-0.26172-0.23828-0.15625-0.13672-0.3125-0.26563-0.48438-0.39063-0.078125-0.058593-0.15625-0.12109-0.23438-0.17578-0.19922-0.14062-0.40234-0.27344-0.60938-0.39844-0.042969-0.023438-0.078125-0.054688-0.12109-0.078125l-0.003906-0.27734c0.046875-0.050781 0.078125-0.11328 0.12109-0.16406 0.17969-0.21484 0.34375-0.44141 0.49219-0.67578 0.0625-0.097656 0.10938-0.20312 0.16797-0.3125 0.12891-0.22656 0.24219-0.46094 0.33984-0.69922 0.0625-0.15625 0.10156-0.3125 0.15625-0.48437 0.058593-0.20313 0.12891-0.39844 0.17187-0.60938v0.003907c0.16016-0.77344 0.16016-1.5703 0-2.3438-0.039062-0.21094-0.10937-0.40625-0.17187-0.60938-0.050782-0.15625-0.089844-0.32812-0.15625-0.48438v0.003906c-0.097657-0.24219-0.21094-0.47656-0.33984-0.69922-0.054688-0.10156-0.10547-0.21094-0.16797-0.3125-0.14844-0.23828-0.3125-0.46484-0.49219-0.67578-0.042969-0.050781-0.074219-0.11328-0.12109-0.16406v-36.508h21.879z"/>
  <path d="m76.562 39.062h3.125v25h-3.125z"/>
  <path d="m85.938 39.062h3.125v25h-3.125z"/>
  <path d="m10.938 39.062h3.125v25h-3.125z"/>
  <path d="m20.312 39.062h3.125v25h-3.125z"/>
  <path d="m60.938 10.938c0-0.41406-0.16406-0.8125-0.45703-1.1055s-0.69141-0.45703-1.1055-0.45703h-18.75c-0.86328 0-1.5625 0.69922-1.5625 1.5625v12.5c0 0.41406 0.16406 0.8125 0.45703 1.1055s0.69141 0.45703 1.1055 0.45703h18.75c0.41406 0 0.8125-0.16406 1.1055-0.45703s0.45703-0.69141 0.45703-1.1055zm-3.125 10.938h-15.625v-9.375h15.625z"/>
 </g>
</svg>
