<?xml version="1.0" encoding="UTF-8"?>
<svg fill="#113660" width="100pt" height="100pt" version="1.1" viewBox="0 0 100 100" xmlns="http://www.w3.org/2000/svg">
 <g>
  <path d="m76.48 11.352c-0.1875-0.55469-0.66797-0.96094-1.2461-1.0469l-5.6523-0.86328-2.543-5.418c-0.25781-0.54688-0.80859-0.89844-1.4141-0.89844s-1.1562 0.35156-1.4141 0.89844l-2.543 5.418-5.6523 0.86328c-0.57812 0.089843-1.0586 0.49219-1.2461 1.0469-0.1875 0.55469-0.046875 1.168 0.36328 1.5859l4.1367 4.2383-0.98047 6.0078c-0.097656 0.58984 0.15625 1.1836 0.64063 1.5312 0.48828 0.34375 1.1367 0.37891 1.6562 0.089844l5.0391-2.7852 5.0391 2.7852c0.23438 0.12891 0.49609 0.19531 0.75391 0.19531 0.31641 0 0.63281-0.097656 0.89844-0.28516 0.48828-0.34375 0.73828-0.9375 0.64062-1.5312l-0.98047-6.0078 4.1367-4.2383c0.41406-0.41406 0.55469-1.0273 0.36719-1.5859zm-7.2852 4.2109c-0.34766 0.35547-0.50391 0.85156-0.42187 1.3438l0.58984 3.6094-2.9766-1.6445c-0.23438-0.12891-0.49219-0.19531-0.75391-0.19531-0.26172 0-0.51953 0.066407-0.75391 0.19531l-2.9766 1.6445 0.58984-3.6094c0.078124-0.48828-0.078126-0.98828-0.42188-1.3438l-2.5625-2.6289 3.4727-0.53125c0.51562-0.078125 0.95703-0.41016 1.1797-0.88281l1.4648-3.1562 1.4844 3.1602c0.22266 0.47266 0.66406 0.80078 1.1797 0.88281l3.4727 0.53125z"/>
  <path d="m3.125 85.938v9.375c0 0.86328 0.69922 1.5625 1.5625 1.5625h21.875c0.86328 0 1.5625-0.69922 1.5625-1.5625v-9.375c0-4.4531-2.6797-8.2852-6.5039-9.9883 2.0625-1.7227 3.3789-4.3086 3.3789-7.1992 0-5.1719-4.2031-9.375-9.375-9.375s-9.375 4.2031-9.375 9.375c0 2.8906 1.3164 5.4766 3.3789 7.1992-3.8242 1.7031-6.5039 5.5352-6.5039 9.9883zm12.5-5.8828 1.3789 2.7578-1.3789 2.7578-1.3789-2.7578zm0-5.0547c-3.3047 0-5.9883-2.582-6.207-5.832 1.8398-1.2773 3.9609-1.9805 6.207-1.9805s4.3672 0.70312 6.207 1.9805c-0.21875 3.25-2.9023 5.832-6.207 5.832zm0-12.5c2.0156 0 3.7969 0.97656 4.9375 2.4648-1.5625-0.58984-3.2227-0.90234-4.9375-0.90234s-3.375 0.3125-4.9375 0.90234c1.1406-1.4883 2.9219-2.4648 4.9375-2.4648zm-2.5781 15.727-1.9414 3.8867c-0.21875 0.44141-0.21875 0.95703 0 1.3984l3.125 6.25c0.26172 0.52734 0.80078 0.86328 1.3945 0.86328s1.1328-0.33594 1.3984-0.86328l3.125-6.25c0.21875-0.44141 0.21875-0.95703 0-1.3984l-1.9414-3.8867c3.8203 0.50781 6.793 3.75 6.793 7.7109v7.8125h-18.75v-7.8125c0-3.9609 2.9727-7.2031 6.7969-7.7109z"/>
  <path d="m95.312 73.438h-6.3047c-0.38281-2.6484-2.6641-4.6875-5.4141-4.6875s-5.0312 2.0391-5.4141 4.6875h-6.3047c-0.86328 0-1.5625 0.69922-1.5625 1.5625v4.7422c-2.6484 0.37891-4.6875 2.6641-4.6875 5.4141s2.0391 5.0312 4.6875 5.4141v4.7422c0 0.86328 0.69922 1.5625 1.5625 1.5625h23.438c0.86328 0 1.5625-0.69922 1.5625-1.5625v-20.312c0-0.86328-0.69922-1.5625-1.5625-1.5625zm-1.5625 20.312h-20.312v-4.6875c0-0.86328-0.69922-1.5625-1.5625-1.5625h-0.78125c-1.293 0-2.3438-1.0508-2.3438-2.3438s1.0508-2.3438 2.3438-2.3438h0.78125c0.86328 0 1.5625-0.69922 1.5625-1.5625v-4.6875h6.25c0.86328 0 1.5625-0.69922 1.5625-1.5625v-0.78125c0-1.293 1.0508-2.3438 2.3438-2.3438s2.3438 1.0508 2.3438 2.3438v0.78125c0 0.86328 0.69922 1.5625 1.5625 1.5625h6.25z"/>
  <path d="m95.312 35.938h-23.438c-0.86328 0-1.5625 0.69922-1.5625 1.5625v6.25c0 0.86328 0.69922 1.5625 1.5625 1.5625h1.5625c0.86328 0 1.5625 0.70312 1.5625 1.5625s-0.69922 1.5625-1.5625 1.5625h-1.5625c-0.86328 0-1.5625 0.69922-1.5625 1.5625v7.8125c0 0.86328 0.69922 1.5625 1.5625 1.5625h7.8125c0.86328 0 1.5625-0.69922 1.5625-1.5625v-0.78125c0-1.293 1.0508-2.3438 2.3438-2.3438s2.3438 1.0508 2.3438 2.3438v0.78125c0 0.86328 0.69922 1.5625 1.5625 1.5625h7.8125c0.86328 0 1.5625-0.69922 1.5625-1.5625v-20.312c0-0.86328-0.69922-1.5625-1.5625-1.5625zm-1.5625 20.312h-4.7422c-0.38281-2.6484-2.6641-4.6875-5.4141-4.6875s-5.0312 2.0391-5.4141 4.6875h-4.7422v-4.6875c2.5859 0 4.6875-2.1016 4.6875-4.6875s-2.1016-4.6875-4.6875-4.6875v-3.125h20.312z"/>
  <path d="m57.812 42.188v-4.6875c0-0.86328-0.69922-1.5625-1.5625-1.5625h-23.438c-0.86328 0-1.5625 0.69922-1.5625 1.5625v20.312c0 0.86328 0.69922 1.5625 1.5625 1.5625h6.25c0 2.5859 2.1016 4.6875 4.6875 4.6875s4.6875-2.1016 4.6875-4.6875h7.8125c0.86328 0 1.5625-0.69922 1.5625-1.5625v-6.25c2.5859 0 4.6875-2.1016 4.6875-4.6875s-2.1016-4.6875-4.6875-4.6875zm0 6.25h-1.5625c-0.86328 0-1.5625 0.69922-1.5625 1.5625v6.25h-7.8125c-0.86328 0-1.5625 0.69922-1.5625 1.5625v1.5625c0 0.85938-0.69922 1.5625-1.5625 1.5625s-1.5625-0.70312-1.5625-1.5625v-1.5625c0-0.86328-0.69922-1.5625-1.5625-1.5625h-6.25v-17.188h20.312v4.6875c0 0.86328 0.69922 1.5625 1.5625 1.5625h1.5625c0.86328 0 1.5625 0.70312 1.5625 1.5625s-0.69922 1.5625-1.5625 1.5625z"/>
  <path d="m55.469 82.812h0.78125c0.86328 0 1.5625-0.69922 1.5625-1.5625v-6.25c0-0.86328-0.69922-1.5625-1.5625-1.5625h-9.375c-0.86328 0-1.5625 0.69922-1.5625 1.5625v1.5625c0 0.85938-0.69922 1.5625-1.5625 1.5625s-1.5625-0.70312-1.5625-1.5625v-1.5625c0-0.86328-0.69922-1.5625-1.5625-1.5625h-7.8125c-0.86328 0-1.5625 0.69922-1.5625 1.5625v20.312c0 0.86328 0.69922 1.5625 1.5625 1.5625h23.438c0.86328 0 1.5625-0.69922 1.5625-1.5625v-6.25c0-0.86328-0.69922-1.5625-1.5625-1.5625h-0.78125c-1.293 0-2.3438-1.0508-2.3438-2.3438s1.0508-2.3438 2.3438-2.3438zm-0.78125 7.7578v3.1797h-20.312v-17.188h4.6875c0 2.5859 2.1016 4.6875 4.6875 4.6875s4.6875-2.1016 4.6875-4.6875h6.25v3.1797c-2.6484 0.37891-4.6875 2.6641-4.6875 5.4141s2.0391 5.0312 4.6875 5.4141z"/>
  <path d="m59.375 82.812h3.125v3.125h-3.125z"/>
  <path d="m82.812 62.5h3.125v3.125h-3.125z"/>
  <path d="m65.625 45.312h3.125v3.125h-3.125z"/>
  <path d="m39.648 20.656 1.9531 2.4414 7.8125-6.25c0.37109-0.30078 0.58594-0.74609 0.58594-1.2227s-0.21484-0.92188-0.58594-1.2188l-7.8125-6.25-1.9531 2.4414 6.2891 5.0273z"/>
  <path d="m40.625 88.414-2.0195-2.0195-2.2109 2.2109 3.125 3.125c0.30469 0.30469 0.70703 0.45703 1.1055 0.45703s0.80078-0.15234 1.1055-0.45703l6.25-6.25-2.2109-2.2109z"/>
  <path d="m43.75 47.789-2.0195-2.0195-2.2109 2.2109 3.125 3.125c0.30469 0.30469 0.70703 0.45703 1.1055 0.45703s0.80078-0.15234 1.1055-0.45703l6.25-6.25-2.2109-2.2109z"/>
  <path d="m84.375 50c0.39844 0 0.80078-0.15234 1.1055-0.45703l6.25-6.25-2.2109-2.2109-5.1445 5.1445-2.0195-2.0195-2.2109 2.2109 3.125 3.125c0.30469 0.30469 0.70703 0.45703 1.1055 0.45703z"/>
  <path d="m81.25 85.289-2.0195-2.0195-2.2109 2.2109 3.125 3.125c0.30469 0.30469 0.70703 0.45703 1.1055 0.45703s0.80078-0.15234 1.1055-0.45703l6.25-6.25-2.2109-2.2109z"/>
  <path d="m12.5 39.062h3.125v3.125h-3.125z"/>
  <path d="m12.5 32.812h3.125v3.125h-3.125z"/>
  <path d="m18.75 45.312h3.125v3.125h-3.125z"/>
  <path d="m25 45.312h3.125v3.125h-3.125z"/>
  <path d="m12.5 45.312h3.125v3.125h-3.125z"/>
  <path d="m12.5 26.562h3.125v3.125h-3.125z"/>
  <path d="m12.5 20.312h3.125v3.125h-3.125z"/>
  <path d="m12.5 14.062h3.125v3.125h-3.125z"/>
  <path d="m18.75 14.062h3.125v3.125h-3.125z"/>
  <path d="m25 14.062h3.125v3.125h-3.125z"/>
  <path d="m31.25 14.062h3.125v3.125h-3.125z"/>
  <path d="m37.5 14.062h3.125v3.125h-3.125z"/>
 </g>
</svg>
