<?xml version="1.0" encoding="UTF-8"?>
<svg fill="#FFFFFF" width="100pt" height="100pt" version="1.1" viewBox="0 0 100 100" xmlns="http://www.w3.org/2000/svg">
 <g>
  <path d="m43.75 53.488c2.9648-1.7148 5.668-6.8711 6.1328-13.902l-6.1328-0.003907z"/>
  <path d="m39.582 53.488v-13.906h-6.1328c0.46484 7.0352 3.168 12.191 6.1328 13.906z"/>
  <path d="m43.75 21.512v13.906h6.1328c-0.46484-7.0352-3.168-12.191-6.1328-13.906z"/>
  <path d="m33.449 35.418h6.1328v-13.906c-2.9648 1.7148-5.668 6.8711-6.1328 13.906z"/>
  <path d="m51.062 23.754c1.8008 3.6328 2.8164 7.6094 2.9805 11.664h4.0781c-0.57812-4.7188-3.1445-8.9648-7.0586-11.664z"/>
  <path d="m25.211 39.582c0.57812 4.7188 3.1484 8.9648 7.0586 11.664-1.8008-3.6328-2.8164-7.6094-2.9805-11.664z"/>
  <path d="m79.168 56.25v-37.5c-0.007813-5.75-4.668-10.41-10.418-10.418h-54.168c-5.75 0.007813-10.41 4.668-10.414 10.418v37.5c0.003906 5.75 4.6641 10.41 10.414 10.418h14.586v10.414c0 0.78906 0.44531 1.5117 1.1484 1.8633 0.70703 0.35547 1.5508 0.27734 2.1836-0.19531l16.109-12.082h20.141c5.75-0.007813 10.41-4.668 10.418-10.418zm-37.5 2.082c-5.5273 0-10.824-2.1953-14.734-6.1016-3.9062-3.9062-6.1016-9.207-6.1016-14.73s2.1953-10.824 6.1016-14.73c3.9102-3.9062 9.207-6.1016 14.734-6.1016 5.5234 0 10.824 2.1953 14.73 6.1016s6.1016 9.207 6.1016 14.73c-0.007812 5.5234-2.2031 10.82-6.1094 14.723-3.9062 3.9062-9.1992 6.1055-14.723 6.1094z"/>
  <path d="m51.062 51.246c3.9141-2.6992 6.4805-6.9453 7.0586-11.664h-4.0781c-0.16406 4.0547-1.1797 8.0312-2.9805 11.664z"/>
  <path d="m25.211 35.418h4.0781c0.16406-4.0547 1.1797-8.0312 2.9805-11.664-3.9102 2.6992-6.4805 6.9453-7.0586 11.664z"/>
  <path d="m85.418 20.832c-1.1523 0-2.0859 0.93359-2.0859 2.0859 0 1.1484 0.93359 2.082 2.0859 2.082 3.4492 0.003906 6.2461 2.8008 6.25 6.25v37.5c-0.003907 3.4492-2.8008 6.2461-6.25 6.25h-16.668c-0.55078 0-1.082 0.21875-1.4727 0.60938s-0.60938 0.92188-0.60938 1.4727v8.332l-13.336-10c-0.92188-0.6875-2.2266-0.5-2.918 0.42188-0.6875 0.91797-0.5 2.2266 0.42188 2.9141l16.668 12.5h-0.003906c0.63281 0.47266 1.4766 0.55078 2.1836 0.19531 0.70312-0.35156 1.1484-1.0742 1.1484-1.8633v-10.414h14.586c5.75-0.007813 10.41-4.668 10.414-10.418v-37.5c-0.003906-5.75-4.6641-10.41-10.414-10.418z"/>
 </g>
</svg>
