<?xml version="1.0" encoding="UTF-8"?>
<svg fill="#8c0212" width="100pt" height="100pt" version="1.1" viewBox="0 0 100 100" xmlns="http://www.w3.org/2000/svg">
 <path d="m11.898 1h76.199c6.0039 0 10.902 4.8984 10.902 10.898v76.199c0 6-4.8984 10.898-10.898 10.898l-76.203 0.003906c-6 0-10.898-4.8984-10.898-10.898v-76.203c0-6 4.8984-10.898 10.898-10.898zm0 10.898v76.199h76.199l0.003906-76.199zm59.902 38.102c0 3-2.3984 5.3984-5.3984 5.3984h-32.703c-3 0-5.3984-2.3984-5.3984-5.3984s2.3984-5.3984 5.3984-5.3984h32.699c2.9023 0 5.4023 2.3984 5.4023 5.3984z"/>
</svg>
