<?xml version="1.0" encoding="UTF-8"?>
<svg fill="#113660" width="100pt" height="100pt" version="1.1" viewBox="0 0 100 100" xmlns="http://www.w3.org/2000/svg">
 <path d="m83.34 19.172c-0.023438-0.11328-0.066406-0.21875-0.12891-0.32031l-0.37109-0.59766c-0.11719-0.1875-0.29297-0.33203-0.5-0.41016l-0.88281-0.32812c-0.16406-0.35938-0.25781-0.52734-0.68359-0.69922 0.066406-0.39453-0.050782-0.71094-0.31641-0.96094 0.003907-0.65625-0.60547-1.1172-1.207-0.98047l-0.007812 0.003906c-0.14063-0.44922-0.54688-0.75391-1.0586-0.71094-0.058594-0.3125-0.26172-0.58594-0.55078-0.72266l-0.58594-0.28516c-0.23047-0.10938-0.48828-0.125-0.71094-0.0625-0.23047-0.13281-0.50781-0.16797-0.76172-0.097656l-0.71484-0.82422c-0.039063-0.046875-0.085937-0.089843-0.13672-0.12891-0.039062-0.32812-0.24219-0.62891-0.55859-0.77734-0.058593-0.20703-0.18359-0.39453-0.35937-0.53125l-0.70703-0.53906c-0.36719-0.28125-0.89453-0.26953-1.2539 0.039062l-0.28516 0.24609c-0.15234-0.09375-0.33203-0.14062-0.51562-0.14062h-0.003907-1.668c-0.14453 0-0.28125 0.03125-0.41406 0.089844l-1.1758 0.53516c-0.35156 0.16016-0.56641 0.5-0.58594 0.86328-0.19922 0.14844-0.33594 0.36719-0.38281 0.60547l-0.57812 0.40625c-0.035156-0.015625-1.4961-0.49609-1.4961-0.49609-0.18359-0.058594-0.37109-0.066406-0.55859-0.019531l-1.5 0.37891c-0.19531 0.050781-0.37109 0.15625-0.50391 0.30859-0.13672-0.019531-0.30469-0.003906-0.45312 0.050781l-1.1875 0.42578c-0.22656 0.082031-0.41016 0.23828-0.52344 0.43359-0.003907 0-0.003907 0-0.003907 0.003907l-0.57031 0.25391c-0.18359 0.078125-0.33594 0.21484-0.44141 0.38281l-0.56641 0.90234c-0.13672-0.41016-0.51953-0.69141-0.94922-0.69141-0.050781 0-0.56641 0.074218-0.56641 0.074218-0.44922 0.066407-0.78906 0.42969-0.84766 0.87109-0.12891-0.078125-0.27344-0.12891-0.43359-0.14453l-0.97656-0.089844c-0.1875-0.019531-0.38672 0.019531-0.56641 0.11719l-0.8125-0.28516c-0.20312-0.070312-0.42188-0.074218-0.63281-0.007812l-1.0195 0.32031-0.85938 0.30078c-0.50391 0.17578-0.76172 0.70312-0.64062 1.1836l-0.62109-0.10547c-0.70703-0.12109-0.98438 0.34375-1.2188 0.89844l-1.3984 0.74609c-0.41016 0.21875-0.61719 0.63281-0.47266 1.2461-0.21094-0.46875-0.74219-0.71094-1.2461-0.53906-0.30859-0.20312-0.45703-0.32031-0.82812-0.30469l-1.7891 0.11328-0.007812-0.015625c0.19141-0.45312 0.066406-0.88672-0.23047-1.1602 0-0.59766-0.09375-0.75-0.54688-1.1055-0.023437-0.25391-0.14453-0.48828-0.33984-0.65625l-0.019531-0.015625c-0.03125-0.36719-0.015625-0.55078-0.22656-0.85547 0.13281-0.27344 0.17187-0.54688 0.054687-0.84766 0.007813-0.070313 0.019531-0.48047 0.019531-0.55078 0.023438-0.69141-0.46875-0.98047-1.1719-1.0586-0.29297-0.36719-0.57422-0.64453-1.1211-0.53906-0.25781-0.1875-0.44922-0.3125-0.8125-0.28125l-0.98438 0.09375c-0.36328-0.38281-0.68359-0.69141-1.2734-0.48438l-0.53906 0.1875c-0.20312 0.070313-0.37891 0.20703-0.5 0.38672l-0.60937 0.87891c-0.09375-0.054688-0.19531-0.09375-0.30469-0.11719l-0.5625-0.11719-0.67969-0.32422c-0.42969-0.20312-0.92578-0.082032-1.2109 0.27344l-0.84375 1.0117c0.027344-0.17969 0.003906-0.29297-0.035156-0.46875 0.1875-0.80469-0.35938-1.3164-0.95312-1.3164-0.32031 0-0.52734 0.14844-0.82422 0.30859-0.43359 0.23437-0.51953 0.59766-0.51953 1.0352l-0.17969 0.27734c-0.29297 0.45703-0.16797 1.0664 0.28516 1.3711-0.054687 0.011719-1.0625 0.28516-1.1094 0.29688-0.35156 0.09375-0.51563 0.33203-0.76953 0.60938l-0.32812-0.16016c-0.29297-0.14453-0.62891-0.13281-0.89844 0.011719-0.28125 0.14453-0.47656 0.41406-0.52734 0.72656l-0.09375 0.5625c-0.054688 0.34375 0.070312 0.67578 0.30859 0.89453-0.023438 0.16406-0.003906 0.27344 0.035156 0.42969-0.0625 0.046875-0.58203 0.48438-0.65625 0.54688-0.54297 0.45312-0.45703 1.3047 0.15625 1.6445-0.039062 0.11328-0.054688 0.23047-0.054688 0.35156l-0.61719 0.082031c-0.30469-0.17578-0.64844-0.13281-1.0273-0.13281l-0.28125-0.17187c-0.34766-0.21094-0.68359-0.13672-1.1016-0.10938h-0.011719c-0.054688-0.011718-0.11328-0.015624-0.17188-0.019531-0.26172-0.19922-0.64453-0.23047-0.96875-0.29688-0.15625-0.03125-0.33984-0.023437-0.51172 0.03125-0.050781-0.066406-0.19531-0.23047-0.25391-0.29297-0.19141-0.21484-0.46484-0.33594-0.74609-0.33594h-0.019531c-0.039063-0.023438-0.078125-0.039062-0.11719-0.058594l-0.27734-0.11328c-0.12109-0.050781-0.25-0.074219-0.37891-0.074219-0.11719 0-0.23438 0.019532-0.34375 0.0625l-0.66406 0.24219c-0.99609 0.36719-0.80469 1.8281 0.24609 1.9336l0.019531 0.003906c0.50781 0.77734 1.3633 0.84375 1.9062 0.57422 0.11719 0.085938 0.35547 0.19141 0.49219 0.25781l0.13672 0.14844c0.21875 0.23438 0.53906 0.35938 0.89844 0.30859 0.10938 0.054688 0.23047 0.09375 0.35547 0.10547 0.15234 0.17578 0.36719 0.28906 0.60156 0.32422 0.078125 0.011718 0.76562 0.11328 0.83203 0.11719 0.1875 0.11328 0.40625 0.16406 0.64062 0.13672l0.35547-0.042969c0.26172 0.11719 0.41016 0.21094 0.69531 0.21094 0.03125 0.27734 0.20313 0.57031 0.49609 0.73828l0.58984 0.33984c0.15234 0.085937 0.32422 0.13281 0.49609 0.13281h0.67969c0.47656 0 0.67969-0.24219 0.92969-0.57031 0.20312-0.046875 0.38281-0.15234 0.53516-0.32812 0.35156 0.046875 0.94141-0.011719 1.2773-0.039063 0.37109 0.35938 0.83594 0.39062 1.1992 0.19531-0.0625 0.40234-0.042969 0.73438 0.29297 1.0391l0.49219 0.44922c-0.007813 0.32812 0.011718 0.58594 0.27734 0.85938l0.097656 1.4531c-0.035156 0.082031-0.27734 0.86328-0.30469 0.94922l-0.42578 0.82031c-0.22266 0.42969-0.10156 0.94141 0.25 1.2266-0.10547 0.23438-0.26562 0.53125-0.28125 0.78516-0.058594 0.015625-0.11719 0.039062-0.17578 0.070312l-0.38672 0.19531c-0.30078 0.15234-0.5 0.44141-0.53906 0.77734l-0.097656 2.2461c0 0.65625 0.61328 1.1055 1.1914 0.98047-0.42187 0.30859-0.75391 0.73828-0.65625 1.2578l0.27734 1.4961c0.007813 0.050781 0.023438 0.10156 0.039063 0.14844l0.31641 0.90625c-0.007813 0.03125-0.34766 1.6289-0.35156 1.6445l-1.5 2.6055-0.80469 0.95312c-0.10156 0.12109-0.17578 0.26562-0.21094 0.42188l-0.31641 1.3945-0.45312 0.72266c-0.070312 0.11328-0.11719 0.24219-0.14062 0.375l-0.27734 1.7656c-0.019532 0.13281-0.015626 0.26562 0.015624 0.39844l0.23047 0.92188c-0.03125 0.09375-0.050781 0.1875-0.054687 0.28906l-0.03125 0.66016c-0.007813 0.12109 0.011718 0.23828 0.046875 0.35156-0.078125 0.1875-0.097657 0.39453-0.054688 0.60156l0.33984 1.5938c-0.035156 0.51562-0.054687 0.91406 0.46094 1.2305l0.46484 0.27734c0.13672 0.35156 0.20703 0.55859 0.58984 0.74609l0.35547 0.65234 0.33594 3.7539c0.023438 0.23047 0.12891 0.44141 0.28906 0.60547l0.33984 0.33594c-0.60547 0.15234-0.91797 0.80859-0.67578 1.3633l0.27734 0.64453c0.050781 0.11328 0.12109 0.22266 0.21094 0.3125l1.3516 1.3945 0.003906 0.14453c-0.21875 0.46875-0.38281 0.81641-0.039062 1.2969l1.1328 1.5703 0.16797 0.60156c0.15234 0.53906 0.71875 0.85156 1.25 0.6875l0.52344-0.15234c0.39453-0.11719 0.67969-0.47266 0.71094-0.88281l0.046875-0.60156 0.55469 0.64453c0.050781 0.18359 0.089843 0.38281 0.18359 0.54688l0.47266 0.80469 0.078124 0.5625c0.019532 0.14453 0.050782 0.20312 0.10156 0.32422-0.23047 0.47266 0 0.003906-0.29688 0.41406-0.1875 0.26172-0.23828 0.60156-0.13281 0.90234l0.38672 1.1328c0.066406 0.19531 0.19531 0.37109 0.36719 0.49219l0.76172 0.54297 0.40234 0.66016c0.10156 0.16406 0.25 0.30078 0.42969 0.38672l0.80469 0.37891c0.12891 0.0625 0.27734 0.089844 0.42578 0.125l0.46094 0.48828c0.0625 0.0625 0.12891 0.12109 0.20312 0.16797l1.2539 0.76953c0.046875 0.027344 0.097657 0.058594 0.14844 0.074219l0.67188 0.26953 0.66797 0.46094c0.054688 0.035156 0.11328 0.070312 0.17578 0.097656l1.375 0.58203c0.12109 0.050781 0.25781 0.078124 0.39062 0.078124h0.77344c0.14844 0 0.29688-0.03125 0.43359-0.10156l0.67578-0.32422 0.16406 0.054688 2.1172 2.2227c0.14062 0.13672 0.31641 0.22656 0.50781 0.26562l0.67578 0.12891 0.69531 0.25391 1.3008 0.51953c0.14453 0.0625 0.35547 0.09375 0.51953 0.13281 0.035156 0.078125 0.085938 0.15234 0.14453 0.22266l0.89453 1.0547c0.085938 0.10156 0.37109 0.33203 0.47266 0.42188-0.027344 0.32422-0.0625 0.53125 0.085937 0.81641l0.24609 0.47266c0.10938 0.21484 0.29688 0.37891 0.51953 0.46875 1.1758 0.45703 0.38281 0.11719 1.2969 0.61328 0.007813 0.27344 0.13281 0.53516 0.33984 0.71875l0.33984 0.30078c0.17188 0.14844 0.38672 0.23438 0.60547 0.24609 0.34375 0.19531 0.61328 0.12109 1.0078 0.066406 0.054687 0.015625 0.375 0.38281 0.41016 0.42578 0.089844 0.10156 0.19531 0.17969 0.3125 0.23047 0.25391 0.32812 0.67578 0.47266 1.0781 0.35547l0.85156-0.25391c0.3125-0.09375 0.57812-0.33984 0.67969-0.68359l0.82812 1.3125c0.4375 0.67578 1.4375 0.57422 1.7539-0.14844l0.67969-1.5586c0.16016-0.36719 0.089844-0.79688-0.1875-1.0859l-1.2656-1.3359c-0.16016-0.16797-0.30469-0.28125-0.55859-0.33984l-1.5273-0.34766c-0.23437-0.054687-0.47656-0.019531-0.68359 0.085938l-1.1758 0.60547c-0.18359-0.15234-0.40625-0.23828-0.64453-0.24219l-0.99609-1.4297 0.70703-2.9805c0.0625-0.22266 0.054687-0.45312-0.035156-0.66797l-0.35547-0.85156c-0.10938-0.26562-0.33203-0.47266-0.60547-0.5625l-1.8867-0.63281c-0.10547-0.03125-0.21094-0.054687-0.31641-0.054687-0.019531 0-1.7031 0.097656-1.7031 0.097656l0.10547-0.74219c0.25-0.14062 0.42969-0.37891 0.48828-0.66016 0 0 0.32422-1.4805 0.32812-1.5195l0.023437-0.27734 0.41797-0.40625c0.21484-0.20703 0.32031-0.5 0.30078-0.79688l-0.0625-0.76953c-0.039062-0.51172-0.46094-0.90234-0.96875-0.92188l-1.6406-0.046875c-0.10156 0-0.17969 0.007813-0.29688 0.035156l-1.7148 0.47266c-0.35156 0.10156-0.625 0.375-0.70703 0.73047l-0.29688 1.2188-0.21484 0.23438-0.44141 0.15234c-0.27344 0.039063-1.6719 0.23828-1.9219 0.27734-0.28125-0.3125-0.37109-0.4375-0.8125-0.51953-0.042969-0.14844-0.14844-0.54688-0.19922-0.66016l-0.65625-1.4414-0.22656-1.3633 0.24219-1.3438 0.44922-1.0625 0.20703-0.37891c0.089844-0.16797 0.13281-0.35547 0.12109-0.54688l-0.054688-0.86719 0.20703-0.41797c0.082031-0.039062 0.86719-0.42188 0.94141-0.47656l1.0117-0.64844 0.58203-0.11328 0.63672 0.26172c0.22266 0.09375 0.47266 0.10547 0.71094 0.019531l0.27344 0.24219c0.24609 0.22266 0.59375 0.3125 0.94141 0.21875l0.40234-0.11719c0.75 0.54688 1.125 0.39062 1.6758-0.16016 0.17188-0.17188 0.26953-0.39844 0.28516-0.64453 0.17969 0.015624 0.28516 0.023437 0.46484-0.027344l0.61328-0.17578 0.33984 0.09375c0.66406 0.83594 0.80469 1.0898 1.8984 0.64453l0.35547 0.35938-0.0625 0.96875c-0.011719 0.17578 0.023437 0.35547 0.10156 0.51172 0.94531 1.9062 0.69141 1.5703 1.2422 2.1484 0.11719 0.69922 0.51953 0.98828 1.0117 0.98828h0.49609c0.35547 0 0.67969-0.18359 0.85547-0.48828l0.39844-0.67188v0.011719 0.78125c0 0.24219 0.089844 0.47266 0.24219 0.65625-0.003906 0.17578 0.039062 0.34766 0.12891 0.50391l-0.27734-0.22656c-0.14453-0.11719-0.3125-0.19141-0.49609-0.21484 0 0-1.9688-0.26562-2.0117-0.26562h-1.3555c-0.14453 0-0.28906 0.03125-0.42188 0.09375l-1.0391 0.48438c-0.23047 0.10547-0.41406 0.30078-0.50781 0.53125l-0.33984 0.85547c-0.28906 0.72656 0.32812 1.4883 1.1016 1.3555l0.45312-0.078125c0 0.003907 0.003906 0.007813 0.003906 0.007813 0.1875 0.28125 0.5 0.45312 0.83984 0.45312h0.47656c0.41406 0 0.79687-0.23047 0.97656-0.76172h0.60938c0.60156 0.53516 0.63672 0.66797 1.3828 0.66797 0.0625 0.10156 0.14062 0.1875 0.23047 0.26953l0.51953 0.41406c0.039062 0.03125 0.074218 0.058594 0.12109 0.082032-0.011719 0.21484 0.054688 0.42969 0.1875 0.61719-0.88672 0.10938-1.3125 1.1602-0.42188 1.8672 0.19922 0.53125 0.63672 0.76562 1.0898 0.70312l1.0859-0.13672c0.1875-0.023437 0.36328-0.10156 0.51172-0.22656l0.33984-0.28125c0.18359-0.14844 0.30469-0.36328 0.34766-0.59766 0.046875 0.078125 0.10156 0.15234 0.17188 0.21875l0.51953 0.51172c0.41406 0.40234 1.1016 0.37891 1.4766-0.082031 0.48438 0.023437 0.40234 0.019531 0.66016 0.007812 0.5625 0.77734 1.2695 0.80469 1.8555 0.039063 0.36328 0.078125 0.65625-0.058594 0.9375-0.30859 0.42578 0.15234 0.8125 0.51953 1.4219 0.10547 0.1875 0.18359 0.4375 0.28906 0.70312 0.28906h1.4453c0.30078 0 0.57813-0.13672 0.76953-0.36328l0.36328-0.4375c0.51172-0.61719 0.11719-1.5625-0.67969-1.6328l-1.7188-0.16016c-0.21875-0.015625-0.41016 0.019532-0.60938 0.14062l-0.29687-0.35547c-0.31641-0.39062-0.64453-0.38281-1.0625-0.34375l-0.23047-0.23828c-0.16406-0.17578-0.38672-0.28125-0.62109-0.30859l-1.0859-0.11328c-0.24219-0.027344-0.50781 0.0625-0.75391 0.12109l-0.64062-0.19141c-0.24609-0.074219-0.53125-0.054688-0.78125 0.085937l-0.074218 0.042969c-0.03125-0.035156-0.070313-0.070312-0.10938-0.10156l-0.65625-0.50781c-0.14062-0.10938-0.30859-0.17969-0.48047-0.19922-0.15625-0.28125-0.44141-0.47656-0.76562-0.51172l-0.85547-0.09375c-0.097656-0.11719-0.15625-0.19531-0.30078-0.28516l-0.26562-0.16797c0.34375-0.16406 0.5625-0.51953 0.5625-0.89844v-0.55469c0-0.27344-0.10938-0.52734-0.30078-0.71484-0.058593-0.26562-0.082031-0.44141-0.21875-0.64062l-0.34375-0.48438c-0.36719-0.52344-1.1211-0.56641-1.5547-0.10547 0.003906-0.070313-0.042969-1.2539-0.046875-1.3398-0.007812-0.11328-0.027344-0.23047-0.070312-0.33203l-0.49219-1.2383c-0.027344-0.22266-0.058594-0.54297-0.125-0.71875l-0.35156-0.86719-0.011719-0.72656 0.53125-0.69141 1.0586-1.0312 0.39453-0.3125 0.26953-0.050781c0.23047-0.042969 0.4375-0.16406 0.58594-0.34375l0.33594-0.40234 0.32031-0.023438c0.50391-0.042969 0.91406-0.42188 0.95703-1.1719 0.45703-0.28906 0.58984-0.76953 0.44531-1.1836-0.039062-0.12109-0.21094-0.60547-0.22656-0.72656l0.29688-0.58203 0.31641-0.35938c0.20312-0.23047 0.28516-0.54297 0.23047-0.83984l0.16016-0.28125 0.44141-0.70703c0.066406-0.10547 0.10938-0.23047 0.13672-0.35547l0.82031-0.26953c0.15234-0.050782 0.28516-0.13672 0.39453-0.23828 0.066406-0.019531 1.0625-0.53516 1.0625-0.53516 0.57031-0.30469 0.70312-1.0469 0.30078-1.5273l-0.21094-0.25 0.14063-0.47266 1.3242-0.72266c0.078125 0.27344 0.26953 0.5 0.52344 0.625l0.64844 0.3125c0.44922 0.22266 1.0078 0.066406 1.2812-0.36328l0.53516-0.85156c0.26953-0.0625 0.61328-0.10938 0.84766-0.26953 1.4922-1.0469 1.2148-0.78516 2.1289-1.793 0.18359-0.19922 0.27344-0.46484 0.26172-0.73828-0.019531-0.25-0.12891-0.48438-0.3125-0.66016l0.29297-0.066406 0.60937-0.09375c0.15625 0.35547 0.51563 0.59766 0.91406 0.59766h0.56641c0.12891 0 0.25781-0.023437 0.37109-0.070312 0.30469 0.125 0.95312 0.12109 1.2422-0.015625 0.65234-0.3125 1.1992-0.51562 1.0664-1.3086l-0.18359-1.082c-0.027344-0.1875-0.11328-0.35938-0.23438-0.5-0.066406-0.27344-0.23438-0.50781-0.51172-0.66016-0.10938-0.16406-0.26953-0.28516-0.44531-0.36328l-0.12891-0.27734c-0.20703-0.45312-0.71875-0.72266-1.3125-0.49609-0.10547-0.11328-0.24219-0.20312-0.39453-0.25781 0.15234-0.47656 0.24219-0.92969-0.21484-1.3086 0.007812-0.26953-0.097657-0.53906-0.30078-0.73828l-0.28516-0.28125-0.23047-0.56641c-0.17188-0.41016-0.63672-0.64453-1.0625-0.76562-0.13281-0.32812-0.42969-0.5625-0.77734-0.61719l-0.64844-0.097657c-0.25391-0.22266-0.42578-0.37109-0.8125-0.37109-0.054688-0.054688-0.11328-0.10156-0.18359-0.14062l-0.5625-0.33984c0.078125-0.32031-0.007812-0.66406-0.23047-0.91016l-2.6445-2.8359c-0.17969-0.17188-0.40625-0.26562-0.64453-0.27734 0.10938-0.26172 0.10547-0.56641-0.019531-0.82812 0.34766-0.35938 0.60156-0.67188 0.39844-1.2227l-0.17188-0.46484c0.058594-0.0625 0.10547-0.12891 0.14453-0.20313 0.097656-0.18359 0.47266-0.87891 0.51953-1.0586l0.35547-1.3125c0.17187-0.64062-0.3125-1.2617-0.96484-1.2617h-0.43359c-0.14062-0.22656-0.36328-0.39062-0.62891-0.44922l-0.83594-0.1875c0.035156-0.20703 0.007813-0.42188-0.089844-0.61328l-0.53125-1.0859c-0.085937-0.17187-0.21484-0.31641-0.37891-0.41406l-1.2188-0.73828-0.51172-0.39453c-0.35156-0.26953-0.625-0.23047-0.97656-0.15234-0.58984-0.64844-0.52734-0.57812-0.67969-0.96094-0.15625-0.39453-0.47266-0.58984-0.91406-0.63672 0.17969-0.25391 0.22656-0.57422 0.13672-0.86719l0.26172-0.23047c0.11719-0.10547 0.20703-0.23047 0.26563-0.36719 0.074218 0.066406 0.16016 0.11719 0.26172 0.16016l0.29297 0.125 0.23047 0.38672c0.18359 0.30078 0.50781 0.48047 0.85547 0.48047h0.74219c0.19141 0 0.37891-0.054688 0.53906-0.16016l0.33984-0.21875h0.6875l0.26562 0.30859c0.078125 0.09375 0.17578 0.17188 0.28516 0.23047l0.8125 0.44141 0.50781 0.61719 0.10156 0.41797v0.53906c0 0.55469 0.49219 0.96875 0.98828 1.2109 0.023437 0.42969 0.41406 1.2461 0.89844 1.4297l0.64062 0.23438c-0.039062 0.15625-0.023437 0.63281-0.023437 0.80859 0 0.32031 0.15234 0.62109 0.40625 0.80469 0.019531 0.18359 0.09375 0.36328 0.21484 0.51172 0.52344 0.65234 1.3828 1.7266 2.1328 2.1016l0.27734 0.5c0.12891 0.23438 0.33203 0.39453 0.61328 0.48047 0.16016 0.66016 0.625 0.71094 1.2305 0.82422l0.51172 0.69141c0.26953 0.37109 0.76953 0.50781 1.1953 0.32812l0.6875-0.29297c0.4375 0.53125 0.90234 0.92188 1.5547 0.51562l0.67969-0.42578c0.44922-0.28125 0.60156-0.86328 0.34766-1.3242 0.046875-0.17188 0.039063-0.39844-0.035156-0.60547l-0.58984-1.5117c-0.003906-0.003907-0.007812-0.011719-0.007812-0.015625 0.050781-0.12109 0.074219-0.24609 0.074219-0.37891v-0.53516c0-0.1875-0.054688-0.37109-0.15234-0.53125l-0.42969-0.67969c0.16016-0.13281 0.26953-0.30859 0.32812-0.50781l0.31641-0.15234c0.27344-0.13281 0.47656-0.38281 0.53906-0.68359l0.17578-0.78516c0.042969-0.1875 0.027344-0.38672-0.035156-0.56641l-0.22656-0.59766 0.007813-0.019531 1.2188-1.8906c0.09375-0.15625 0.14453-0.33594 0.14453-0.51562v-1.2617c0.042969-0.26172-0.078125-0.53125-0.28906-0.71875zm-66.012 1.5859l0.66406-0.24219 0.27734 0.11328-0.18359 0.20703zm1.3828 0.67578h-0.42578l-0.20312-0.23047h0.44141l0.25781-0.44531 0.18359 0.20703zm54.789 54.75l1.7188 0.16016-0.35938 0.4375h-1.4492zm-14.812-2.8164h-0.47656l0.20312-0.46094 0.38672 0.11328zm5.6523 3.7344l-1.0859 0.13672-0.11719-0.32422-0.33594-0.26172 1.2227-0.15625 0.65625 0.32031zm1.2109-0.77344c-0.054687-0.097656-0.125-0.18359-0.20703-0.25781 0.11328-0.007812 0.21484-0.039062 0.32422-0.066406-0.0625 0.10938-0.10156 0.22266-0.11719 0.32422zm2.5195 0.17578l0.54297-0.20312-0.36328-0.34766-0.17969-0.62109-0.72266-0.11328 0.65234-0.37109 0.90625 0.27344 0.67969-0.16016 1.0859 0.11328 0.5625 0.59766 0.67969-0.066406 0.47656 0.57422-0.24609 0.48437-0.26953-0.16406-0.85938-0.21875-0.47656 0.42578-0.29297-0.21094-0.31641 0.097656-0.49609 0.64453-0.45312-0.62109-0.72266 0.046874-0.88281-0.046874-0.31641 0.39453-0.51953-0.51172 0.60938-0.20312zm-5.1758-7.0742l0.33984 0.48437 0.15234 0.69141 0.1875 0.09375v0.55469l-0.4375-0.36719 0.11719-0.39062-0.35938-0.27734zm-0.10547 3.1328l0.94531 0.60156 0.3125 0.39453 1.2656 0.13672 0.20312 0.51172h0.54297l0.65625 0.50781-1.4453 0.36719h-1.7383l0.31641-0.55859-0.10547-0.34766h-0.71094l-0.51953-0.41406v-0.48438h-1.1055l-0.74219-0.67188h-1.3125l0.24609-0.46094h-1.1758l-0.45312 0.41406h-0.40625l-0.16016 0.32422-0.65625 0.11719 0.33984-0.85156 1.0391-0.48438h1.3555l1.8789 0.25391 0.5625 0.46094zm-4.5195-55.879l0.35938-0.0625 0.39453 0.55078v0.42578l-0.75781-0.10938zm0.87891 1.1523l-0.23047 0.26953-0.37109-0.26953zm-0.97266 0.48437h0.74219l0.125 0.47266 0.48047 0.03125 0.27734 0.44141-0.24609 0.33984 0.51172 0.48047h0.69531l0.85156-0.37891 0.78906 0.28125 0.1875 0.31641-0.48438 0.61328h-0.70312l-0.94141-0.0625-0.66406-0.078125v-0.23828l-0.52344 0.23828-0.53906-0.37891 0.26172-0.69141-0.046875-0.47266-0.027344-0.33203-0.40234 0.23438-0.46484-0.50391zm-0.41797 4.1133l-0.38672 0.34766-0.30859-0.25391 0.10547-0.70703 0.24609-0.60156 0.55859-0.36328 0.46484 0.33203h0.57031l0.14063 0.21875-0.88281 0.92969-0.71094-0.09375zm-0.27734-2.3477l0.38672-0.42578 0.44922 0.0625 0.09375 0.36328-0.15625 0.44141h-0.40234zm-0.41797-3.6758v-0.57812l0.41797-0.0625 0.09375 0.48828 0.375 0.56641-0.14453 0.58203h-0.32422l-0.0625-0.51953-0.49609-0.0625zm-0.91016 1.6953l0.14062 0.80078 0.32422-0.39453 0.30859 0.39453 0.14062-0.39453 0.55859 0.15625v0.30078l-0.44922 0.28125 0.10938 0.20312-0.35547 0.53516-0.57031-0.1875 0.35547-0.59766h-0.60547l-0.29297-0.69922zm-0.20312 2.6719l0.88281 0.078125 0.09375 0.34766-0.55469 0.61719 0.29297 0.42188-0.29297 0.62891h-0.57031l-0.0625 0.28516-0.35547-0.09375-0.078124-0.57422-0.60156-0.76562 0.21484-0.36328 0.48047 0.46094 0.28516-0.39844-0.34766-0.30078zm-1.375-4.2969l0.97266 0.089843-0.44531 0.51563-0.60547-0.13281zm-0.13672 2.0781l-0.15234-0.56641 0.41797-0.30078 0.3125 0.12109-0.1875 0.76172 0.53516 0.14062-0.66406 0.80859-0.71094-0.40234-0.43359 0.21094-1.0078-0.03125-0.44531-0.34766 0.86328-0.15625-0.17188-0.25391-0.63281 0.09375-0.35547-0.64453 0.75781 0.11328 0.14062-0.50781 0.55859-0.18359 0.43359 0.39844-0.015624 0.55859 0.38672 0.34766zm-2.5039-1.9766l1.0195-0.32031 0.88281 0.30859-0.72656 0.69922-0.24609-0.35156-0.52344 0.35156-0.35547-0.10938-0.46484 0.25781-0.42188-0.54297zm-4.5742 2.9531l1.7148-0.91406 0.26172-0.62891 1.0977 0.1875 0.078125 0.56641 0.69531 0.09375-0.015625 1.0078 0.24609 0.078125-0.3125 0.51953 0.3125-0.10937 0.52344 0.45703-0.27344 0.28516 0.43359 0.15625 0.30859-0.62891 0.35547 0.59766-0.32422 0.86719 0.32422 0.078126 0.27734-0.94531 0.24609-0.50391 0.41797 0.1875-0.10937-0.37891 0.55469-0.23437 0.40234 0.53516-0.43359 0.42578-0.39062-0.23438 0.14453 0.69141-0.48047 1.4961 0.72656 0.91406-0.1875 0.44141-0.57031-0.28125 0.23047 0.50391-0.09375 0.30078-0.92578-0.125-0.61719-0.22266v-0.48828l-0.81641 0.25391-1.2227 0.078125-0.97266-0.44141 0.125-0.61328-0.78906-0.42578-0.003906-0.71094 0.80469-0.0625 0.94141 0.55078 0.41797-0.0625-0.48047-0.59766-1.2031-0.34766-0.125-0.44141 1.1289-0.046875-0.51172-0.0625-0.35156-0.60156 1.1133-0.97656-1.9023 1.0859-0.77344-0.20312 0.15234-0.42578zm-18.039-5.8164v-0.44922l0.34375-0.1875-0.074218 0.32031 0.074218 0.32031-0.23828 0.73047-0.44141-0.20703zm-3.5391 3.0039l0.46094 0.22656-0.20313 0.43359-0.35156-0.09375zm0.64453 7.375h-0.67969l-0.58984-0.33984 0.29688-0.36328 0.57031-0.17969 0.074218 0.35938h0.3125l0.27734 0.18359zm0.69922-0.54297h-0.44141v-0.33984h0.44141zm4.207 1.0977l0.0625-0.41016-0.09375-0.25391 0.0625-0.71094-0.29297-0.41016-0.40234-0.078126-0.33984 0.39453-0.43359 0.28516-0.33984-0.34766-1.5469 0.078125 0.125-0.44141 0.49609 0.125 0.046875-0.39453 0.44922-0.15625 0.51172-0.28516h0.60156l0.29297 0.25391 0.09375-0.41016-0.43359-0.14062h-0.94141l-0.69531 0.31641-0.55469-0.046875-0.63281 0.09375 0.09375 0.31641-0.16016 0.25391-1.8242 0.078125-0.41797-0.089844-0.30859 0.14062-0.60156 0.078125-0.52344-0.23438-0.63281 0.078125-0.37109-0.25391-0.078125 0.10938-0.75781-0.10938-0.18359-0.41016-0.46484 0.078126-0.078125-0.34766-0.37109 0.046875-0.17188 0.20312-0.26172-0.28125-0.51172-0.25391 0.35547-0.1875 0.55469 0.10938v0.23438l0.58594-0.03125v0.15625l0.26172-0.14062 0.52344-0.03125 0.41797 0.25391-0.21484 0.20312 0.15625 0.125 0.27734-0.26953h0.69531l0.38672 0.26953 0.23047-0.14062 0.95703-0.125 0.85156-0.48828 0.63281-0.09375-0.52344-0.23438 0.14062-0.26953-0.55469 0.10938 0.27734-0.51953-0.17188-0.48828-0.57031-0.1875 0.58594-0.48828 0.40234-0.0625 0.43359-0.47266-0.32422-0.1875-0.10938-0.41016 0.64844-0.91406 0.35547 0.56641 0.17188-0.17188-0.10938-0.30078 0.10938-0.55078 0.40234-0.44141 1.0508-0.28516 0.29297 0.10938 0.88281-0.30078 0.078124 0.15625-0.14062 0.25391 0.125 0.23438 0.55469 0.0625 0.10938 0.28516 0.40234 0.03125 0.75781-0.67578 0.38672 0.10938 0.19922-0.15625-0.35547-0.25391-0.38672-0.046875 0.03125-0.37891-0.30859-0.26953-0.078124-0.45703 0.51172-0.51953 0.37109-0.03125v-0.45703l0.21484-0.26953 0.78906 0.37891 0.67969 0.14062 0.125 0.26953-0.66406 0.33203 0.125 0.62891 0.41797 0.078126 0.83594-0.69141-0.125-0.33203 0.60156-0.51953 0.63281-0.94531 0.53906-0.1875 0.55469 0.58203 1.4688-0.14063 0.49609 0.36328-0.10938 0.25391 0.52344-0.34766 0.40234 0.50391 0.69531 0.078125-0.015625 0.47266-0.21484 0.30078 0.27734 0.17188-0.35547 0.73828 0.24609 0.078125 0.18359 0.26953 0.0625 0.73828 0.32422 0.28125v0.39453l0.53906 0.42578v0.44531l-8.7656 6.9961 0.63281 0.60938-0.22656 0.21094v1.7344l0.96094-0.28125 0.003907 0.55078c-0.41406 1.6875-0.62109 2.5977-0.62109 2.6992 0 0.11719 0.125 0.67969 0.24609 1.1875l-1.0273 0.77734 0.11719-0.59375-0.32422-0.20312-0.46484 0.58203-0.074219-0.49609 0.43359-0.97656-0.046875-0.85156-0.46875 0.20703 0.46484-0.89844 0.29297-0.92969 0.23047-0.10938-0.14062-0.1875-0.125-1.875 0.27734-0.1875-0.53906-0.1875 0.015624-0.59766zm-0.76172 10.578l0.09375-2.1328 0.38672-0.19531 0.33203 0.39453-0.58984 0.61719 0.054687 0.71484zm19.137 45.512l-0.32422-0.30859 0.089844-1.0234 0.37109-0.61328 1.3672 0.15234v-0.90625l-0.70313-0.47266 0.3125 0.066407v-0.625h1.3984l-0.35938 2.2891 0.75391-0.22266-0.69141 0.57422v0.33984h-0.19922l-0.97266 0.98828-0.28125-0.10547zm3.5078-4.0312l-0.19922 1.4492-0.37109 0.39453-0.16406 0.050781 0.27344-1.7266 0.44531-0.45312 0.3125 0.13672zm-0.64844 4.9922l-1.3047-0.52344 0.66016-0.67969h0.11719l0.57813 0.75391h0.625l-0.12109 0.57422zm1.9492 1.6875l-0.90625-1.0781 0.71094-0.16016 0.4375-0.51172v-0.32422l0.50781-0.13672 0.44531 0.24219 0.73047-0.95703 0.32812 0.20703 1.0977-0.44141 0.10937 0.26562-0.78516 3.3398 0.089844 0.23047-0.16016 0.058594c-0.13281-0.09375-0.32422-0.22656-0.44531-0.26562-0.14453-0.050781-1.5195-0.042969-1.6328-0.019531zm3.1992 3.7031l-0.33984-0.30078v-0.56641l-0.88281-0.47266-0.17188-0.41016-0.27734-0.15625 0.125 0.37891-0.72656-0.27734-0.24609-0.47656 0.050782-0.51172c0.019531-0.003906 0.03125-0.007812 0.03125-0.011719 0.51953 0.003907 1.1367 0.023438 1.2305 0.042969 0.054688 0.019531 0.52344 0.35156 0.52344 0.35156l0.46484-0.16016 0.53125 0.71875-0.070313 0.77734 0.10156 0.26953-0.078125 0.19141-0.007813 0.53516-0.13281-0.15234zm1.4961-0.91406l0.35547 0.39453 1.9297-0.86719 1.5312 0.34766 1.3125 1.3867-0.67969 1.5547-1.0195-1.625 0.38672-0.34766-0.30859-0.074219-0.71484-0.67969-0.56641 0.15625-0.29688 0.51953-0.41406 0.14063-0.125 0.21094 0.43359 0.66016-0.85156 0.25391-0.125-0.55078-0.15234-0.22266-0.09375 0.47656-0.57031-0.62891-0.51172-0.14453-0.27734 0.035156v-0.55859l0.13672-0.32813-0.12109-0.44922 0.35547 0.48047zm-3.4766-7.168l1.8867 0.63281 0.054687 0.125-0.85547 0.35156-0.5-0.3125-0.74609 0.98047-0.24609-0.13672-1.0664 0.28906v0.51953l-0.21094 0.24219-0.3125 0.070313-0.066406-0.050782 0.19922-0.96875h-0.99219l-0.45312-0.58594v-0.26953l0.89844-0.74609zm-9.8906-3.5586l0.67969 0.10938 0.53906 0.59766 0.67969-0.10938 1.8555-0.26953 0.77344-0.26953 0.55859-0.61328 0.35547-1.4648 1.7148-0.47266 1.6406 0.046874 0.0625 0.77344-0.68359 0.66016-0.0625 0.64453-0.22656 1.0234-0.64844-0.28516-0.67188 0.6875h-2.0898v0.50391l-0.65234-0.14062 0.27344 0.91406 0.77344 0.51953v0.082031l-1.1289-0.12891-0.56641 0.9375-0.082031 0.80078-1.4844-1.6367-0.80469-0.23438-1.0195 0.48828h-0.77344l-1.375-0.58203-0.75781-0.51953-0.77344-0.3125-1.2539-0.76953-0.66406-0.71094-0.52344-0.125-0.80469-0.37891-0.51172-0.83594-0.92578-0.66016-0.38672-1.1367h0.37109l-0.0625-0.41016 0.27734-0.56641-0.21484-0.48438-0.10938-0.75781-0.57031-0.98047-0.14062-0.51953-0.80469-0.92969-0.09375-0.50391-0.35547-0.44141-0.44922-0.25391-0.15625-0.50391 0.33984-0.31641-0.125-0.3125-0.38672-0.14453 0.03125-0.44141-0.26172-0.0625-0.23047-0.3125-0.015625-0.55078-0.27734-0.15625-0.69531-1.4961-0.27734-1.6523 0.17188-0.5625-0.29297-0.13281-0.10938-0.41016-0.40234-0.046875-0.32422-0.42578-0.32422 0.47266-0.046875 1.3398 0.51172 0.97656 0.015625 0.35938 0.43359 0.82031-0.10547 0.5625 0.23047 0.0625 0.078124 0.41016 0.35547 0.85156 0.078125 0.85156 0.15625 0.53516 0.125 1.4336 0.38672 0.097656 0.37109 0.64453-0.046875 0.60156-0.52344 0.15625-0.21484-0.77734-1.2344-1.7188 0.23047-0.50391-0.015625-0.73828-0.51172-0.58203-0.078124-0.34766-0.26563 0.003906-0.78906-0.78516-0.27734-0.64453 0.97266 0.37891-0.18359-0.39453 0.21484-0.47266-0.33984-0.99219-0.53906-0.53516-0.3125-3.1406 1.6914 0.26562c2.7422 2.1562 2.7891 2.1445 2.8789 2.1562 0.046875 0.007812 0.23828 0.046875 0.49609 0.097656 1.9492 0.39062 1.9727 0.39062 2.0547 0.13672 0.015625-0.042969 0.074219-0.14844 0.125-0.24609l1.0625 0.21875 0.09375 0.30859 1.0078 1.2422v1.0273s1.0938 0.94922 1.2695 0.83203c0.070312-0.046875 0.78125-0.49219 0.78125-0.49219v-0.23047l0.82422 0.17578 0.375 0.57422 0.13281 0.9375 0.59375 0.89453 0.29688 1.3281 1.6992 0.70703-0.10547 0.19531-0.51172 1.2148-0.29297 1.6211 0.27734 1.668 0.71094 1.5586zm23.148-24.934l-0.40234 1.3555 0.55469 0.66016-0.85938 0.45703-0.95703-0.0625-0.71094 0.41016 1.2344-0.09375-1.5625 0.50391 0.0625 0.53516-0.67969 1.1172-0.49609-0.44141 0.43359 1.0234-0.39844 0.45703-0.4375 0.85156-0.0625-0.35938 0.19922-0.48828-0.29297-0.34766-0.09375-1.1641-0.41797 1.0703 0.27734 0.28516 0.12109 0.56641-0.32422 0.39453 0.51953 0.14062 0.0625 0.50391 0.24609 0.73828-0.75781 0.48828 0.26172 0.30078-0.046875 0.25391-0.74219 0.0625-0.60547 0.72656-0.51172 0.097656-0.63281 0.50391-1.1445 1.1172-0.78516 1.0195 0.015625 1.2617 0.41797 1.0391 0.074219 0.60156 0.53906 1.3555 0.046875 1.2422-0.52344 0.88281h-0.48828l-0.078125-0.45703-0.48047-0.50391-0.80859-1.6211 0.097657-1.418-1.1445-1.1484-0.97656 0.39453-0.58594-0.73828-0.92578-0.25391-0.88281 0.25391-1.3555-0.10938-0.33984 0.53516 0.51172 0.48438-0.1875 0.19141-0.57031-0.42578-0.88281 0.25391-0.74219-0.66016-0.52344 0.22266-0.91016-0.37891-1.0664 0.20312-1.1758 0.75781-1.1445 0.5625-0.48047 0.96484 0.058594 0.86328-1.375-0.57031-0.25-1.1211-0.58594-0.86328-0.12891-0.92969-0.55859-0.89453-1.6289-0.34375v0.57031c-0.12109 0.074219-0.30469 0.19141-0.43359 0.26953-0.13672-0.10547-0.39062-0.33203-0.61719-0.54688v-0.99219l-1.043-1.2578-0.16797-0.54297-1.7148-0.35156s-0.21484 0.39453-0.25781 0.47656c-0.32812-0.042969-1.9844-0.375-2.0508-0.38672-0.26562-0.17578-2.7773-2.1445-2.7773-2.1445l-1.918-0.29688-0.007813-0.27344-0.61719-1.1328-0.30859-0.15625-0.19922-0.51953-0.75781-0.45703 0.03125-0.4375-0.37109-1.7305 0.26172-0.36328-0.23047-0.32812 0.03125-0.66016 0.26172 0.12891v-0.50781h-0.18359l-0.27734-1.1172 0.27734-1.7656 0.53906-0.86719 0.35547-1.5586 0.86328-1.0234 1.6211-2.8203 0.32422-1.5234 0.18359 0.14062 0.74609 0.62109 0.81641-0.75781 7.5664 2.3906 9.6484 1.9375h0.67188l0.050781-0.10937c0.019532 0.082031 0.078126 0.42969 0.078126 0.42969l1.1016 0.18359c0.64844 0.58203 0.79688 0.58203 0.86328 0.58203 0.074219 0.007812 0.45703 0.097656 0.90625 0.21094-0.43359 0.26953-1.0703 0.67187-1.1016 0.71875-0.046875 0.070312 0.52734 0.070312 0.52734 0.070312l-0.046874 0.37891 1.0195-0.070312 0.76562-0.47266 0.023437 0.30859 0.36719 0.046875 0.60156 0.37891 1.4648-0.11328c0.12109 0.19531 0.30859 0.5 0.50391 0.82031h-0.44141s-0.23047-0.16406-0.30078-0.16406c-0.070313 0-1.25 0.28125-1.25 0.28125l-0.69141 0.84766 0.25391 0.30469-0.55469 1.4141 0.23047 1.5586s1.0195-0.21484 1.0625-0.30859c0.046875-0.09375 0.019531-1.6758 0.019531-1.6758l0.4375-1.2031 0.92578-0.68359s0.9375 0.35547 1.0352 0.35547h0.007812 0.003906c0.046876 0 0.046876 0.68359-0.003906 0.70703-0.046875 0.023437-0.60156 0.73047-0.60156 0.73047l0.1875 0.30859 0.67578-0.4375 0.23047 0.35938-0.86719 1.5586 0.14844 0.54688h1.5039l1.8281-1.0156-0.023437-0.60156 0.023437 0.011719 1.9883-0.1875 0.30078-0.1875-0.054688-0.41797 0.78125-0.68359c1.0078-0.074218 2.4648-0.17969 2.5586-0.18359 0.070312 0 0.92578-0.53906 0.92578-0.53906l0.58984-1.6875 0.35547 0.019532 0.25781-0.16797 0.19922 0.125 0.51172 1.7539 0.53125 0.40625zm6.8594-2.4805l-0.65625-0.16016v-0.57422l0.23047-0.66797h0.49609l-0.023437 0.71484 0.22656-0.13672 0.26953 0.23047zm-2.5469-1.418l0.12891 0.52344 0.36328 0.18359 0.78906-0.14453-0.21094 0.48438-1.3711-0.64453zm-0.86719-2.5703l-0.20312-0.09375h1.1641l0.96094 0.64453h-0.94922zm2.0859 2.1367c-0.070313 0.003906-0.21094 0.03125-0.30078 0.046875-0.097656-0.22266-0.26562-0.40234-0.48047-0.50781 0.019531-0.039062 0.035156-0.082031 0.046874-0.12109 1.3633 0 1.7305-0.62109 1.5195-1.2969 0.085937-0.011719 0.16797-0.039063 0.24609-0.070313-0.023438 0.16406-0.007813 0.31641 0.058593 0.5l-0.082031 0.14062c-0.16016 0.26953-0.14453 0.45312-0.14453 0.75781-0.36719 0.007812-0.69922 0.22266-0.86328 0.55078zm6.0078-1.582l0.22656-0.20703-0.16016 0.76172 0.38672-0.32422 0.18359 1.082-0.50781 0.24219v-0.37891l-0.42188 0.37891-0.09375-0.24219zm-7.6406-7.9492l-0.23047 0.67578 1.2539 0.75781 0.23047 0.64453 0.48047-0.36328 0.35547 0.31641 0.94141 0.14062-0.48047 0.45703 0.55859-0.17188 0.27344 0.48828 0.27734-0.1875 0.43359 0.1875 0.3125 0.75781 0.43359 0.42578-0.46484 0.91406 0.80469-0.13672-0.31641 0.96875-0.066406 0.94531 0.47656-0.50781 0.44922 0.09375-0.26953 0.41406 0.45312 0.14063 0.94922-0.32422 0.17969 0.39062-0.089843 0.59766 0.5625-0.20703v0.53125l-0.32031 0.39062-0.60938 1.1523h-0.56641l0.54688-0.69141-0.49609 0.11328-0.14062-0.36719-0.58984 0.30078-1.0391 0.16016-0.78906 0.18359v-0.46484l0.31641-0.53125-0.15625-0.48437 0.15625-0.27734v-0.875l0.55469-1.5234-1.1758 0.39453-0.38672 0.72656-0.53906 0.50391-2.7031 0.125-1.4531 0.30078-0.43359 0.82031-0.40234 0.015625-0.67969 0.71094-1.5 2.1406 0.51172-0.36328 0.77344-1.1016 1.8242-1.2305 1.2656-0.14062 0.48047 0.71094-0.58984 0.59766-0.83594-0.03125 0.3125 0.31641 0.71094-0.20312 0.0625 0.78516 0.85156 0.99219 0.61719 0.14062 1.3594 0.14062 0.29297 0.20312-1.1875 0.83594-0.89453 0.20312-0.75781 1.1953-0.64844-0.31641-0.125-0.64453 0.98828-0.96094-0.125-0.30078-0.71094 0.45703-0.625 0.11328c-0.14062-0.078125-0.3125-0.17578-0.44531-0.24609l-0.50781-1.7383-0.63281-0.39453-0.39062 0.25391-0.56641-0.027344-0.66016 1.8945c-0.23047 0.16406-0.48828 0.33594-0.50781 0.35547-0.09375 0-2.7617 0.19531-2.7617 0.19531l-1.1055 0.96484c-0.66406 0.12891-1.7734 0.34766-1.8242 0.36328-0.070313 0.023437-0.37109 0.39844-0.37109 0.40234 0 0 0.003907 0.46484 0.011719 0.72266-0.046875 0.003906-0.82031-0.015625-0.86328-0.015625-0.066407 0-0.46484 0.28125-0.46484 0.28125l-0.91797 0.30469-0.12891-0.10938 0.64453-1.1484 0.3125-0.15234v-0.74219l0.32422-0.50781s0.71484 0.22266 0.88672 0.22266c0.019531 0 0.19922-0.60156 0.19922-0.60156l-0.625-0.70703-1.2695-0.37891-0.89453 0.12891c-0.35547-0.58594-0.55859-0.91406-0.67188-1.0977-0.070312-0.42188-0.15625-0.90234-0.17188-0.94141-0.011719-0.027344-0.53516-0.015625-0.60547 0h-0.007812c-0.11328 0-0.22656-0.68359-0.22656-0.68359l-1.2461-0.35547-0.21094 0.28125-0.92188 0.41016c-0.92188-0.23828-1.4375-0.35938-1.4805-0.34766-0.089844-0.035156-0.40234-0.28906-0.64453-0.50781l-0.054687-0.050781-0.89453-0.14844c-0.09375-0.46094-0.23047-0.74219-0.40234-0.82812l-0.23437-0.12109-0.25 0.56641-0.29688 0.003906-9.5742-1.9258-7.8203-2.4727-0.70703 0.65625-0.81641-0.71484-0.38672-1.1016-0.27734-1.4961 0.26172-0.26953 0.43359 0.72656 0.64844 0.73828-0.57031-1.1016-0.09375-0.77344 0.35547-0.61328-0.23047-0.42578 0.21484-0.55078-0.29297-0.51953 0.10938-0.61328 0.35547-0.15625 0.15625-0.30859 1.6758-1.2656s-0.29688-1.3008-0.30469-1.3711c0.019531-0.15234 0.38281-1.6758 0.61719-2.6562v-1.2773l-0.95703 0.28125v-0.84375l0.45312-0.42188-0.60156-0.58203 8.2578-6.5898 0.074219 0.039062-0.18359 0.44141 0.57031 1.3086 0.38672-0.30078 1.9922-0.125 0.35547 0.23438-0.38672 0.21875 0.52734 0.15625 0.60156-0.36328 0.10938 0.36328-0.33984 0.45703 0.015625 0.48828 0.94141-0.50391-0.46484 0.83594 0.85156-0.26953 0.94141 1.6055 0.55469 0.09375 0.32422 0.30078 0.09375 0.53516-0.88281 0.15625 1.0039 0.64453h1.082l0.52344 0.96094-0.23047 0.53516 0.37109-0.125 0.21484-1.0078 0.95703-0.17188-0.97266-0.074219 0.15234-0.34766 1.1016-0.10938-0.1875 0.56641 1.1445 0.94531 1.6367 0.10938 0.015625-0.47266h0.48047l-0.51172-0.62891 0.66406-0.66016 0.71094 0.55078 0.14062 0.64453-0.76172 0.20312 0.3125 0.28516-0.4375 0.42578 0.48047 0.48828 0.03125-0.58203 0.33984-0.078125 0.63281-0.41016-0.19922-0.36328 0.23047-0.47266-0.53906-0.51953-0.19922-0.31641 0.3125-0.23438-0.14062-0.375 0.98828-0.92969 0.46484 0.37891v0.80469l0.35547 0.48828-0.38672 0.59766 0.48047 0.17188-0.078124 1.1953 0.41797-0.77344 0.53906 0.14063 0.15234 0.59766-0.30859 0.31641 0.37109 0.80469 0.49219-0.44141 0.27734-0.71094 0.36719-0.14062-0.09375-0.80469 0.37109-0.23438 1.1875 0.61328 0.0625 0.59766-0.41797 0.15625 0.35547 1.0391-0.48047 0.53516-0.94141 0.41016-0.44922-0.25391-0.43359-0.10937 0.14062 0.44141-0.76953 0.61328 0.17188 0.41016-0.97656 0.85156-1.4531 0.20312 0.33984 0.26953-0.29297 0.44141-0.76953 0.31641-1.5469 1.418-0.32422 1.0703-0.24609 0.50391 0.17188 0.42578 0.68359 0.015625 0.1875 1.418-0.29297 0.39453 1.3281-0.21875 1.4961 1.2422 0.77344 0.31641 0.55859 0.56641 1.8398 0.15625v2.1562l1.0352 1.4961 0.53906 0.37891 0.23047-0.39453 0.35547 0.42578-0.015625-0.58203 0.21484-0.45703-0.30859-0.59766 0.0625-0.86719-0.26953-0.99219 1.1289-0.56641 0.61719-1.1172-0.15234-1.2617-0.88281-1.0391 0.57031-0.82031-0.3125-1.0703 0.15625-0.62891-0.34375-0.59766 0.32422-0.47266 0.72656 0.22266 0.97656 0.125 0.26563-0.28516 0.97656 0.69141 0.43359 0.56641 1.0352 0.14062-0.015625 0.89844 0.1875 0.88281 0.69531 0.15625 0.46484 0.58203 0.91016-0.58203 0.125-0.48828 0.24609-1.1016zm-9.6172-8.2109c0.003906 0 0.003906 0.003907 0.007812 0.003907-0.73828-0.039063-1.1445 0.4375-1.1445 1.0391-0.17578-0.22656-0.32812-0.28516-0.59375-0.40625 0.3125-0.13672 0.91406-0.82812 1.0156-1.1055 0.039062 0.027344 0.68359 0.44922 0.71484 0.46875zm-0.13672-1.2891l0.80078-0.54297 0.33203 0.29297 0.16797 0.40625-0.60938 0.29297zm-1.8125 11.934v-0.023438c0-0.51953-0.39844-0.95312-0.91406-0.99609l-1.4727-0.125-0.29688-0.30469c-0.097656-0.097656-0.21094-0.17578-0.33594-0.22656l-0.63281-0.25781-1.3789-1.1445c-0.22266-0.18359-0.5-0.25781-0.77344-0.22266l-0.097656-0.73047c-0.046875-0.34766-0.26562-0.63281-0.5625-0.77344l0.17188-0.5625 1.2109-1.1094 0.60547-0.24609c0.1875-0.074219 0.34375-0.20313 0.45312-0.37109l0.27344-0.41406 0.29297-0.039062c0.11328 0.11719 0.25781 0.20703 0.41406 0.25781 0.070312 0.19141 0.20312 0.35938 0.37891 0.47656 0.11719 0.078125 0.25 0.13281 0.39062 0.15625 0.0625 0.32422 0.27344 0.60547 0.59375 0.74219l0.54297 0.23047c0.26172 0.11328 0.58203 0.10938 0.86328-0.039062 0.03125 0.0625 0.070313 0.12109 0.11719 0.17578 0.28906 0.34375 0.58203 0.35547 0.97266 0.35547 0.015625 0.11328 0.17188 0.63281 0.20703 0.75391l-0.30078 0.42969c-0.26172 0.37109-0.23828 0.87109 0.058594 1.2188l0.6875 0.8125 0.078125 0.64062-0.3125 0.5625-0.85547 0.42969c-0.15234 0.074218-0.28516 0.19922-0.37891 0.34375zm0.007812 2.1719v0.41406l-0.74609-0.41406 0.09375-0.25391zm-1.0742-11.984l0.32813 0.46094 0.74609 0.34766-0.20312 0.53125 0.40625-0.09375 0.38281 0.11328-0.20312 0.48438-0.76562-0.070313v-0.32422l-0.54688 0.046876-0.49609 0.39062-0.67969 0.27734v-0.59766h-0.63281l0.38672-0.36719 0.40625-1.5195h0.54297l-0.046876 0.46094zm0.87109 2.582l-0.54297 0.62109-0.54297-0.23047 0.11328-0.48438 0.69922-0.13672zm0.8125 1.0352l0.11328-0.64453 0.42969 0.18359-0.20312 0.46094h-0.33984zm6.7305 0.48828s0.67188 0.09375 0.69922 0.097657c-0.023438 0.054687-0.27344 1.1445-0.27344 1.1445-0.20312-0.13281-0.38281-0.070312-0.42969-0.30078-0.003907 0 0.011719-0.89062 0.003906-0.94141zm-5.0469-10.887h-0.88672l-0.64453 0.49609 0.82031 0.25 0.019532-0.46094 0.86328-0.12891 0.84766 0.92969 0.71094-0.15625 0.55469 0.42969 1.2656 0.76953 0.53125 1.0859-0.55469 0.13672 0.24219 0.51953 0.71094 0.40625 1.1992 0.27344 0.15234 0.47656h1.1367l-0.35547 1.3125-0.44531 0.85937-0.8125-0.88672-0.86328-0.56641-0.28906 0.49609 0.75391 0.94922 0.77344 0.31641 0.42188 1.1523-0.44141 0.46484-0.75391-0.46484-0.86719-0.31641 0.28906 0.59766 1.0625 0.37891 0.35547 0.66016-1.6211-0.23047-0.42188-0.62109h-0.91016l-0.51172-0.69141-0.95312-0.83984-0.5625 0.097656-0.41016 0.33203-0.88672 0.066406v-1.1562l0.99609 0.046875 0.55469-0.046875 0.55859-0.33984-0.42188-0.54297 0.64453-0.38672 0.17969-0.60937-0.62109-0.92969-1.1094-0.92969-0.95312-0.79297-0.74219 0.70312-1.0859-0.56641-1.0977 0.046876-0.52734-0.36328-0.73047-0.51953 0.84375-0.17969-0.22266-0.28516h-0.62109v-0.81641l0.84375-1.1328 1.1367-0.26562-0.50391 0.53906-0.11719 0.51953 0.24219 0.67969 0.37891-0.31641-0.17578-0.56641 0.41797-0.47656 1.1094-0.15625 1.2695 0.13672zm0.53125-5.75l-0.77344 0.1875 0.35547 0.72656-0.27734 0.44141-0.72656 0.45703 0.40234 0.47266-0.55859 0.48828-0.3125-0.0625-0.19922-0.42578-0.75781 0.24609-0.75781-0.089844-0.69531-0.15625 0.24609-0.45703h0.71094l-0.29297-0.58203 0.53906-0.078126 0.23047 0.35938 0.19922-0.15625v-0.67578l-0.67969 0.25391-0.125-0.37891-0.73828 0.33203-0.64844-0.82031 0.49219-0.1875-0.64844-0.44141 0.69531-1.1016 0.57031-0.25391 0.43359 0.78516 0.4375 0.41016 0.33984-0.45703-0.63672-0.22266-0.10547-0.92969 1.1875-0.42578 0.51562 0.20312 0.35547-0.53516 1.5-0.37891 1.3906 0.45703-0.94141 1.0547 0.72656-0.078126-0.92188 1.1641zm18.516 4.4258l-1.2695 1.9531-0.15234 0.50391 0.33984 0.91406-0.17578 0.78516-0.84766 0.41016v0.37891l-0.39844 0.1875v0.47266l-0.1875 0.125 0.30859 0.41016 0.49219 0.78516v0.53516l-0.27734 0.56641 0.27734 0.1875 0.58594 1.5117-0.09375 0.41016 0.1875 0.3125-0.67969 0.42578-0.80469-0.98828-0.55859 0.37891-0.73828 0.3125-0.74219-1.0078-0.83594-0.15625v-0.50391l-0.71094-0.21875-0.40234-0.72656 0.27734-0.37891-0.27734-0.31641-0.30859 0.50391c-0.98438-0.82422-0.85156-0.64844-1.793-1.8281l0.15234-0.41016-0.55859-0.28125v-0.59766l0.64844 0.03125 0.0625-0.44141-0.30859-0.56641-0.03125-0.91406-0.41016-0.03125-0.85547 0.03125 0.74219 0.34766-0.42969 0.41016-0.67969-0.25391-0.24609-0.53516 0.39844-0.09375-0.39844-0.41016h0.73828l0.71484-0.03125-1.1133-0.88281h-0.64844l-0.24609 0.56641-0.43359-0.31641v-0.66016l-0.1875-0.75781-0.76953-0.94531-0.98828-0.53516-0.39844-0.47266-0.33984-0.1875h-1.2656l-0.58984 0.37891h-0.74219l-0.40234-0.66016-0.58594-0.25391h1.0195l0.37109-0.31641-0.027344-0.41016-0.4375 0.25391-0.76953-0.125-0.4375-0.37891 0.64844-0.69141 0.71094-0.53516 0.30859 0.15625-0.21875-0.72656-0.49219 0.15625-0.24609-0.44141 0.68359-0.82031h0.37109l-0.03125-0.44141 0.68359-0.69141 0.36719 0.28516 0.49219-0.28516-0.43359-0.31641h0.71484l-0.1875-0.69141 0.58984-0.28516-0.1875-0.47266 1.1758-0.53516h0.37109l-0.15234 0.44141 0.52344-0.44141h0.92578l-0.03125 0.44141-0.61719 0.53516 0.51953-0.03125 0.34375-0.125 0.21484 0.28516-0.15234-0.62891 0.67969 0.41016 0.30859-0.50391-0.21484-0.37891 0.40234-0.34375 0.71094 0.53516-0.19922 0.82031 0.48047-0.28516 0.24609 0.09375-0.15234 0.47266 0.52344 0.1875 1.1758 1.3555 0.55469-0.21875 0.21875 0.37891 0.55859-0.28516 0.58984 0.28516-0.71094 0.56641 0.39844 0.31641 0.58594-0.28516 0.1875 0.28516 0.61719-0.0625-0.09375 0.75781 0.52344 0.09375 0.74219-0.15625-0.43359 0.82031 0.76953-0.0625-0.125 0.91406-0.74219-0.09375 0.0625 0.72266 0.76953 0.0625 0.24609-0.62891 0.46484 0.1875 0.24609 0.53516 1.2695 0.47266 0.36719 0.59766-0.64453 0.1875-1.082-0.31641 0.21875 0.37891 0.49219 0.22266-0.21484 0.85156 0.68359-0.66016 0.86328-0.125v1.2578c-0.003906 0 0 0 0 0z"/>
</svg>
