<?xml version="1.0" encoding="UTF-8"?>
<svg fill="#19294F" width="100pt" height="100pt" version="1.1" viewBox="0 0 100 100" xmlns="http://www.w3.org/2000/svg">
 <path d="m11.898 1h76.199c6.0039 0 10.902 4.8984 10.902 10.898v76.199c0 6-4.8984 10.898-10.898 10.898l-76.203 0.003906c-6 0-10.898-4.8984-10.898-10.898v-76.203c0-6 4.8984-10.898 10.898-10.898zm0 10.898v76.199h76.199l0.003906-76.199zm43.5 32.703h10.898c3 0 5.3984 2.3984 5.3984 5.3984s-2.3984 5.3984-5.3984 5.3984h-10.898v10.898c0 3-2.3984 5.3984-5.3984 5.3984s-5.3984-2.3984-5.3984-5.3984v-10.898h-10.902c-3 0-5.3984-2.3984-5.3984-5.3984s2.3984-5.3984 5.3984-5.3984h10.898l0.003906-10.902c0-3 2.3984-5.3984 5.3984-5.3984s5.3984 2.3984 5.3984 5.3984z"/>
</svg>
