<?xml version="1.0" encoding="UTF-8"?>
<svg fill="#113660" width="100pt" height="100pt" version="1.1" viewBox="0 0 100 100" xmlns="http://www.w3.org/2000/svg">
 <g>
  <path d="m15.84 52.695c0 0.13672-0.007813 0.27344-0.019532 0.41016 0 0.070312-0.058593 0.27344 0 0.007812-0.046874 0.21484-0.085937 0.42969-0.15625 0.63281-0.03125 0.078125-0.058593 0.16406-0.085937 0.24219 0.097656-0.25391 0.019531-0.046875-0.007813 0-0.125 0.22266-0.24219 0.4375-0.39062 0.65625 0.16406-0.24219-0.15625 0.17578-0.21484 0.23438-0.13672 0.13672-0.27344 0.26562-0.42188 0.38281 0.22266-0.17578 0 0-0.058594 0.03125-0.085937 0.058593-0.17578 0.11719-0.27344 0.16406-0.078126 0.039063-0.15625 0.078125-0.22266 0.11719-0.28125 0.15625 0.16406-0.039063-0.125 0.046875-0.20312 0.070312-0.41016 0.125-0.625 0.17578-0.27344 0.070313-0.070312 0.019531 0 0.007813-0.10938 0.007812-0.22266 0.019531-0.33203 0.03125-0.20312 0.007812-0.41016 0-0.60547-0.007813-0.42188-0.019531 0.17578 0.039063-0.070312-0.007813-0.14844-0.03125-0.30469-0.070312-0.44922-0.10937-0.097656-0.03125-0.51562-0.19531-0.25391-0.078126-0.19531-0.085937-0.38281-0.1875-0.55469-0.30469-0.070312-0.046875-0.13672-0.097656-0.21484-0.14844 0.26563 0.1875-0.070312-0.058594-0.097656-0.085938-0.15625-0.14844-0.30469-0.29297-0.4375-0.44922-0.26562-0.29297 0.085938 0.14844-0.039062-0.058593-0.058594-0.085938-0.11719-0.17578-0.17578-0.26563-0.039062-0.070312-0.085937-0.14844-0.125-0.22266 0 0.007813-0.17578-0.37109-0.085937-0.17578 0.085937 0.19531-0.070313-0.19531-0.058594-0.1875-0.03125-0.078125-0.046875-0.16406-0.078125-0.25391-0.03125-0.10938-0.046875-0.21484-0.070312-0.32031-0.019532-0.10938-0.019532-0.085937 0 0.058594-0.007813-0.070312-0.007813-0.13672-0.019532-0.19531-0.019531-0.20313-0.019531-0.41016 0-0.60547 0 0.007812 0.058594-0.42188 0.019532-0.20312-0.039063 0.21484 0.046875-0.20312 0.046875-0.19531 0.046875-0.1875 0.10938-0.37109 0.16406-0.55469 0.078125-0.22266-0.16406 0.28125 0.03125-0.058594 0.058594-0.10938 0.11719-0.22266 0.1875-0.33203 0.039063-0.070313 0.097657-0.14844 0.13672-0.21484 0.19531-0.34375-0.1875 0.1875 0.078125-0.10938 0.11719-0.125 0.22266-0.25391 0.35156-0.37109 0.085937-0.085937 0.1875-0.17578 0.28125-0.25391-0.046876 0.039062-0.21484 0.13672 0.007812 0 0.20312-0.11719 0.39844-0.24219 0.60547-0.35156 0.21484-0.10938-0.32031 0.097656 0.070312-0.03125 0.078125-0.03125 0.16406-0.058594 0.24219-0.078126 0.10938-0.03125 0.20312-0.058593 0.3125-0.078124 0.078125-0.019532 0.35938-0.058594 0.070312-0.03125 0.20312-0.03125 0.39844-0.03125 0.60547-0.03125 0.11719 0 0.22266 0.007812 0.34375 0.019531 0.3125 0.019531-0.19531-0.058594 0.13672 0.019531 0.21484 0.046875 0.42188 0.10938 0.625 0.17578 0.38281 0.11719-0.22266-0.13672 0.125 0.046875 0.10938 0.058594 0.22266 0.11719 0.33203 0.1875 0.070312 0.039063 0.14844 0.097656 0.21484 0.13672 0.28125 0.16406-0.11719-0.125 0.10938 0.078125 0.1875 0.17578 0.35938 0.35156 0.53906 0.53906 0.039063 0.046876 0.15625 0.22266 0.007813 0 0.070312 0.10938 0.14844 0.20313 0.20312 0.32031 0.058593 0.085937 0.097656 0.1875 0.15625 0.28125 0.03125 0.058594 0.058593 0.11719 0.085937 0.17578-0.058594-0.13672-0.058594-0.14844-0.03125-0.046875 0.078125 0.22266 0.14844 0.44922 0.19531 0.68359 0.070312 0.27344 0.019531 0.070313 0.007812 0-0.003906 0.19531 0.007813 0.37109 0.007813 0.55469 0.007812 0.76172 0.66406 1.5039 1.4648 1.4648 0.78125-0.039062 1.4766-0.64453 1.4648-1.4648-0.039062-2.6172-1.6797-4.8828-4.1406-5.7617-2.2969-0.82031-5.0469-0.039063-6.582 1.8359-1.6211 1.9844-1.9219 4.8047-0.59375 7.0312 1.3281 2.2188 3.8984 3.3125 6.4258 2.8516 2.8438-0.51562 4.8516-3.125 4.8906-5.957 0.007813-0.76172-0.68359-1.5039-1.4648-1.4648-0.80078 0.027343-1.4453 0.64453-1.4648 1.4648z"/>
  <path d="m18.555 64.266c0 3.2812 0.058593 6.5625 0 9.8359v0.097657c0 0.085937-0.058594 0.35938 0 0.078125-0.019532 0.10938-0.046876 0.21484-0.078126 0.3125-0.058593 0.22266 0.16406-0.27344-0.019531 0.070312-0.058593 0.10938-0.125 0.22266-0.19531 0.33203 0.039062-0.058594 0.17578-0.17578-0.007813 0-0.085937 0.085937-0.17578 0.1875-0.27344 0.26562 0.20312-0.16406 0.039062-0.03125-0.007813 0-0.11719 0.058594-0.21484 0.125-0.34375 0.1875 0.34375-0.14844-0.52734 0.078126-0.13672 0.039063-0.26563 0.03125-0.53906 0.007813-0.80078 0.007813-0.78906 0-1.4648 0.67187-1.4648 1.4648v5.2031 3.4062 0.98438 0.20312 0.03125 0.13672c0.03125-0.17578 0.019532-0.17578-0.019531-0.007813-0.007812 0.039063-0.03125 0.078126-0.039062 0.11719 0.070312-0.15625 0.058593-0.15625-0.019531-0.007812-0.007813 0.019531-0.019532 0.039062-0.039063 0.046874-0.058594 0.085938-0.046875 0.070313 0.039063-0.046874-0.03125 0.03125-0.058594 0.058593-0.085938 0.085937 0.11719-0.078125 0.13672-0.097656 0.046875-0.039063-0.046875 0.058594-0.32031 0.15625-0.039063 0.046876-0.078124 0.03125-0.16406 0.046874-0.24219 0.070312 0.26562-0.070312-0.097656-0.007812-0.19531-0.007812h-1.4453-1.8281-0.55469-0.16406c-0.058594 0-0.28125-0.019532-0.11719 0 0.21484 0.03125-0.17578-0.058594-0.1875-0.058594 0.33203 0.125 0 0 0.007812-0.019532-0.039062-0.019531-0.070312-0.046874-0.10938-0.070312 0.13672 0.097656 0.13672 0.097656 0.007813-0.019531 0.007812 0.019531 0.019531 0.039062 0.039062 0.046875 0.058594 0.085937 0.046875 0.070312-0.039062-0.046875-0.019532 0.007812-0.097657-0.20312-0.019532 0.007812-0.03125-0.070312-0.078125-0.4375-0.058594-0.11719 0-0.046875-0.007812-0.097656 0-0.15625 0.007813-0.21484 0-0.42969 0-0.63281v-3.0078-6.1719c0-0.78906-0.67187-1.4648-1.4648-1.4648h-0.52734c0.007813 0-0.42188-0.039062-0.20312-0.007812 0.21484 0.039062-0.19531-0.058594-0.19531-0.058594-0.046876-0.007813-0.27344-0.097656-0.007813 0.007812-0.11719-0.046875-0.22266-0.125-0.34375-0.1875-0.22266-0.11719-0.070313-0.046875-0.007813 0-0.078124-0.070312-0.15625-0.14844-0.23437-0.21484-0.058594-0.058593-0.20313-0.27344-0.046876-0.046874-0.046874-0.070313-0.097656-0.14844-0.13672-0.21484-0.039063-0.070313-0.085938-0.14844-0.11719-0.22266 0.11719 0.26562 0.007813-0.007813 0-0.078126-0.019531-0.078124-0.058594-0.35937-0.03125-0.070312-0.007812-0.085938-0.007812-0.17578-0.007812-0.27344-0.007813-0.51562 0-1.0234 0-1.543v-6.7109c0-0.53906-0.007813-1.0742 0-1.6094 0-0.058593 0.070312-0.44922 0-0.14844 0.019531-0.097656 0.16406-0.53906 0.046875-0.26562 0.039062-0.097657 0.097656-0.1875 0.14844-0.28125 0.03125-0.070313 0.20312-0.28125 0.03125-0.070313 0.058594-0.070312 0.10938-0.125 0.17578-0.1875 0.039062-0.039062 0.34375-0.26562 0.097656-0.097656 0.070312-0.046875 0.14844-0.097656 0.21484-0.13672 0 0 0.37109-0.16406 0.17578-0.085937-0.17578 0.070312 0.57812-0.097656 0.19531-0.058594 0.11719-0.007812 0.23438-0.007812 0.35156-0.007812 1.9141-0.007813 3.8281 0 5.7344 0h2.9492 0.25391 0.15625c0.41016 0-0.15625-0.046876 0.070312 0.007812 0.039063 0.007812 0.42188 0.11719 0.25391 0.058594-0.19531-0.070313 0.17578 0.085937 0.17578 0.085937 0.058594 0.039063 0.35156 0.25391 0.11719 0.058594 0.070313 0.058594 0.125 0.10938 0.1875 0.17578 0.039063 0.039063 0.26562 0.34375 0.097657 0.097656 0.046874 0.070313 0.097656 0.14844 0.13672 0.21484 0.046875 0.097656 0.13672 0.35156 0.070313 0.11719 0.03125 0.10938 0.058593 0.20312 0.085937 0.3125 0.019532 0.10938 0.019532 0.085937 0-0.058594-0.011718 0.125-0.011718 0.21094-0.011718 0.29688 0.019531 0.76172 0.66406 1.5039 1.4648 1.4648 0.78125-0.039063 1.4844-0.64453 1.4648-1.4648-0.058594-2.3516-1.9141-4.2188-4.2773-4.2773-0.65625-0.007812-1.3203 0-1.9727 0h-6.7773c-1.6016 0-3.0664 0.65625-3.9336 2.0508-0.59375 0.94531-0.625 1.9844-0.625 3.0469v7.1211c0 0.76172-0.058594 1.5625 0.03125 2.3242 0.15625 1.3203 0.83984 2.4805 1.9648 3.2031 0.85938 0.55469 1.8164 0.66406 2.8125 0.66406-0.48828-0.48828-0.97656-0.97656-1.4648-1.4648v5.6953 3.3477c0 1.1797 0.10937 2.3047 1.0234 3.1953 1.1016 1.0742 2.5469 0.9375 3.9531 0.9375h1.8945c0.49609 0 0.99609 0.019531 1.4844-0.097656 1.6797-0.39844 2.5586-1.9141 2.5586-3.543v-2.8984-6.6328l-1.4648 1.4648c0.84766 0 1.6406-0.078125 2.4219-0.44922 0.86719-0.42188 1.6016-1.1719 1.9922-2.0625 0.39844-0.89844 0.39844-1.7891 0.39844-2.7422v-6.8945-2c0-0.76172-0.67188-1.5039-1.4648-1.4648-0.8125 0.054688-1.4844 0.66016-1.4844 1.4766z"/>
  <path d="m40.383 52.695c0 0.13672-0.007812 0.27344-0.019531 0.41016 0 0.070312-0.058593 0.27344 0 0.007812-0.046875 0.21484-0.085937 0.42969-0.15625 0.63281-0.03125 0.078125-0.058593 0.16406-0.085937 0.24219 0.097656-0.25391 0.019531-0.046875-0.007813 0-0.125 0.22266-0.24219 0.4375-0.39062 0.65625 0.16406-0.24219-0.15625 0.17578-0.21484 0.23438-0.13672 0.13672-0.27344 0.26562-0.42187 0.38281 0.22266-0.17578 0 0-0.058594 0.03125-0.085938 0.058593-0.17578 0.11719-0.27344 0.16406-0.078125 0.039063-0.15625 0.078125-0.22266 0.11719-0.28125 0.15625 0.16406-0.039063-0.125 0.046875-0.20312 0.070312-0.41016 0.125-0.625 0.17578-0.27344 0.070313-0.070312 0.019531 0 0.007813-0.10938 0.007812-0.22266 0.019531-0.33203 0.03125-0.20312 0.007812-0.41016 0-0.60547-0.007813-0.42188-0.019531 0.17578 0.039063-0.070312-0.007813-0.14844-0.03125-0.30469-0.070312-0.44922-0.10937-0.097657-0.03125-0.51562-0.19531-0.25391-0.078126-0.19531-0.085937-0.38281-0.1875-0.55469-0.30469-0.070313-0.046875-0.13672-0.097656-0.21484-0.14844 0.26562 0.1875-0.070312-0.058594-0.097656-0.085938-0.15625-0.14844-0.30469-0.29297-0.4375-0.44922-0.26562-0.29297 0.085937 0.14844-0.039063-0.058593-0.058593-0.085938-0.11719-0.17578-0.17578-0.26563-0.039062-0.070312-0.085937-0.14844-0.125-0.22266 0 0.007813-0.17578-0.37109-0.085937-0.17578 0.085937 0.19531-0.070313-0.19531-0.058594-0.1875-0.03125-0.078125-0.046875-0.16406-0.078125-0.25391-0.03125-0.10938-0.046875-0.21484-0.070313-0.32031-0.019531-0.10938-0.019531-0.085937 0 0.058594-0.007812-0.070312-0.007812-0.13672-0.019531-0.19531-0.019531-0.20313-0.019531-0.41016 0-0.60547 0 0.007812 0.058594-0.42188 0.019531-0.20312-0.039062 0.21484 0.046876-0.20312 0.046876-0.19531 0.046874-0.1875 0.10937-0.37109 0.16406-0.55469 0.078125-0.22266-0.16406 0.28125 0.03125-0.058594 0.058594-0.10938 0.11719-0.22266 0.1875-0.33203 0.039062-0.070313 0.097656-0.14844 0.13672-0.21484 0.19531-0.34375-0.1875 0.1875 0.078125-0.10938 0.11719-0.125 0.22266-0.25391 0.35156-0.37109 0.085938-0.085937 0.1875-0.17578 0.28125-0.25391-0.046875 0.039062-0.21484 0.13672 0.007813 0 0.20312-0.11719 0.39844-0.24219 0.60547-0.35156 0.21484-0.10938-0.32031 0.097656 0.070312-0.03125 0.078125-0.03125 0.16406-0.058594 0.24219-0.078126 0.10937-0.03125 0.20312-0.058593 0.3125-0.078124 0.078124-0.019532 0.35937-0.058594 0.070312-0.03125 0.20312-0.03125 0.39844-0.03125 0.60547-0.03125 0.11719 0 0.22266 0.007812 0.34375 0.019531 0.3125 0.019531-0.19531-0.058594 0.13672 0.019531 0.21484 0.046875 0.42187 0.10938 0.625 0.17578 0.38281 0.11719-0.22266-0.13672 0.125 0.046875 0.10937 0.058594 0.22266 0.11719 0.33203 0.1875 0.070312 0.039063 0.14844 0.097656 0.21484 0.13672 0.28125 0.16406-0.11719-0.125 0.10938 0.078125 0.1875 0.17578 0.35937 0.35156 0.53906 0.53906 0.039062 0.046876 0.15625 0.22266 0.007812 0 0.070313 0.10938 0.14844 0.20313 0.20313 0.32031 0.058593 0.085937 0.097656 0.1875 0.15625 0.28125 0.03125 0.058594 0.058593 0.11719 0.085937 0.17578-0.058594-0.13672-0.058594-0.14844-0.03125-0.046875 0.078125 0.22266 0.14844 0.44922 0.19531 0.68359 0.070312 0.27344 0.019531 0.070313 0.007812 0-0.003906 0.19531 0.007812 0.37109 0.007812 0.55469 0.007813 0.76172 0.66406 1.5039 1.4648 1.4648 0.78125-0.039062 1.4766-0.64453 1.4648-1.4648-0.039062-2.6172-1.6797-4.8828-4.1406-5.7617-2.2969-0.82031-5.0469-0.039063-6.582 1.8359-1.6211 1.9844-1.9219 4.8047-0.59375 7.0312 1.3281 2.2188 3.8984 3.3125 6.4258 2.8516 2.8438-0.51562 4.8516-3.125 4.8906-5.957 0.007812-0.76172-0.68359-1.5039-1.4648-1.4648-0.80078 0.027343-1.457 0.64453-1.4648 1.4648z"/>
  <path d="m41.219 64.656c0.95703 4.0039 1.9727 8.0078 2.8828 12.023 0 0.019531 0.007813 0.039062 0.007813 0.058593 0 0.007813-0.007813-0.125-0.007813-0.125 0.007813 0.085938 0.007813 0.17578 0 0.26562 0.03125-0.17578 0.03125-0.17578 0-0.007812-0.019531 0.046875-0.17578 0.41016-0.03125 0.13672-0.03125 0.046876-0.25391 0.39844-0.17578 0.29297 0.125-0.15625-0.16406 0.16406-0.15625 0.14844-0.070312 0.058593-0.13672 0.11719-0.20312 0.17578 0.11719-0.097656 0.10938-0.085938-0.039062 0.007812-0.11719 0.058594-0.23438 0.13672-0.35938 0.19531 0.27344-0.11719-0.13672 0.019531-0.15625 0.03125-0.35938 0.11719 0.24219 0.019531-0.13672 0.03125h-0.22266-0.91797c-0.86719 0-1.3672 0.67188-1.4648 1.4648-0.17578 1.3672-0.35156 2.7344-0.53906 4.1016-0.10938 0.84766-0.22266 1.6992-0.33203 2.5469-0.03125 0.22266-0.070313 0.44922-0.085938 0.68359 0 0.03125-0.007812 0.058594-0.007812 0.085938-0.007813 0.097656-0.058594 0.23437 0.007812 0-0.019531 0.058593-0.019531 0.13672-0.046875 0.1875-0.11719 0.1875 0.11719-0.1875-0.007813 0-0.15625 0.23437-0.007812 0.085937-0.03125 0.058593 0.007813 0.007813-0.26562 0.22266 0.007813 0.019531-0.046875 0.039063-0.10938 0.070313-0.15625 0.097657-0.17578 0.125 0.1875-0.11719 0 0.007812-0.046875 0.03125-0.125 0.03125-0.1875 0.046875 0.24219-0.078125-0.019531-0.007812-0.125-0.007812h-1.1328-1.4141-0.46094c-0.058593 0-0.37109-0.019532-0.21484 0 0.15625 0.03125-0.34375-0.17578-0.058594-0.019532-0.070313-0.039062-0.14844-0.078124-0.21484-0.13672 0.1875 0.13672 0.007813-0.007813 0.007813-0.019532-0.007813 0.019532 0.15625 0.1875 0.039062 0.046876-0.03125-0.03125-0.15625-0.26563-0.078125-0.097657 0.078125 0.16406-0.03125-0.058593-0.019531-0.058593-0.03125-0.14844-0.039062-0.16406-0.019531-0.058594 0.007812 0.085937 0.007812 0.085937 0.007812 0-0.007812-0.13672-0.03125-0.27344-0.046875-0.41016-0.097656-0.75-0.19531-1.5156-0.29297-2.2656-0.20313-1.6016-0.42188-3.2031-0.625-4.8125-0.097657-0.78125-0.58594-1.4648-1.4648-1.4648h-0.59375-0.34375c-0.085938 0-0.42188-0.03125-0.26562 0 0.22266 0.039062-0.19531-0.046875-0.1875-0.046875-0.085938-0.019532-0.16406-0.046875-0.25391-0.078125 0.26563 0.085937-0.15625-0.097657-0.24219-0.14844-0.34375-0.17578 0.097656 0.10938-0.078125-0.039062-0.078125-0.070313-0.15625-0.14844-0.23438-0.22266-0.046875-0.039062-0.15625-0.21484-0.007813 0-0.070312-0.10937-0.13672-0.21484-0.19531-0.33203 0.14844 0.30469-0.03125-0.35156 0 0.007813-0.007812-0.085938-0.007812-0.17578-0.007812-0.26562 0 0.039062-0.070313 0.30469 0-0.019531 0.007812-0.03125 0.019531-0.070313 0.019531-0.097657 0.046875-0.20312 0.097656-0.39844 0.14844-0.60547 0.46875-1.9727 0.94531-3.9336 1.4141-5.9062 0.42188-1.7383 0.82812-3.4766 1.25-5.2148 0.039062-0.17578 0.078125-0.35156 0.125-0.52734s0.10938-0.34375 0.17578-0.51562c-0.10938 0.26562 0.125-0.23438 0.16406-0.29297 0.058594-0.085937 0.10938-0.17578 0.17578-0.26562-0.039063 0.058594-0.1875 0.1875 0 0.007813 0.058594-0.046875 0.11719-0.11719 0.16406-0.17578 0.20312-0.22266-0.19531 0.078124 0.078125-0.058594 0.070313-0.039063 0.13672-0.078125 0.20312-0.11719-0.26562 0.14844-0.039062 0.03125 0.039063-0.007812 0.078125-0.03125 0.35156-0.070313 0.039062-0.03125 0.085938-0.007813 0.17578-0.007813 0.26562-0.007813h0.1875 1.2305 3.4766 0.29297 0.13672c0.35156 0-0.21484-0.085937 0.10938 0.019531 0.058594 0.019532 0.15625 0.046876 0.22266 0.070313-0.26562-0.046875-0.046875-0.019531 0.070313 0.046875 0.070312 0.039062 0.125 0.078125 0.19531 0.125-0.27344-0.19531-0.007812 0.007812 0.046875 0.070312 0.058594 0.058594 0.10938 0.11719 0.15625 0.17578-0.20312-0.25391 0.007813 0.03125 0.046875 0.097656 0.058594 0.085938 0.097657 0.1875 0.14844 0.27344 0.03125 0.058593 0.058593 0.11719 0.078125 0.17578-0.058594-0.125-0.058594-0.14844-0.03125-0.046875 0.12891 0.23828 0.19922 0.48047 0.25391 0.72266 0.17578 0.77344 1.0625 1.2305 1.8047 1.0234 0.78906-0.21484 1.2031-1.0234 1.0234-1.8047-0.48828-2.1016-1.9414-3.8359-4.2188-3.8867-0.85938-0.019531-1.7266 0-2.5977 0-0.87109 0-1.7266-0.019531-2.5977 0-2.2656 0.046875-3.7031 1.8164-4.2188 3.8867-0.9375 3.7305-1.7969 7.4922-2.6875 11.23-0.27344 1.1523-0.48047 2.2461 0.097657 3.3789 0.53906 1.0625 1.6211 1.8438 2.7539 2.168 0.71094 0.19531 1.4453 0.15625 2.168 0.15625l-1.4648-1.4648c0.19531 1.5156 0.39062 3.0156 0.58594 4.5312 0.10937 0.82812 0.21484 1.6719 0.32031 2.5 0.019531 0.17578 0.039062 0.35156 0.058594 0.52734 0.097656 1.0547 0.54688 1.9414 1.4062 2.5781 0.94531 0.70312 2.0703 0.625 3.1719 0.625 0.89062 0 1.8672 0.10938 2.7344-0.078125 0.91797-0.19531 1.7461-0.82031 2.207-1.6484 0.30469-0.54688 0.35938-1.0938 0.42969-1.6992 0.070313-0.67188 0.17578-1.3477 0.26563-2.0234 0.23437-1.7695 0.46094-3.5352 0.69531-5.3125l-1.4648 1.4648c0.82812 0 1.6602 0.039062 2.4414-0.26562 1.2891-0.48828 2.4414-1.5234 2.7734-2.8984 0.25391-1.0352-0.058594-2-0.30469-3-0.66406-2.7812-1.3281-5.5664-2-8.3516-0.19531-0.8125-0.39062-1.6211-0.58594-2.4297-0.1875-0.77344-1.0547-1.2305-1.8047-1.0234-0.75781 0.22656-1.1758 1.0469-0.99219 1.8164z"/>
  <path d="m64.914 52.695c0 0.13672-0.007812 0.27344-0.019531 0.41016 0 0.070312-0.058593 0.27344 0 0.007812-0.046875 0.21484-0.085937 0.42969-0.15625 0.63281-0.03125 0.078125-0.058593 0.16406-0.085937 0.24219 0.097656-0.25391 0.019531-0.046875-0.007813 0-0.125 0.22266-0.24219 0.4375-0.39062 0.65625 0.16406-0.24219-0.15625 0.17578-0.21484 0.23438-0.13672 0.13672-0.27344 0.26562-0.42187 0.38281 0.22266-0.17578 0 0-0.058594 0.03125-0.085938 0.058593-0.17578 0.11719-0.27344 0.16406-0.078125 0.039063-0.15625 0.078125-0.22266 0.11719-0.28125 0.15625 0.16406-0.039063-0.125 0.046875-0.20312 0.070312-0.41016 0.125-0.625 0.17578-0.27344 0.070313-0.070312 0.019531 0 0.007813-0.10938 0.007812-0.22266 0.019531-0.33203 0.03125-0.20312 0.007812-0.41016 0-0.60547-0.007813-0.42188-0.019531 0.17578 0.039063-0.070312-0.007813-0.14844-0.03125-0.30469-0.070312-0.44922-0.10937-0.097657-0.03125-0.51562-0.19531-0.25391-0.078126-0.19531-0.085937-0.38281-0.1875-0.55469-0.30469-0.070313-0.046875-0.13672-0.097656-0.21484-0.14844 0.26562 0.1875-0.070312-0.058594-0.097656-0.085938-0.15625-0.14844-0.30469-0.29297-0.4375-0.44922-0.26562-0.29297 0.085937 0.14844-0.039063-0.058593-0.058593-0.085938-0.11719-0.17578-0.17578-0.26563-0.039062-0.070312-0.085937-0.14844-0.125-0.22266 0 0.007813-0.17578-0.37109-0.085937-0.17578 0.085937 0.19531-0.070313-0.19531-0.058594-0.1875-0.03125-0.078125-0.046875-0.16406-0.078125-0.25391-0.03125-0.10938-0.046875-0.21484-0.070313-0.32031-0.019531-0.10938-0.019531-0.085937 0 0.058594-0.007812-0.070312-0.007812-0.13672-0.019531-0.19531-0.019531-0.20313-0.019531-0.41016 0-0.60547 0 0.007812 0.058594-0.42188 0.019531-0.20312-0.039062 0.21484 0.046876-0.20312 0.046876-0.19531 0.046874-0.1875 0.10937-0.37109 0.16406-0.55469 0.078125-0.22266-0.16406 0.28125 0.03125-0.058594 0.058594-0.10938 0.11719-0.22266 0.1875-0.33203 0.039062-0.070313 0.097656-0.14844 0.13672-0.21484 0.19531-0.34375-0.1875 0.1875 0.078125-0.10938 0.11719-0.125 0.22266-0.25391 0.35156-0.37109 0.085938-0.085937 0.1875-0.17578 0.28125-0.25391-0.046875 0.039062-0.21484 0.13672 0.007813 0 0.20312-0.11719 0.39844-0.24219 0.60547-0.35156 0.21484-0.10938-0.32031 0.097656 0.070312-0.03125 0.078125-0.03125 0.16406-0.058594 0.24219-0.078126 0.10937-0.03125 0.20312-0.058593 0.3125-0.078124 0.078124-0.019532 0.35937-0.058594 0.070312-0.03125 0.20312-0.03125 0.39844-0.03125 0.60547-0.03125 0.11719 0 0.22266 0.007812 0.34375 0.019531 0.3125 0.019531-0.19531-0.058594 0.13672 0.019531 0.21484 0.046875 0.42187 0.10938 0.625 0.17578 0.38281 0.11719-0.22266-0.13672 0.125 0.046875 0.10937 0.058594 0.22266 0.11719 0.33203 0.1875 0.070312 0.039063 0.14844 0.097656 0.21484 0.13672 0.28125 0.16406-0.11719-0.125 0.10938 0.078125 0.1875 0.17578 0.35937 0.35156 0.53906 0.53906 0.039062 0.046876 0.15625 0.22266 0.007812 0 0.070313 0.10938 0.14844 0.20313 0.20313 0.32031 0.058593 0.085937 0.097656 0.1875 0.15625 0.28125 0.03125 0.058594 0.058593 0.11719 0.085937 0.17578-0.058594-0.13672-0.058594-0.14844-0.03125-0.046875 0.078125 0.22266 0.14844 0.44922 0.19531 0.68359 0.070312 0.27344 0.019531 0.070313 0.007812 0 0.007812 0.19531 0.007812 0.37109 0.007812 0.55469 0.007813 0.76172 0.66406 1.5039 1.4648 1.4648 0.78125-0.039062 1.4766-0.64453 1.4648-1.4648-0.039062-2.6172-1.6797-4.8828-4.1406-5.7617-2.2969-0.82031-5.0469-0.039063-6.582 1.8359-1.6211 1.9844-1.9219 4.8047-0.59375 7.0312 1.3281 2.2188 3.8984 3.3125 6.4258 2.8516 2.8438-0.51562 4.8516-3.125 4.8906-5.957 0.007812-0.76172-0.68359-1.5039-1.4648-1.4648-0.80078 0.027343-1.4492 0.64453-1.4648 1.4648z"/>
  <path d="m67.625 64.266c0 3.2812 0.058594 6.5625 0 9.8359v0.097657c0 0.085937-0.058594 0.35938 0 0.078125-0.019531 0.10938-0.046875 0.21484-0.078125 0.3125-0.058594 0.22266 0.16406-0.27344-0.019531 0.070312-0.058594 0.10938-0.125 0.22266-0.19531 0.33203 0.039063-0.058594 0.17578-0.17578-0.007812 0-0.085938 0.085937-0.17578 0.1875-0.27344 0.26562 0.20312-0.16406 0.039063-0.03125-0.007812 0-0.11719 0.058594-0.21484 0.125-0.34375 0.1875 0.34375-0.14844-0.52734 0.078126-0.13672 0.039063-0.26562 0.03125-0.53906 0.007813-0.80078 0.007813-0.78906 0-1.4648 0.67187-1.4648 1.4648v5.2031 3.4062 0.98438 0.20312 0.03125 0.13672c0.03125-0.17578 0.019531-0.17578-0.019531-0.007813-0.007813 0.039063-0.03125 0.078126-0.039063 0.11719 0.070313-0.15625 0.058594-0.15625-0.019531-0.007812-0.007812 0.019531-0.019531 0.039062-0.039062 0.046874-0.058594 0.085938-0.046876 0.070313 0.039062-0.046874-0.03125 0.03125-0.058594 0.058593-0.085938 0.085937 0.11719-0.078125 0.13672-0.097656 0.046876-0.039063-0.046876 0.058594-0.32031 0.15625-0.039063 0.046876-0.078125 0.03125-0.16406 0.046874-0.24219 0.070312 0.26562-0.070312-0.097657-0.007812-0.19531-0.007812h-1.4453-1.8281-0.55469-0.16406c-0.058594 0-0.28125-0.019532-0.11719 0 0.21484 0.03125-0.17578-0.058594-0.1875-0.058594 0.33203 0.125 0 0 0.007812-0.019532-0.039062-0.019531-0.070312-0.046874-0.10937-0.070312 0.13672 0.097656 0.13672 0.097656 0.007812-0.019531 0.007812 0.019531 0.019531 0.039062 0.039062 0.046875 0.058594 0.085937 0.046876 0.070312-0.039062-0.046875-0.019531 0.007812-0.097656-0.20312-0.019531 0.007812-0.03125-0.070312-0.078125-0.4375-0.058594-0.11719 0-0.046875-0.007813-0.097656 0-0.15625 0.007813-0.21484 0-0.42969 0-0.63281v-3.0078-6.1719c0-0.78906-0.67188-1.4648-1.4648-1.4648h-0.52734c0.007812 0-0.42188-0.039062-0.20313-0.007812 0.21484 0.039062-0.19531-0.058594-0.19531-0.058594-0.046875-0.007813-0.27344-0.097656-0.007812 0.007812-0.11719-0.046875-0.22266-0.125-0.34375-0.1875-0.22266-0.11719-0.070313-0.046875-0.007813 0-0.078125-0.070312-0.15625-0.14844-0.23438-0.21484-0.058594-0.058593-0.20312-0.27344-0.046875-0.046874-0.046875-0.070313-0.097656-0.14844-0.13672-0.21484-0.039062-0.070313-0.085937-0.14844-0.11719-0.22266 0.11719 0.26562 0.007812-0.007813 0-0.078126-0.019531-0.078124-0.058594-0.35937-0.03125-0.070312-0.007813-0.085938-0.007813-0.17578-0.007813-0.27344-0.007812-0.51562 0-1.0234 0-1.543v-6.7109c0-0.53906-0.007812-1.0742 0-1.6094 0-0.058593 0.070313-0.44922 0-0.14844 0.019532-0.097656 0.16406-0.53906 0.046875-0.26562 0.039063-0.097657 0.097657-0.1875 0.14844-0.28125 0.03125-0.070313 0.20312-0.28125 0.03125-0.070313 0.058593-0.070312 0.10938-0.125 0.17578-0.1875 0.039062-0.039062 0.34375-0.26562 0.097656-0.097656 0.070313-0.046875 0.14844-0.097656 0.21484-0.13672 0 0 0.37109-0.16406 0.17578-0.085937-0.17578 0.070312 0.57812-0.097656 0.19531-0.058594 0.11719-0.007812 0.23438-0.007812 0.35156-0.007812 1.9141-0.007813 3.8281 0 5.7344 0h2.9492 0.25391 0.15625c0.41016 0-0.15625-0.046876 0.070313 0.007812 0.039062 0.007812 0.42188 0.11719 0.25391 0.058594-0.19531-0.070313 0.17578 0.085937 0.17578 0.085937 0.058594 0.039063 0.35156 0.25391 0.11719 0.058594 0.070312 0.058594 0.125 0.10938 0.1875 0.17578 0.039062 0.039063 0.26562 0.34375 0.097656 0.097656 0.046875 0.070313 0.097656 0.14844 0.13672 0.21484 0.046875 0.097656 0.13672 0.35156 0.070312 0.11719 0.03125 0.10938 0.058594 0.20312 0.085938 0.3125 0.019531 0.10938 0.019531 0.085937 0-0.058594-0.019531 0.125-0.011719 0.21094-0.011719 0.29688 0.019531 0.76172 0.66406 1.5039 1.4648 1.4648 0.78125-0.039063 1.4844-0.64453 1.4648-1.4648-0.058594-2.3516-1.9141-4.2188-4.2773-4.2773-0.65625-0.007812-1.3203 0-1.9727 0h-6.7773c-1.6016 0-3.0664 0.65625-3.9336 2.0508-0.59375 0.94531-0.625 1.9844-0.625 3.0469v7.1211c0 0.76172-0.058594 1.5625 0.03125 2.3242 0.15625 1.3203 0.83984 2.4805 1.9648 3.2031 0.85938 0.55469 1.8164 0.66406 2.8125 0.66406l-1.4648-1.4648v5.6953 3.3477c0 1.1797 0.10938 2.3047 1.0234 3.1953 1.1016 1.0742 2.5469 0.9375 3.9531 0.9375h1.8945c0.49609 0 0.99609 0.019531 1.4844-0.097656 1.6797-0.39844 2.5586-1.9141 2.5586-3.543v-2.8984-6.6328c-0.48828 0.48828-0.97656 0.97656-1.4648 1.4648 0.84766 0 1.6406-0.078125 2.4219-0.44922 0.86719-0.42188 1.6016-1.1719 1.9922-2.0625 0.39844-0.89844 0.39844-1.7891 0.39844-2.7422v-6.8945-2c0-0.76172-0.67188-1.5039-1.4648-1.4648-0.80859 0.054688-1.4844 0.66016-1.4844 1.4766z"/>
  <path d="m89.453 52.695c0 0.13672-0.007813 0.27344-0.019531 0.41016 0 0.070312-0.058594 0.27344 0 0.007812-0.046875 0.21484-0.085938 0.42969-0.15625 0.63281-0.03125 0.078125-0.058594 0.16406-0.085938 0.24219 0.097656-0.25391 0.019532-0.046875-0.007812 0-0.125 0.22266-0.24219 0.4375-0.39062 0.65625 0.16406-0.24219-0.15625 0.17578-0.21484 0.23438-0.13672 0.13672-0.27344 0.26562-0.42188 0.38281 0.22266-0.17578 0 0-0.058594 0.03125-0.085937 0.058593-0.17578 0.11719-0.27344 0.16406-0.078125 0.039063-0.15625 0.078125-0.22266 0.11719-0.28125 0.15625 0.16406-0.039063-0.125 0.046875-0.20312 0.070312-0.41016 0.125-0.625 0.17578-0.27344 0.070313-0.070312 0.019531 0 0.007813-0.10937 0.007812-0.22266 0.019531-0.33203 0.03125-0.20312 0.007812-0.41016 0-0.60547-0.007813-0.42187-0.019531 0.17578 0.039063-0.070312-0.007813-0.14844-0.03125-0.30469-0.070312-0.44922-0.10937-0.097656-0.03125-0.51562-0.19531-0.25391-0.078126-0.19531-0.085937-0.38281-0.1875-0.55469-0.30469-0.070313-0.046875-0.13672-0.097656-0.21484-0.14844 0.26562 0.1875-0.070313-0.058594-0.097656-0.085938-0.15625-0.14844-0.30469-0.29297-0.4375-0.44922-0.26563-0.29297 0.085937 0.14844-0.039063-0.058593-0.058594-0.085938-0.11719-0.17578-0.17578-0.26563-0.039063-0.070312-0.085938-0.14844-0.125-0.22266 0 0.007813-0.17578-0.37109-0.085938-0.17578 0.085938 0.19531-0.070312-0.19531-0.058594-0.1875-0.03125-0.078125-0.046874-0.16406-0.078124-0.25391-0.03125-0.10938-0.046876-0.21484-0.070313-0.32031-0.019531-0.10938-0.019531-0.085937 0 0.058594-0.007813-0.070312-0.007813-0.13672-0.019531-0.19531-0.019532-0.20313-0.019532-0.41016 0-0.60547 0 0.007812 0.058594-0.42188 0.019531-0.20312-0.039063 0.21484 0.046875-0.20312 0.046875-0.19531 0.046875-0.1875 0.10938-0.37109 0.16406-0.55469 0.078126-0.22266-0.16406 0.28125 0.03125-0.058594 0.058594-0.10938 0.11719-0.22266 0.1875-0.33203 0.039063-0.070313 0.097657-0.14844 0.13672-0.21484 0.19531-0.34375-0.1875 0.1875 0.078125-0.10938 0.11719-0.125 0.22266-0.25391 0.35156-0.37109 0.085937-0.085937 0.1875-0.17578 0.28125-0.25391-0.046875 0.039062-0.21484 0.13672 0.007812 0 0.20312-0.11719 0.39844-0.24219 0.60547-0.35156 0.21484-0.10938-0.32031 0.097656 0.070312-0.03125 0.078126-0.03125 0.16406-0.058594 0.24219-0.078126 0.10938-0.03125 0.20312-0.058593 0.3125-0.078124 0.078125-0.019532 0.35938-0.058594 0.070312-0.03125 0.20313-0.03125 0.39844-0.03125 0.60547-0.03125 0.11719 0 0.22266 0.007812 0.34375 0.019531 0.3125 0.019531-0.19531-0.058594 0.13672 0.019531 0.21484 0.046875 0.42188 0.10938 0.625 0.17578 0.38281 0.11719-0.22266-0.13672 0.125 0.046875 0.10938 0.058594 0.22266 0.11719 0.33203 0.1875 0.070313 0.039063 0.14844 0.097656 0.21484 0.13672 0.28125 0.16406-0.11719-0.125 0.10938 0.078125 0.1875 0.17578 0.35938 0.35156 0.53906 0.53906 0.039063 0.046876 0.15625 0.22266 0.007813 0 0.070313 0.10938 0.14844 0.20313 0.20312 0.32031 0.058594 0.085937 0.097656 0.1875 0.15625 0.28125 0.03125 0.058594 0.058594 0.11719 0.085938 0.17578-0.058594-0.13672-0.058594-0.14844-0.03125-0.046875 0.078124 0.22266 0.14844 0.44922 0.19531 0.68359 0.070312 0.27344 0.019531 0.070313 0.007812 0 0 0.19531 0.007813 0.37109 0.007813 0.55469 0.007813 0.76172 0.66406 1.5039 1.4648 1.4648 0.78125-0.039062 1.4766-0.64453 1.4648-1.4648-0.039062-2.6172-1.6797-4.8828-4.1406-5.7617-2.2969-0.82031-5.0469-0.039063-6.582 1.8359-1.6211 1.9844-1.9219 4.8047-0.59375 7.0312 1.3281 2.2188 3.8984 3.3125 6.4258 2.8516 2.8438-0.51562 4.8516-3.125 4.8906-5.957 0.007813-0.76172-0.68359-1.5039-1.4648-1.4648-0.80078 0.027343-1.457 0.64453-1.4648 1.4648z"/>
  <path d="m90.293 64.656c0.95703 4.0039 1.9727 8.0078 2.8828 12.023 0 0.019531 0.007813 0.039062 0.007813 0.058593 0 0.007813-0.007813-0.125-0.007813-0.125 0.007813 0.085938 0.007813 0.17578 0 0.26562 0.03125-0.17578 0.03125-0.17578 0-0.007812-0.019531 0.046875-0.17578 0.41016-0.03125 0.13672-0.03125 0.046876-0.25391 0.39844-0.17578 0.29297 0.125-0.15625-0.16406 0.16406-0.15625 0.14844-0.070312 0.058593-0.13672 0.11719-0.20312 0.17578 0.11719-0.097656 0.10938-0.085938-0.039063 0.007812-0.11719 0.058594-0.23437 0.13672-0.35937 0.19531 0.27344-0.11719-0.13672 0.019531-0.15625 0.03125-0.35938 0.11719 0.24219 0.019531-0.13672 0.03125h-0.22266-0.91797c-0.86719 0-1.3672 0.67188-1.4648 1.4648-0.17578 1.3672-0.35156 2.7344-0.53906 4.1016-0.10938 0.84766-0.22266 1.6992-0.33203 2.5469-0.03125 0.22266-0.070312 0.44922-0.085937 0.68359 0 0.03125-0.007813 0.058594-0.007813 0.085938-0.007812 0.097656-0.058594 0.23437 0.007813 0-0.019531 0.058593-0.019531 0.13672-0.046875 0.1875-0.11719 0.1875 0.11719-0.1875-0.007813 0-0.15625 0.23437-0.007812 0.085937-0.03125 0.058593 0.007813 0.007813-0.26562 0.22266 0.007813 0.019531-0.046875 0.039063-0.10938 0.070313-0.15625 0.097657-0.17578 0.125 0.1875-0.11719 0 0.007812-0.046875 0.03125-0.125 0.03125-0.1875 0.046875 0.24219-0.078125-0.019532-0.007812-0.125-0.007812h-1.1328-1.4141-0.46094c-0.058593 0-0.37109-0.019532-0.21484 0 0.15625 0.03125-0.34375-0.17578-0.058594-0.019532-0.070313-0.039062-0.14844-0.078124-0.21484-0.13672 0.1875 0.13672 0.007812-0.007813 0.007812-0.019532-0.007812 0.019532 0.15625 0.1875 0.039063 0.046876-0.03125-0.03125-0.15625-0.26563-0.078125-0.097657 0.078125 0.16406-0.03125-0.058593-0.019531-0.058593-0.03125-0.14844-0.039063-0.16406-0.019531-0.058594 0.007812 0.085937 0.007812 0.085937 0.007812 0-0.007812-0.13672-0.03125-0.27344-0.046875-0.41016-0.097656-0.75-0.19531-1.5156-0.29297-2.2656-0.20312-1.6016-0.42188-3.2031-0.625-4.8125-0.097656-0.78125-0.58594-1.4648-1.4648-1.4648h-0.59375-0.34375c-0.085937 0-0.42187-0.03125-0.26562 0 0.22266 0.039062-0.19531-0.046875-0.1875-0.046875-0.085938-0.019532-0.16406-0.046875-0.25391-0.078125 0.26562 0.085937-0.15625-0.097657-0.24219-0.14844-0.34375-0.17578 0.097656 0.10938-0.078125-0.039062-0.078125-0.070313-0.15625-0.14844-0.23438-0.22266-0.046875-0.039062-0.15625-0.21484-0.007813 0-0.070312-0.10937-0.13672-0.21484-0.19531-0.33203 0.14844 0.30469-0.03125-0.35156 0 0.007813-0.007813-0.085938-0.007813-0.17578-0.007813-0.26562 0 0.039062-0.070312 0.30469 0-0.019531 0.007813-0.03125 0.019532-0.070313 0.019532-0.097657 0.046874-0.20312 0.097656-0.39844 0.14844-0.60547 0.46875-1.9727 0.94531-3.9336 1.4141-5.9062 0.42187-1.7383 0.82812-3.4766 1.25-5.2148 0.039062-0.17578 0.078124-0.35156 0.125-0.52734 0.046874-0.17578 0.10937-0.34375 0.17578-0.51562-0.10938 0.26562 0.125-0.23438 0.16406-0.29297 0.058594-0.085937 0.10938-0.17578 0.17578-0.26562-0.039062 0.058594-0.1875 0.1875 0 0.007813 0.058594-0.046875 0.11719-0.11719 0.16406-0.17578 0.20312-0.22266-0.19531 0.078124 0.078125-0.058594 0.070312-0.039063 0.13672-0.078125 0.20312-0.11719-0.26562 0.14844-0.039063 0.03125 0.039063-0.007812 0.078124-0.03125 0.35156-0.070313 0.039062-0.03125 0.085938-0.007813 0.17578-0.007813 0.26562-0.007813h0.1875 1.2305 3.4766 0.29297 0.13672c0.35156 0-0.21484-0.085937 0.10938 0.019531 0.058593 0.019532 0.15625 0.046876 0.22266 0.070313-0.26562-0.046875-0.046875-0.019531 0.070313 0.046875 0.070312 0.039062 0.125 0.078125 0.19531 0.125-0.27344-0.19531-0.007812 0.007812 0.046875 0.070312 0.058594 0.058594 0.10938 0.11719 0.15625 0.17578-0.20312-0.25391 0.007813 0.03125 0.046875 0.097656 0.058594 0.085938 0.097656 0.1875 0.14844 0.27344 0.03125 0.058593 0.058593 0.11719 0.078124 0.17578-0.058593-0.125-0.058593-0.14844-0.03125-0.046875 0.125 0.23828 0.19531 0.48047 0.25391 0.72266 0.17578 0.77344 1.0625 1.2305 1.8047 1.0234 0.78906-0.21484 1.2031-1.0234 1.0234-1.8047-0.48828-2.1016-1.9414-3.8359-4.2188-3.8867-0.85938-0.019531-1.7266 0-2.5977 0-0.85938 0-1.7266-0.019531-2.5977 0-2.2656 0.046875-3.7031 1.8164-4.2188 3.8867-0.9375 3.7305-1.7969 7.4922-2.6875 11.23-0.27344 1.1523-0.48047 2.2461 0.097657 3.3789 0.53906 1.0625 1.6211 1.8438 2.7539 2.168 0.71094 0.19531 1.4453 0.15625 2.168 0.15625-0.48828-0.48828-0.97656-0.97656-1.4648-1.4648 0.19531 1.5156 0.39062 3.0156 0.58594 4.5312 0.10938 0.82812 0.21484 1.6719 0.32031 2.5 0.019531 0.17578 0.039062 0.35156 0.058593 0.52734 0.097657 1.0547 0.54688 1.9414 1.4062 2.5781 0.94531 0.70312 2.0703 0.625 3.1719 0.625 0.89062 0 1.8672 0.10938 2.7344-0.078125 0.91797-0.19531 1.7461-0.82031 2.207-1.6484 0.30469-0.54688 0.35938-1.0938 0.42969-1.6992 0.070313-0.67188 0.17578-1.3477 0.26562-2.0234 0.23438-1.7695 0.46094-3.5352 0.69531-5.3125-0.48828 0.48828-0.97656 0.97656-1.4648 1.4648 0.82812 0 1.6602 0.039062 2.4414-0.26562 1.2891-0.48828 2.4414-1.5234 2.7734-2.8984 0.25391-1.0352-0.058594-2-0.30469-3-0.66406-2.7812-1.3281-5.5664-2-8.3516-0.19531-0.8125-0.39062-1.6211-0.58594-2.4297-0.1875-0.77344-1.0547-1.2305-1.8047-1.0234-0.75781 0.22656-1.1758 1.0469-0.99219 1.8164z"/>
  <path d="m21.914 40c0-0.13672 0.007813-0.27344 0.019532-0.41016 0.019531-0.17578 0.019531-0.17578 0-0.007813 0.007812-0.070312 0.019531-0.125 0.039062-0.19531 0.03125-0.125 0.058594-0.25391 0.097656-0.38281 0.019532-0.070312 0.19531-0.48047 0.058594-0.19531 0.10938-0.23438 0.24219-0.44922 0.37109-0.66406 0.19531-0.32031-0.17578 0.16406 0.078125-0.10938 0.085937-0.097656 0.16406-0.1875 0.25391-0.28125 0.085938-0.085937 0.1875-0.17578 0.28125-0.25391 0.24219-0.21484-0.14844 0.078125 0.10938-0.078125 0.10938-0.070313 0.21484-0.13672 0.32031-0.20312 0.039062-0.019531 0.4375-0.21484 0.28125-0.14844-0.15625 0.070313 0.20312-0.070312 0.24219-0.078124 0.14844-0.046876 0.29297-0.078126 0.4375-0.11719 0.30469-0.078125-0.20312-0.007812 0.13672-0.019531 0.13672-0.007813 0.27344-0.019531 0.41016-0.019531s0.27344 0.007812 0.41016 0.019531c0.41016 0.03125-0.25391-0.070313 0.13672 0.019531 0.25391 0.058594 0.49609 0.125 0.75 0.22266-0.29297-0.11719 0.11719 0.070313 0.17578 0.097656 0.10937 0.058594 0.21484 0.125 0.33203 0.19531 0.046875 0.039063 0.10938 0.070313 0.15625 0.10938-0.10938-0.085938-0.125-0.097656-0.046875-0.039062 0.11719 0.097656 0.22266 0.19531 0.33203 0.29297 0.085937 0.085938 0.17578 0.1875 0.25391 0.28125 0.20312 0.22266-0.085937-0.17578 0.078125 0.10938 0.125 0.22266 0.26562 0.42969 0.37109 0.66406-0.125-0.28125 0.019531 0.070312 0.039062 0.125 0.039063 0.125 0.078126 0.25391 0.10938 0.38281 0.019531 0.085938 0.039062 0.17578 0.046874 0.25391-0.019531-0.14844-0.019531-0.16406-0.007812-0.058593 0.019531 0.15625 0.019531 0.3125 0.019531 0.46875 0.007813 0.76172 0.66406 1.5039 1.4648 1.4648 0.78125-0.039062 1.4766-0.64453 1.4648-1.4648-0.046875-3.3125-2.7344-6.0859-6.0859-6.0859-3.3398 0-6.0352 2.7734-6.0859 6.0859-0.007813 0.76172 0.68359 1.5039 1.4648 1.4648 0.82812-0.019531 1.4766-0.625 1.4844-1.4453z"/>
  <path d="m46.453 40c0-0.13672 0.007813-0.27344 0.019531-0.41016 0.019532-0.17578 0.019532-0.17578 0-0.007813 0.007813-0.070312 0.019532-0.125 0.039063-0.19531 0.03125-0.125 0.058593-0.25391 0.097656-0.38281 0.019531-0.070312 0.19531-0.48047 0.058594-0.19531 0.10938-0.23438 0.24219-0.44922 0.37109-0.66406 0.19531-0.32031-0.17578 0.16406 0.078126-0.10938 0.085937-0.097656 0.16406-0.1875 0.25391-0.28125 0.085937-0.085937 0.1875-0.17578 0.28125-0.25391 0.24219-0.21484-0.14844 0.078125 0.10938-0.078125 0.10938-0.070313 0.21484-0.13672 0.32031-0.20312 0.039063-0.019531 0.4375-0.21484 0.28125-0.14844-0.15625 0.070313 0.20312-0.070312 0.24219-0.078124 0.14844-0.046876 0.29297-0.078126 0.4375-0.11719 0.30469-0.078125-0.20312-0.007812 0.13672-0.019531 0.13672-0.007813 0.27344-0.019531 0.41016-0.019531 0.13672 0 0.27344 0.007812 0.41016 0.019531 0.41016 0.03125-0.25391-0.070313 0.13672 0.019531 0.25391 0.058594 0.49609 0.125 0.75 0.22266-0.29297-0.11719 0.11719 0.070313 0.17578 0.097656 0.10938 0.058594 0.21484 0.125 0.33203 0.19531 0.046875 0.039063 0.10938 0.070313 0.15625 0.10938-0.10938-0.085938-0.125-0.097656-0.046875-0.039062 0.11719 0.097656 0.22266 0.19531 0.33203 0.29297 0.085937 0.085938 0.17578 0.1875 0.25391 0.28125 0.20312 0.22266-0.085938-0.17578 0.078125 0.10938 0.125 0.22266 0.26562 0.42969 0.37109 0.66406-0.125-0.28125 0.019532 0.070312 0.039063 0.125 0.039063 0.125 0.078125 0.25391 0.10938 0.38281 0.019531 0.085938 0.039062 0.17578 0.046875 0.25391-0.019531-0.14844-0.019531-0.16406-0.007813-0.058593 0.019532 0.15625 0.019532 0.3125 0.019532 0.46875 0.007812 0.76172 0.66406 1.5039 1.4648 1.4648 0.78125-0.039062 1.4766-0.64453 1.4648-1.4648-0.046875-3.3125-2.7344-6.0859-6.0859-6.0859-3.3398 0-6.0352 2.7734-6.0859 6.0859-0.007812 0.76172 0.68359 1.5039 1.4648 1.4648 0.82031-0.019531 1.4766-0.625 1.4844-1.4453z"/>
  <path d="m70.984 40c0-0.13672 0.007813-0.27344 0.019531-0.41016 0.019532-0.17578 0.019532-0.17578 0-0.007813 0.007813-0.070312 0.019532-0.125 0.039063-0.19531 0.03125-0.125 0.058593-0.25391 0.097656-0.38281 0.019531-0.070312 0.19531-0.48047 0.058594-0.19531 0.10938-0.23438 0.24219-0.44922 0.37109-0.66406 0.19531-0.32031-0.17578 0.16406 0.078126-0.10938 0.085937-0.097656 0.16406-0.1875 0.25391-0.28125 0.085937-0.085937 0.1875-0.17578 0.28125-0.25391 0.24219-0.21484-0.14844 0.078125 0.10938-0.078125 0.10938-0.070313 0.21484-0.13672 0.32031-0.20312 0.039063-0.019531 0.4375-0.21484 0.28125-0.14844-0.15625 0.070313 0.20312-0.070312 0.24219-0.078124 0.14844-0.046876 0.29297-0.078126 0.4375-0.11719 0.30469-0.078125-0.20312-0.007812 0.13672-0.019531 0.13672-0.007813 0.27344-0.019531 0.41016-0.019531 0.13672 0 0.27344 0.007812 0.41016 0.019531 0.41016 0.03125-0.25391-0.070313 0.13672 0.019531 0.25391 0.058594 0.49609 0.125 0.75 0.22266-0.29297-0.11719 0.11719 0.070313 0.17578 0.097656 0.10938 0.058594 0.21484 0.125 0.33203 0.19531 0.046875 0.039063 0.10938 0.070313 0.15625 0.10938-0.10938-0.085938-0.125-0.097656-0.046875-0.039062 0.11719 0.097656 0.22266 0.19531 0.33203 0.29297 0.085937 0.085938 0.17578 0.1875 0.25391 0.28125 0.20312 0.22266-0.085938-0.17578 0.078125 0.10938 0.125 0.22266 0.26562 0.42969 0.37109 0.66406-0.125-0.28125 0.019532 0.070312 0.039063 0.125 0.039063 0.125 0.078125 0.25391 0.10938 0.38281 0.019531 0.085938 0.039062 0.17578 0.046875 0.25391-0.019531-0.14844-0.019531-0.16406-0.007813-0.058593 0.019532 0.15625 0.019532 0.3125 0.019532 0.46875 0.007812 0.76172 0.66406 1.5039 1.4648 1.4648 0.78125-0.039062 1.4766-0.64453 1.4648-1.4648-0.046875-3.3125-2.7344-6.0859-6.0859-6.0859-3.3398 0-6.0352 2.7734-6.0859 6.0859-0.007812 0.76172 0.68359 1.5039 1.4648 1.4648 0.83203-0.019531 1.4766-0.625 1.4844-1.4453z"/>
  <path d="m34.188 27.637c0-0.13672 0.007812-0.27344 0.019531-0.41016 0.019531-0.17578 0.019531-0.17578 0-0.007812 0.007813-0.070312 0.019531-0.125 0.039063-0.19531 0.03125-0.125 0.058594-0.25391 0.097656-0.38281 0.019531-0.070313 0.19531-0.48047 0.058594-0.19531 0.10938-0.23437 0.24219-0.44922 0.37109-0.66406 0.19531-0.32031-0.17578 0.16406 0.078124-0.10938 0.085938-0.097656 0.16406-0.1875 0.25391-0.28125 0.085937-0.085937 0.1875-0.17578 0.28125-0.25391 0.24219-0.21484-0.14844 0.078125 0.10938-0.078125 0.10938-0.070313 0.21484-0.13672 0.32031-0.20312 0.039063-0.019531 0.4375-0.21484 0.28125-0.14844-0.15625 0.070313 0.20312-0.070312 0.24219-0.078125 0.14844-0.046875 0.29297-0.078125 0.4375-0.11719 0.30469-0.078125-0.20312-0.007813 0.13672-0.019531 0.13672-0.007813 0.27344-0.019532 0.41016-0.019532s0.27344 0.007813 0.41016 0.019532c0.41016 0.03125-0.25391-0.070313 0.13672 0.019531 0.25391 0.058593 0.49609 0.125 0.75 0.22266-0.29297-0.11719 0.11719 0.070313 0.17578 0.097656 0.10938 0.058594 0.21484 0.125 0.33203 0.19531 0.046875 0.039062 0.10938 0.070312 0.15625 0.10938-0.10938-0.085938-0.125-0.097657-0.046875-0.039063 0.11719 0.097656 0.22266 0.19531 0.33203 0.29297 0.085938 0.085937 0.17578 0.1875 0.25391 0.28125 0.20312 0.22266-0.085938-0.17578 0.078125 0.10938 0.125 0.22266 0.26562 0.42969 0.37109 0.66406-0.125-0.28125 0.019531 0.070313 0.039062 0.125 0.039062 0.125 0.078125 0.25391 0.10938 0.38281 0.019531 0.085937 0.039063 0.17578 0.046875 0.25391-0.019531-0.14844-0.019531-0.16406-0.007812-0.058593 0.019531 0.15625 0.019531 0.3125 0.019531 0.46875 0.007812 0.76172 0.66406 1.5039 1.4648 1.4648 0.78125-0.039062 1.4766-0.64453 1.4648-1.4648-0.046875-3.3125-2.7344-6.0859-6.0859-6.0859-3.3398 0-6.0352 2.7734-6.0859 6.0859-0.007812 0.76172 0.68359 1.5039 1.4648 1.4648 0.82031-0.019531 1.4688-0.625 1.4844-1.4453z"/>
  <path d="m58.719 27.637c0-0.13672 0.007812-0.27344 0.019531-0.41016 0.019531-0.17578 0.019531-0.17578 0-0.007812 0.007813-0.070312 0.019531-0.125 0.039063-0.19531 0.03125-0.125 0.058594-0.25391 0.097656-0.38281 0.019531-0.070313 0.19531-0.48047 0.058594-0.19531 0.10938-0.23437 0.24219-0.44922 0.37109-0.66406 0.19531-0.32031-0.17578 0.16406 0.078124-0.10938 0.085938-0.097656 0.16406-0.1875 0.25391-0.28125 0.085937-0.085937 0.1875-0.17578 0.28125-0.25391 0.24219-0.21484-0.14844 0.078125 0.10938-0.078125 0.10938-0.070313 0.21484-0.13672 0.32031-0.20312 0.039063-0.019531 0.4375-0.21484 0.28125-0.14844-0.15625 0.070313 0.20312-0.070312 0.24219-0.078125 0.14844-0.046875 0.29297-0.078125 0.4375-0.11719 0.30469-0.078125-0.20312-0.007813 0.13672-0.019531 0.13672-0.007813 0.27344-0.019532 0.41016-0.019532s0.27344 0.007813 0.41016 0.019532c0.41016 0.03125-0.25391-0.070313 0.13672 0.019531 0.25391 0.058593 0.49609 0.125 0.75 0.22266-0.29297-0.11719 0.11719 0.070313 0.17578 0.097656 0.10938 0.058594 0.21484 0.125 0.33203 0.19531 0.046875 0.039062 0.10938 0.070312 0.15625 0.10938-0.10938-0.085938-0.125-0.097657-0.046875-0.039063 0.11719 0.097656 0.22266 0.19531 0.33203 0.29297 0.085938 0.085937 0.17578 0.1875 0.25391 0.28125 0.20312 0.22266-0.085938-0.17578 0.078125 0.10938 0.125 0.22266 0.26562 0.42969 0.37109 0.66406-0.125-0.28125 0.019531 0.070313 0.039062 0.125 0.039062 0.125 0.078125 0.25391 0.10938 0.38281 0.019531 0.085937 0.039063 0.17578 0.046875 0.25391-0.019531-0.14844-0.019531-0.16406-0.007812-0.058593 0.019531 0.15625 0.019531 0.3125 0.019531 0.46875 0.007812 0.76172 0.66406 1.5039 1.4648 1.4648 0.78125-0.039062 1.4766-0.64453 1.4648-1.4648-0.046875-3.3125-2.7344-6.0859-6.0859-6.0859-3.3398 0-6.0352 2.7734-6.0859 6.0859-0.007812 0.76172 0.68359 1.5039 1.4648 1.4648 0.82031-0.019531 1.4766-0.625 1.4844-1.4453z"/>
  <path d="m46.453 15.969c0-0.13672 0.007813-0.27344 0.019531-0.41016 0.019532-0.17578 0.019532-0.17578 0-0.007813 0.007813-0.070312 0.019532-0.125 0.039063-0.19531 0.03125-0.125 0.058593-0.25391 0.097656-0.38281 0.019531-0.070312 0.19531-0.48047 0.058594-0.19531 0.10938-0.23438 0.24219-0.44922 0.37109-0.66406 0.19531-0.32031-0.17578 0.16406 0.078126-0.10938 0.085937-0.097656 0.16406-0.1875 0.25391-0.28125 0.085937-0.085937 0.1875-0.17578 0.28125-0.25391 0.24219-0.21484-0.14844 0.078125 0.10938-0.078125 0.10938-0.070313 0.21484-0.13672 0.32031-0.20312 0.039063-0.019531 0.4375-0.21484 0.28125-0.14844-0.15625 0.070313 0.20312-0.070312 0.24219-0.078124 0.14844-0.046876 0.29297-0.078126 0.4375-0.11719 0.30469-0.078125-0.20312-0.007812 0.13672-0.019531 0.13672-0.007813 0.27344-0.019531 0.41016-0.019531 0.13672 0 0.27344 0.007812 0.41016 0.019531 0.41016 0.03125-0.25391-0.070313 0.13672 0.019531 0.25391 0.058594 0.49609 0.125 0.75 0.22266-0.29297-0.11719 0.11719 0.070313 0.17578 0.097656 0.10938 0.058594 0.21484 0.125 0.33203 0.19531 0.046875 0.039063 0.10938 0.070313 0.15625 0.10938-0.10938-0.085938-0.125-0.097656-0.046875-0.039062 0.11719 0.097656 0.22266 0.19531 0.33203 0.29297 0.085937 0.085938 0.17578 0.1875 0.25391 0.28125 0.20312 0.22266-0.085938-0.17578 0.078125 0.10938 0.125 0.22266 0.26562 0.42969 0.37109 0.66406-0.125-0.28125 0.019532 0.070312 0.039063 0.125 0.039063 0.125 0.078125 0.25391 0.10938 0.38281 0.019531 0.085938 0.039062 0.17578 0.046875 0.25391-0.019531-0.14844-0.019531-0.16406-0.007813-0.058593 0.019532 0.15625 0.019532 0.3125 0.019532 0.46875 0.007812 0.76172 0.66406 1.5039 1.4648 1.4648 0.78125-0.039062 1.4766-0.64453 1.4648-1.4648-0.046875-3.3125-2.7344-6.0859-6.0859-6.0859-3.3398 0-6.0352 2.7734-6.0859 6.0859-0.007812 0.76172 0.68359 1.5039 1.4648 1.4648 0.82031-0.011718 1.4766-0.625 1.4844-1.4453z"/>
 </g>
</svg>
