<?xml version="1.0" encoding="UTF-8"?>
<svg fill="#FFFFFF" width="100pt" height="100pt" version="1.1" viewBox="0 0 100 100" xmlns="http://www.w3.org/2000/svg" opacity="0.2">
 <g>
  <path d="m39.961 50h-0.60938c0.55078-0.94531 0.93359-1.9805 1.125-3.0547 5.1797-3.8125 8.5664-9.5859 9.3672-15.969 0.80078-6.3828-1.0547-12.812-5.1328-17.789-4.0742-4.9727-10.02-8.0547-16.434-8.5234-6.4141-0.46484-12.742 1.7227-17.496 6.0547s-7.5195 10.426-7.6523 16.859c-0.12891 6.4297 2.3867 12.633 6.9609 17.156l-2.1328 4.6094c-0.35547 0.76562-0.035156 1.6758 0.71875 2.0547l1.0273 0.51562-6.418 13.023v-0.003906c-0.37891 0.76953-0.066406 1.7031 0.70312 2.0898l6.25 3.125c0.21875 0.10937 0.45703 0.16406 0.69922 0.16406 0.16797 0 0.33984-0.027344 0.5-0.082031 0.39453-0.13281 0.71875-0.41797 0.90234-0.78906l4.8477-9.8398v13.836c0 0.30859 0.089844 0.60938 0.26172 0.86719l2.8633 4.293v16.715c0 0.41406 0.16406 0.8125 0.45703 1.1055s0.69141 0.45703 1.1055 0.45703h18.75c0.41406 0 0.8125-0.16406 1.1055-0.45703s0.45703-0.69141 0.45703-1.1055v-16.715l2.8633-4.293c0.17188-0.25781 0.26172-0.55859 0.26172-0.86719v-18.086c-0.003906-2.9531-2.3984-5.3477-5.3516-5.3516zm-17.32-8.3789c-6.0625-1.7461-10.227-7.3164-10.184-13.625 0.042969-6.3125 4.2773-11.828 10.363-13.492 6.0898-1.668 12.543 0.91797 15.793 6.3281 3.25 5.4102 2.5039 12.324-1.8242 16.914-1.0508-0.78125-2.2617-1.3281-3.5469-1.6016-4.3906-0.95703-8.8398 1.3438-10.602 5.4766zm-16.391-13.496c-0.011719-6.8594 3.4414-13.262 9.1836-17.023 5.7383-3.7578 12.988-4.3672 19.273-1.6172 6.2852 2.75 10.754 8.4883 11.891 15.254 1.1328 6.7656-1.2266 13.648-6.2734 18.297-0.26562-1.0898-0.72656-2.1211-1.3633-3.0469 3.4805-3.6445 5.1836-8.6367 4.6602-13.648-0.52734-5.0156-3.2305-9.543-7.3906-12.387-4.1641-2.8438-9.3633-3.7148-14.227-2.3789-4.8594 1.332-8.8906 4.7344-11.02 9.3008-2.1328 4.5703-2.1445 9.8438-0.042969 14.422 2.1055 4.582 6.1172 8.0078 10.969 9.3672-0.015625 0.21484-0.035156 0.42969-0.035156 0.64844 0.003906 0.89453 0.13281 1.7852 0.39062 2.6406-4.5273-0.98828-8.582-3.4922-11.496-7.0977-2.9102-3.6055-4.5039-8.0977-4.5195-12.73zm13.824 22.504c-0.85547 0.44531-1.5742 1.1133-2.082 1.9336l-6.5625-3.2812 1.1094-2.4023c2.2617 1.6953 4.8164 2.9688 7.5352 3.75zm-9.8438 16.02-3.4531-1.7266 5.7227-11.613 3.457 1.7266zm31.957 6.3164-2.8633 4.293c-0.17188 0.25781-0.26172 0.55859-0.26172 0.86719v15.625h-15.625v-15.625c0-0.30859-0.089844-0.60938-0.26172-0.86719l-2.8633-4.293v-17.613c0-1.2305 0.99609-2.2266 2.2266-2.2266h4.0664c0.67188 0 1.2695-0.42969 1.4844-1.0703 0.21094-0.64063-0.011719-1.3438-0.55078-1.7461-2.1719-1.6016-3.0664-4.4141-2.2227-6.9766 0.84375-2.5664 3.2344-4.2969 5.9336-4.2969s5.0898 1.7305 5.9336 4.2969c0.84375 2.5625-0.050782 5.375-2.2227 6.9766-0.53906 0.40234-0.76172 1.1055-0.55078 1.7461 0.21484 0.64062 0.8125 1.0703 1.4844 1.0703h4.0664c1.2305 0 2.2266 0.99609 2.2266 2.2266z"/>
  <path d="m26.562 59.375h3.125v10.938h3.125v-10.938h3.125v-3.125h-9.375z"/>
  <path d="m31.25 89.062h3.125v3.125h-3.125z"/>
  <path d="m26.562 17.188c-6.0391 0.007812-10.93 4.8984-10.938 10.938h3.125c0.003906-4.3125 3.5-7.8086 7.8125-7.8125z"/>
  <path d="m46.496 43.797 6.25-1.5625 0.75781 3.0312-6.25 1.5625z"/>
  <path d="m46.176 51.398 1.3984-2.7969 6.25 3.125-1.3984 2.7969z"/>
  <path d="m95.25 12.055c-0.19922-0.66406-0.80859-1.1172-1.5-1.1172h-5.9805l-1.8906-6.6758c-0.19141-0.67188-0.80469-1.1367-1.5039-1.1367s-1.3125 0.46484-1.5039 1.1367l-1.8906 6.6758h-5.9805c-0.69141 0-1.3008 0.45312-1.5 1.1172-0.19531 0.66406 0.066406 1.3789 0.64844 1.7539l4.8047 3.1328-1.8633 6.0352c-0.20312 0.64844 0.039062 1.3555 0.59766 1.7422 0.55859 0.39062 1.3047 0.375 1.8438-0.039062l4.8438-3.7031 4.8438 3.7031c0.53906 0.41406 1.2852 0.42969 1.8438 0.039062 0.55859-0.38672 0.80078-1.0938 0.59766-1.7422l-1.8633-6.0352 4.8047-3.1328c0.58203-0.375 0.84375-1.0898 0.64844-1.7539zm-8.7852 4.6797 0.76953 2.4922-1.9102-1.457c-0.5625-0.42969-1.3359-0.42969-1.8984 0l-1.9102 1.457 0.76953-2.4922c0.20703-0.66406-0.054687-1.3867-0.63672-1.7695l-1.3906-0.90234h1.9062c0.69922 0 1.3125-0.46484 1.5-1.1367l0.71094-2.5039 0.71094 2.5039c0.1875 0.67188 0.80078 1.1367 1.5 1.1367h1.9023l-1.3867 0.90234c-0.58203 0.38281-0.84375 1.1055-0.63672 1.7695z"/>
  <path d="m56.25 15.625h3.125v3.125h-3.125z"/>
  <path d="m62.5 15.625h3.125v3.125h-3.125z"/>
  <path d="m68.75 15.625h3.125v3.125h-3.125z"/>
  <path d="m85.938 76.562v-6.25h1.5625v-3.125h-6.25v3.125h1.5625v6.25z"/>
  <path d="m85.938 89.062h3.125v3.125h-3.125z"/>
  <path d="m91.496 62.559c0.45312-1 0.69141-2.0859 0.69141-3.1836 0-4.3164-3.4961-7.8125-7.8125-7.8125s-7.8125 3.4961-7.8125 7.8125c0 1.0977 0.23828 2.1836 0.69141 3.1836-1.4766 0.21094-2.832 0.94141-3.8164 2.0625-0.98438-1.1211-2.3398-1.8516-3.8164-2.0625 0.45312-1 0.69141-2.0859 0.69141-3.1836 0-4.3164-3.4961-7.8125-7.8125-7.8125s-7.8125 3.4961-7.8125 7.8125c0 1.0977 0.23828 2.1836 0.69141 3.1836-3.082 0.44141-5.375 3.0781-5.3789 6.1914v9.375c0 0.59375 0.33594 1.1328 0.86328 1.3984l2.2617 1.1289v14.66c0 0.41406 0.16406 0.8125 0.45703 1.1055s0.69141 0.45703 1.1055 0.45703h15.625c0.41406 0 0.8125-0.16406 1.1055-0.45703s0.45703-0.69141 0.45703-1.1055v-14.66l1.5625-0.78125 1.5625 0.78125v14.66c0 0.41406 0.16406 0.8125 0.45703 1.1055s0.69141 0.45703 1.1055 0.45703h15.625c0.41406 0 0.8125-0.16406 1.1055-0.45703s0.45703-0.69141 0.45703-1.1055v-14.66l2.2617-1.1289c0.52734-0.26563 0.86328-0.80469 0.86328-1.3984v-9.375c-0.003906-3.1133-2.2969-5.75-5.3789-6.1914zm-21.883 15.73c-0.52734 0.26563-0.86328 0.80469-0.86328 1.3984v14.062h-12.5v-14.062c0-0.59375-0.33594-1.1328-0.86328-1.3984l-2.2617-1.1289v-8.4102c0.003906-1.7266 1.3984-3.1211 3.125-3.125h2.1562c0.65234 0 1.2344-0.40234 1.4648-1.0117 0.22656-0.60938 0.054687-1.2969-0.4375-1.7266-1.0273-0.87891-1.6211-2.1602-1.6211-3.5117 0-2.5898 2.0977-4.6875 4.6875-4.6875s4.6875 2.0977 4.6875 4.6875c0 1.3516-0.59375 2.6328-1.6211 3.5117-0.49219 0.42969-0.66406 1.1172-0.4375 1.7266 0.23047 0.60938 0.8125 1.0117 1.4648 1.0117h2.1562c1.7266 0.003906 3.1211 1.3984 3.125 3.125v8.4102zm24.137-1.1289-2.2617 1.1289c-0.52734 0.26563-0.86328 0.80469-0.86328 1.3984v14.062h-12.5v-14.062c0-0.59375-0.33594-1.1328-0.86328-1.3984l-2.2617-1.1289v-8.4102c0.003906-1.7266 1.3984-3.1211 3.125-3.125h2.1562c0.65234 0 1.2344-0.40234 1.4648-1.0117 0.22656-0.60938 0.054687-1.2969-0.4375-1.7266-1.0273-0.87891-1.6211-2.1602-1.6211-3.5117 0-2.5898 2.0977-4.6875 4.6875-4.6875s4.6875 2.0977 4.6875 4.6875c0 1.3516-0.59375 2.6328-1.6211 3.5117-0.49219 0.42969-0.66406 1.1172-0.4375 1.7266 0.23047 0.60938 0.8125 1.0117 1.4648 1.0117h2.1562c1.7266 0.003906 3.1211 1.3984 3.125 3.125z"/>
  <path d="m64.062 76.562v-6.25h1.5625v-3.125h-6.25v3.125h1.5625v6.25z"/>
  <path d="m64.062 89.062h3.125v3.125h-3.125z"/>
 </g>
</svg>
