<svg fill="#FFFFFF" width="100pt" height="100pt" version="1.1" viewBox="0 0 100 100" xmlns="http://www.w3.org/2000/svg" opacity="0.2">
 <g>
  <path d="m80.512 71.875c-0.42969 0-0.78906-0.34766-0.78906-0.78125 0-0.42969 0.34375-0.78125 0.77344-0.78125h0.015625c0.43359 0 0.78125 0.34766 0.78125 0.78125 0 0.42969-0.34766 0.78125-0.78125 0.78125z"/>
  <path d="m74.266 71.875c-0.42969 0-0.78906-0.34766-0.78906-0.78125 0-0.42969 0.34375-0.78125 0.77344-0.78125h0.015625c0.43359 0 0.78125 0.34766 0.78125 0.78125 0 0.42969-0.35156 0.78125-0.78125 0.78125z"/>
  <path d="m77.391 73.438c-0.42969 0-0.78906-0.34766-0.78906-0.78125s0.34375-0.78125 0.77344-0.78125h0.015625c0.43359 0 0.78125 0.34766 0.78125 0.78125-0.003906 0.42969-0.35156 0.78125-0.78125 0.78125z"/>
  <path d="m71.141 73.438c-0.42969 0-0.78906-0.34766-0.78906-0.78125s0.34375-0.78125 0.77344-0.78125h0.015625c0.43359 0 0.78125 0.34766 0.78125 0.78125-0.003906 0.42969-0.35156 0.78125-0.78125 0.78125z"/>
  <path d="m92.969 73.438c-0.43359 0-0.78125-0.34766-0.78125-0.78125v-53.125c0-0.43359 0.34766-0.78125 0.78125-0.78125s0.78125 0.34766 0.78125 0.78125v53.125c0 0.42969-0.35156 0.78125-0.78125 0.78125z"/>
  <path d="m7.0312 73.438c-0.43359 0-0.78125-0.34766-0.78125-0.78125v-53.125c0-0.43359 0.34766-0.78125 0.78125-0.78125s0.78125 0.34766 0.78125 0.78125v53.125c0 0.42969-0.34766 0.78125-0.78125 0.78125z"/>
  <path d="m46.094 14.211c-0.43359 0-0.78125-0.34766-0.78125-0.78125v-12.648c0-0.43359 0.34766-0.78125 0.78125-0.78125s0.78125 0.34766 0.78125 0.78125v12.645c0 0.43359-0.34766 0.78516-0.78125 0.78516z"/>
  <path d="m53.906 14.211c-0.43359 0-0.78125-0.34766-0.78125-0.78125v-12.648c0-0.43359 0.34766-0.78125 0.78125-0.78125 0.42969 0 0.78125 0.34766 0.78125 0.78125v12.645c0 0.43359-0.35156 0.78516-0.78125 0.78516z"/>
  <path d="m53.906 1.5625h-7.8125c-0.43359 0-0.78125-0.34766-0.78125-0.78125s0.34766-0.78125 0.78125-0.78125h7.8125c0.42969 0 0.78125 0.34766 0.78125 0.78125s-0.35156 0.78125-0.78125 0.78125z"/>
  <path d="m27.344 100h-7.8125c-0.43359 0-0.78125-0.34766-0.78125-0.78125s0.34766-0.78125 0.78125-0.78125h7.8125c0.43359 0 0.78125 0.34766 0.78125 0.78125 0 0.42969-0.34766 0.78125-0.78125 0.78125z"/>
  <path d="m19.531 100c-0.125 0-0.25391-0.03125-0.375-0.097656-0.37891-0.20703-0.51953-0.67969-0.3125-1.0586l9.375-17.188c0.20703-0.37891 0.68359-0.51953 1.0586-0.3125 0.37891 0.20703 0.51953 0.67969 0.3125 1.0586l-9.375 17.188c-0.13672 0.26172-0.40625 0.41016-0.68359 0.41016z"/>
  <path d="m24.219 100c-0.125 0-0.25391-0.03125-0.375-0.09375-0.37891-0.20703-0.51953-0.68359-0.3125-1.0625l5.1133-9.375c0.20703-0.37891 0.68359-0.51953 1.0586-0.3125 0.37891 0.20703 0.51953 0.68359 0.3125 1.0625l-5.1133 9.375c-0.14062 0.25781-0.40625 0.40625-0.68359 0.40625z"/>
  <path d="m27.344 100c-0.125 0-0.25391-0.03125-0.375-0.097656-0.37891-0.20703-0.51953-0.67969-0.3125-1.0586l9.375-17.188c0.20703-0.37891 0.68359-0.51953 1.0586-0.3125 0.37891 0.20703 0.51953 0.67969 0.3125 1.0586l-9.375 17.188c-0.14062 0.26172-0.40625 0.41016-0.68359 0.41016z"/>
  <path d="m80.469 100h-7.8125c-0.43359 0-0.78125-0.34766-0.78125-0.78125s0.34766-0.78125 0.78125-0.78125h7.8125c0.43359 0 0.78125 0.34766 0.78125 0.78125 0 0.42969-0.35156 0.78125-0.78125 0.78125z"/>
  <path d="m80.469 100c-0.27734 0-0.54297-0.14844-0.6875-0.40625l-9.375-17.188c-0.20703-0.37891-0.066406-0.85156 0.3125-1.0586 0.375-0.21094 0.85156-0.070312 1.0625 0.3125l9.375 17.188c0.20703 0.37891 0.066406 0.85156-0.3125 1.0586-0.12109 0.0625-0.25 0.09375-0.375 0.09375z"/>
  <path d="m72.656 100c-0.27734 0-0.54297-0.14844-0.6875-0.40625l-9.375-17.188c-0.20703-0.37891-0.066406-0.85156 0.3125-1.0586 0.375-0.21094 0.85156-0.070312 1.0625 0.3125l9.375 17.188c0.20703 0.37891 0.066406 0.85156-0.3125 1.0586-0.12109 0.0625-0.24609 0.09375-0.375 0.09375z"/>
  <path d="m72.23 90.625c-0.27734 0-0.54688-0.14844-0.6875-0.40625l-4.2617-7.8125c-0.20703-0.37891-0.066406-0.85156 0.3125-1.0586 0.375-0.21094 0.85156-0.070312 1.0625 0.3125l4.2617 7.8125c0.20703 0.37891 0.066406 0.85156-0.3125 1.0586-0.12109 0.0625-0.25 0.09375-0.375 0.09375z"/>
  <path d="m64.844 93.75h-29.688c-0.43359 0-0.78125-0.34766-0.78125-0.78125s0.34766-0.78125 0.78125-0.78125h29.688c0.43359 0 0.78125 0.34766 0.78125 0.78125 0 0.42969-0.35156 0.78125-0.78125 0.78125z"/>
  <path d="m96.094 79.688h-92.188c-0.43359 0-0.78125-0.34766-0.78125-0.78125v-3.125c0-0.43359 0.34766-0.78125 0.78125-0.78125h92.184c0.43359 0 0.78125 0.34766 0.78125 0.78125v3.125c0.003906 0.42969-0.34766 0.78125-0.77734 0.78125zm-91.406-1.5625h90.621v-1.5625h-90.621z"/>
  <path d="m7.0312 20.312c-0.43359 0-0.78125-0.34766-0.78125-0.78125 0-2.1562 1.7539-3.9062 3.9062-3.9062 0.42969 0 0.78125 0.34766 0.78125 0.78125 0 0.42969-0.34766 0.78125-0.78125 0.78125-1.293 0-2.3438 1.0508-2.3438 2.3438 0 0.43359-0.34766 0.78125-0.78125 0.78125z"/>
  <path d="m92.969 20.312c-0.43359 0-0.78125-0.34766-0.78125-0.78125 0-1.293-1.0508-2.3438-2.3438-2.3438-0.43359 0-0.78125-0.34766-0.78125-0.78125s0.34766-0.78125 0.78125-0.78125c2.1523 0 3.9062 1.75 3.9062 3.9062 0 0.43359-0.35156 0.78125-0.78125 0.78125z"/>
  <path d="m89.844 17.188h-79.688c-0.43359 0-0.78125-0.34766-0.78125-0.78125s0.34766-0.78125 0.78125-0.78125h79.684c0.43359 0 0.78125 0.34766 0.78125 0.78125 0.003906 0.43359-0.34766 0.78125-0.77734 0.78125z"/>
  <path d="m10.156 73.438c-0.43359 0-0.78125-0.34766-0.78125-0.78125v-51.562c0-0.42969 0.34766-0.78125 0.78125-0.78125 0.42969 0 0.78125 0.34766 0.78125 0.78125v51.562c0 0.42969-0.34766 0.78125-0.78125 0.78125z"/>
  <path d="m10.156 21.875c-0.43359 0-0.78125-0.34766-0.78125-0.78125 0-1.293 1.0508-2.3438 2.3438-2.3438 0.43359 0 0.78125 0.34766 0.78125 0.78125s-0.34766 0.78125-0.78125 0.78125c-0.42969 0-0.78125 0.35156-0.78125 0.78125 0 0.43359-0.34766 0.78125-0.78125 0.78125z"/>
  <path d="m89.844 21.875c-0.43359 0-0.78125-0.34766-0.78125-0.78125 0-0.42969-0.35156-0.78125-0.78125-0.78125-0.43359 0-0.78125-0.34766-0.78125-0.78125s0.34766-0.78125 0.78125-0.78125c1.293 0 2.3438 1.0508 2.3438 2.3438 0 0.43359-0.35156 0.78125-0.78125 0.78125z"/>
  <path d="m88.281 20.312h-76.562c-0.42969 0-0.78125-0.34766-0.78125-0.78125s0.34766-0.78125 0.78125-0.78125h76.559c0.43359 0 0.78125 0.34766 0.78125 0.78125 0.003906 0.43359-0.34766 0.78125-0.77734 0.78125z"/>
  <path d="m89.844 72.949c-0.43359 0-0.78125-0.34766-0.78125-0.78125v-51.074c0-0.42969 0.34766-0.78125 0.78125-0.78125s0.78125 0.34766 0.78125 0.78125v51.074c0 0.42969-0.35156 0.78125-0.78125 0.78125z"/>
  <path d="m83.594 73.438c-0.43359 0-0.78125-0.34766-0.78125-0.78125v-3.9062h-14.062v3.9062c0 0.43359-0.34766 0.78125-0.78125 0.78125s-0.78125-0.34766-0.78125-0.78125v-4.6875c0-0.43359 0.34766-0.78125 0.78125-0.78125h15.625c0.43359 0 0.78125 0.34766 0.78125 0.78125v4.6875c0 0.42969-0.35156 0.78125-0.78125 0.78125z"/>
  <path d="m33.594 73.438h-15.625c-0.42969 0-0.78125-0.34766-0.78125-0.78125s0.34766-0.78125 0.78125-0.78125h15.625c0.43359 0 0.78125 0.34766 0.78125 0.78125 0 0.42969-0.34766 0.78125-0.78125 0.78125z"/>
  <path d="m50 14.062c-0.43359 0-0.78125-0.34766-0.78125-0.78125v-4.6875c0-0.42969 0.34766-0.78125 0.78125-0.78125s0.78125 0.34766 0.78125 0.78125v4.6875c0 0.43359-0.34766 0.78125-0.78125 0.78125z"/>
  <path d="m29.332 90.625c-0.097656 0-0.19531-0.019531-0.29297-0.054688-0.39844-0.16016-0.59375-0.61719-0.42969-1.0195 0.46094-1.1445 2.0977-3.0312 4.9648-2.0039 0.40625 0.14844 0.61719 0.59375 0.47266 1-0.14844 0.40625-0.59375 0.61328-1 0.47266-2.1484-0.77344-2.9102 0.92188-2.9883 1.1211-0.125 0.29688-0.41797 0.48438-0.72656 0.48438z"/>
  <path d="m34.375 48.438c-1.7227 0-3.125-1.4023-3.125-3.125s1.4023-3.125 3.125-3.125 3.125 1.4023 3.125 3.125-1.4023 3.125-3.125 3.125zm0-4.6875c-0.85938 0-1.5625 0.69922-1.5625 1.5625s0.70312 1.5625 1.5625 1.5625 1.5625-0.69922 1.5625-1.5625-0.69922-1.5625-1.5625-1.5625z"/>
  <path d="m34.375 51.562l-0.74609-0.007812c-0.43359-0.007813-0.77344-0.36328-0.76562-0.79688 0.007813-0.42969 0.31641-0.76953 0.79688-0.76562l0.71875 0.007812c8.2852 0 14.059-2.4688 14.059-4.6875s-5.7734-4.6875-14.062-4.6875l-0.76562 0.007812c-0.4375 0.042969-0.78906-0.33594-0.79688-0.76562-0.007812-0.42969 0.33594-0.78906 0.76562-0.79688l0.79688-0.007812c7.5742 0 15.625 2.1914 15.625 6.25s-8.0508 6.25-15.625 6.25z"/>
  <path d="m24.203 50.074c-0.085937 0-0.17188-0.015625-0.25391-0.042969-3.3516-1.1602-5.1953-2.8359-5.1953-4.7188 0-1.8867 1.8516-3.5664 5.2188-4.7266 0.40234-0.14063 0.85156 0.074218 0.99219 0.48437 0.14062 0.40625-0.074219 0.85156-0.48438 0.99219-2.6094 0.90234-4.1641 2.1172-4.1641 3.25 0 1.1289 1.5469 2.3438 4.1445 3.2422 0.40625 0.14062 0.625 0.58594 0.48437 0.99609-0.11719 0.32031-0.42187 0.52344-0.74219 0.52344z"/>
  <path d="m39.328 48.445c-0.12891 0-0.26172-0.03125-0.38281-0.10156-0.375-0.21094-0.50781-0.6875-0.29687-1.0625 0.86328-1.5312 1.6016-3.0781 2.1992-4.5977 0.15625-0.40234 0.60938-0.60156 1.0117-0.44141 0.40234 0.16016 0.60156 0.61328 0.44141 1.0117-0.62109 1.5859-1.3945 3.2031-2.293 4.793-0.14062 0.25391-0.40625 0.39844-0.67969 0.39844z"/>
  <path d="m28.113 59.242c-0.64844 0-1.1562-0.17188-1.5508-0.39844-0.92188-0.53125-1.9688-1.8281-1.7422-4.9922 0.23438-3.2578 1.7422-7.5078 4.1406-11.664 1.2305-2.1328 2.5938-4.0664 4.043-5.7422 3.6016-4.1602 7.0352-5.9062 9.1797-4.6641 1.5703 0.90625 2.1211 3.2148 1.5547 6.5078-0.074219 0.42578-0.47656 0.71094-0.90234 0.63672-0.42578-0.074219-0.71094-0.47656-0.63672-0.90234 0.43359-2.5234 0.13672-4.3516-0.79688-4.8906-1.1562-0.66406-3.832 0.41797-7.2188 4.332-1.3672 1.5781-2.7031 3.4805-3.8711 5.5039-2.25 3.8984-3.7227 8.0078-3.9375 10.992-0.12891 1.8125 0.22266 3.0977 0.96484 3.5312 0.86328 0.49609 2.3984-0.015626 4.207-1.4141 0.33984-0.26562 0.83203-0.20312 1.0938 0.14062 0.26562 0.33984 0.20312 0.83203-0.14062 1.0938-1.8828 1.4609-3.3203 1.9297-4.3867 1.9297z"/>
  <path d="m27.176 43.75c-0.3125 0-0.60547-0.1875-0.72656-0.49609-2.25-5.7344-2.2031-10.133 0.11328-11.473 1.0391-0.59766 2.9141-0.81641 5.9492 1.5352 0.33984 0.26562 0.40234 0.75391 0.14062 1.0977-0.26172 0.34375-0.75391 0.40234-1.0938 0.14063-1.8086-1.4023-3.3398-1.918-4.2109-1.418-1.2891 0.74609-1.5117 4.2656 0.55859 9.5508 0.15625 0.40234-0.039062 0.85547-0.44141 1.0117-0.097656 0.035156-0.19531 0.050781-0.28906 0.050781z"/>
  <path d="m40.617 59.254c-3.5312 0-8.3867-5.1523-11.656-10.812l-0.22656-0.40234c-0.21094-0.375-0.074219-0.85156 0.30078-1.0625 0.37891-0.21094 0.85156-0.074218 1.0625 0.30078l0.21875 0.38281c4.1445 7.1758 9.1719 10.945 11.09 9.832 0.75391-0.4375 1.0977-1.6914 0.96484-3.5312-0.03125-0.42969 0.29297-0.80469 0.72266-0.83594 0.42578-0.03125 0.80469 0.29297 0.83594 0.72266 0.22656 3.1641-0.82422 4.4648-1.7422 4.9922-0.48438 0.28125-1.0078 0.41406-1.5703 0.41406z"/>
  <path d="m78.906 37.5h-23.438c-0.43359 0-0.78125-0.34766-0.78125-0.78125s0.34766-0.78125 0.78125-0.78125h23.438c0.42969 0 0.78125 0.34766 0.78125 0.78125s-0.35156 0.78125-0.78125 0.78125z"/>
  <path d="m78.906 43.75h-23.438c-0.43359 0-0.78125-0.34766-0.78125-0.78125s0.34766-0.78125 0.78125-0.78125h23.438c0.42969 0 0.78125 0.34766 0.78125 0.78125s-0.35156 0.78125-0.78125 0.78125z"/>
  <path d="m78.906 50h-23.438c-0.43359 0-0.78125-0.34766-0.78125-0.78125s0.34766-0.78125 0.78125-0.78125h23.438c0.42969 0 0.78125 0.34766 0.78125 0.78125s-0.35156 0.78125-0.78125 0.78125z"/>
  <path d="m66.406 56.25h-10.938c-0.43359 0-0.78125-0.34766-0.78125-0.78125s0.34766-0.78125 0.78125-0.78125h10.938c0.42969 0 0.78125 0.34766 0.78125 0.78125s-0.35156 0.78125-0.78125 0.78125z"/>
 </g>
</svg>
