<?xml version="1.0" encoding="UTF-8"?>
<svg fill="#FFFFFF" width="100pt" height="100pt" version="1.1" viewBox="0 0 100 100" xmlns="http://www.w3.org/2000/svg" opacity="0.2">
 <path d="m88.789 2.8789c-5.4531 0-10.91 1.9688-10.91 5.6055v20.758l-14.242 10v-3.0312c0-4.2422-5-7.1211-12.727-7.1211-8.1836 0-14.395 3.0312-14.395 7.1211v3.0312l-14.242-10v-0.30469-21.062c0-2.5742-2.5742-5.6055-9.6953-5.6055-5.6094 0.003907-11.062 1.9727-11.062 5.6094v21.062c0 3.6367 5.4531 5.6055 10.91 5.6055 4.3945 0 6.9688-1.0625 8.332-2.5742l15.605 10.91v15.152l-14.848 10.305c-1.0625-1.8164-3.7891-3.4844-9.0898-3.4844-5.4531 0-10.91 1.9688-10.91 5.6055v21.062c0 3.6367 5.4531 5.6055 10.91 5.6055 7.1211 0 9.6953-3.0312 9.6953-5.6055v-19.848l14.242-10v3.0312c0 4.0898 6.2109 7.1211 14.395 7.1211 7.7266 0 12.727-2.7266 12.727-7.1211v-3.0312l14.242 10v20.305c0 3.6367 5.4531 5.6055 10.91 5.6055 7.1211 0 9.6953-3.0312 9.6953-5.6055v-21.062c0-2.5742-2.5742-5.6055-9.6953-5.6055-4.0898 0-8.332 1.0625-10 3.1836l-15.152-10.605v-15.152l15.453-10.758c1.9688 1.9688 5.9102 2.8789 9.8477 2.8789 7.1211 0 9.6953-3.0312 9.6953-5.6055v-21.062c0.003906-2.2812-2.5703-5.3125-9.6914-5.3125zm-84.242 9.0898c2.1211 1.0625 5 1.668 7.8789 1.668 3.0312 0 5.1523-0.45312 6.668-1.3633v2.5742c0 1.0625-2.1211 2.5742-6.668 2.5742-5.1523 0.003906-7.8789-1.8164-7.8789-2.5742zm0 6.8203c2.1211 1.0625 5 1.668 7.8789 1.668 3.0312 0 5.1523-0.45312 6.668-1.3633v2.7266c0 1.0625-2.1211 2.5742-6.668 2.5742-5.1523 0.15234-7.8789-1.668-7.8789-2.4258zm7.8789-13.484c4.5469 0 6.668 1.5156 6.668 2.5742 0 1.0625-2.1211 2.5742-6.668 2.5742-5.1523 0-7.8789-1.8164-7.8789-2.5742 0-0.75781 2.7266-2.5742 7.8789-2.5742zm0 26.211c-5.1523 0-7.8789-1.8164-7.8789-2.5742v-3.0312c2.1211 1.0625 5 1.668 7.8789 1.668 3.0312 0 5.1523-0.45312 6.668-1.3633v2.7266c0.14844 1.0586-1.9727 2.5742-6.668 2.5742zm-7.8789 43.031c2.1211 1.0625 5 1.668 7.8789 1.668 3.0312 0 5.1523-0.45312 6.668-1.3633v2.5742c0 1.0625-2.1211 2.5742-6.668 2.5742-5.1523 0-7.8789-1.8164-7.8789-2.5742zm0 6.8164c2.1211 1.0625 5 1.668 7.8789 1.668 3.0312 0 5.1523-0.45312 6.668-1.3633v2.7266c0 1.0625-2.1211 2.5742-6.668 2.5742-5.1523 0-7.8789-1.8164-7.8789-2.5742zm7.8789-13.484c4.5469 0 6.668 1.5156 6.668 2.5742 0 1.0625-2.1211 2.5742-6.668 2.5742-5.1523 0.003906-7.8789-1.8164-7.8789-2.5742s2.7266-2.5742 7.8789-2.5742zm0 26.211c-5.1523 0-7.8789-1.8164-7.8789-2.5742v-3.0312c2.1211 1.0625 5 1.668 7.8789 1.668 3.0312 0 5.1523-0.45312 6.668-1.3633v2.7266c0.14844 1.0586-1.9727 2.5742-6.668 2.5742zm68.332-12.121c2.1211 1.0625 5 1.668 7.8789 1.668 3.0312 0 5.1523-0.45312 6.668-1.3633v2.7266c0 1.0625-2.1211 2.5742-6.668 2.5742-5.1523 0-7.8789-1.8164-7.8789-2.5742zm14.695-3.9375c0 1.0625-2.1211 2.5742-6.668 2.5742-5.1523 0-7.8789-1.8164-7.8789-2.5742v-2.8789c2.1211 1.0625 5 1.668 7.8789 1.668 3.0312 0 5.1523-0.45312 6.668-1.3633zm-6.6641 16.664c-5.1523 0-7.8789-1.8164-7.8789-2.5742v-3.0312c2.1211 1.0625 5 1.668 7.8789 1.668 3.0312 0 5.1523-0.45312 6.668-1.3633v2.7266c-0.003906 1.0625-2.125 2.5742-6.668 2.5742zm0-26.211c4.5469 0 6.668 1.5156 6.668 2.5742 0 1.0625-2.1211 2.5742-6.668 2.5742-5.1523 0-7.8789-1.8164-7.8789-2.5742-0.15234-0.75391 2.7266-2.5742 7.8789-2.5742zm-28.336-22.879c0 1.9688-3.332 4.0898-9.6953 4.0898-6.9688 0-11.363-2.4258-11.363-4.0898v-5c2.5742 1.668 6.668 2.5742 11.363 2.5742 4.0898 0 7.4258-0.75781 9.6953-2.1211zm-20.906 9.5469v-5.1523c2.5742 1.668 6.668 2.5742 11.363 2.5742 4.0898 0 7.4258-0.75781 9.6953-2.1211v4.6953c0 1.9688-3.332 4.0898-9.6953 4.0898-6.9727 0.003907-11.363-2.4219-11.363-4.0859zm11.363-23.031c6.3633 0 9.6953 1.9688 9.6953 4.0898 0 1.9688-3.332 4.0898-9.6953 4.0898-6.9688 0-11.363-2.4258-11.363-4.0898 0-1.6641 4.3906-4.0898 11.363-4.0898zm0 36.668c-6.9688 0-11.363-2.4258-11.363-4.0898v-5.1523c2.5742 1.668 6.668 2.5742 11.363 2.5742 4.0898 0 7.4258-0.75781 9.6953-2.1211v4.6953c-0.15234 2.1211-3.332 4.0938-9.6953 4.0938zm29.848-49.395c2.1211 1.0625 5 1.668 7.8789 1.668 3.0312 0 5.1523-0.45312 6.668-1.3633v2.7266c0 1.0625-2.1211 2.5742-6.668 2.5742-5.1523 0-7.8789-1.8164-7.8789-2.5742zm14.695-4.0898c0 1.0625-2.1211 2.5742-6.668 2.5742-5.1523 0-7.8789-1.8164-7.8789-2.5742l0.003906-2.8789c2.1211 1.0625 5 1.668 7.8789 1.668 3.0312 0 5.1523-0.45312 6.668-1.3633zm-6.6641-9.3945c4.5469 0 6.668 1.5156 6.668 2.5742 0 1.0625-2.1211 2.5742-6.668 2.5742-5.1523 0-7.8789-1.8164-7.8789-2.5742s2.7266-2.5742 7.8789-2.5742zm0 26.059c-5.1523 0-7.8789-1.8164-7.8789-2.5742v-3.0312c2.1211 1.0625 5 1.668 7.8789 1.668 3.0312 0 5.1523-0.45312 6.668-1.3633v2.7266c-0.003906 1.0586-2.125 2.5742-6.668 2.5742z"/>
</svg>
