<svg xmlns="http://www.w3.org/2000/svg" xmlns:xlink="http://www.w3.org/1999/xlink" id="Ebene_1" data-name="Ebene 1" width="552" height="558.42" viewBox="0 0 552 558.42">
    <defs>
        <linearGradient id="Gradient-0" x1="300.08" y1="215.74" x2="523.43" y2="215.74" gradientUnits="userSpaceOnUse">
            <stop offset="0" stop-color="#263d5d" stop-opacity="0.4"/>
            <stop offset="0.26" stop-color="#263d5d" stop-opacity="0.55"/>
            <stop offset="0.68" stop-color="#263d5d" stop-opacity="0.73"/>
            <stop offset="1" stop-color="#263d5d" stop-opacity="0.8"/>
        </linearGradient>
        <linearGradient id="Gradient-1" x1="300.08" y1="209.04" x2="523.43" y2="209.04" gradientUnits="userSpaceOnUse">
            <stop offset="0" stop-color="#001b41"/>
            <stop offset="0.16" stop-color="#092347" stop-opacity="0.95"/>
            <stop offset="0.64" stop-color="#1e3657" stop-opacity="0.84"/>
            <stop offset="1" stop-color="#263d5d" stop-opacity="0.8"/>
        </linearGradient>
        <linearGradient id="Gradient-2" x1="888.36" y1="503.02" x2="1236.37" y2="503.02" gradientUnits="userSpaceOnUse" gradientTransform="matrix(0.87 -0.5 -0.5 1.44 -554.19 -30.93)">
            <stop offset="0" stop-color="#e7f9fc" stop-opacity="0.6"/>
            <stop offset="1" stop-color="#28cce8" stop-opacity="0.5"/>
        </linearGradient>
        <linearGradient id="Gradient-3" x1="1022.52" y1="607.47" x2="1132.19" y2="417.51" gradientUnits="userSpaceOnUse" gradientTransform="matrix(0.87 -0.5 -0.5 1.44 -554.19 -30.93)">
            <stop offset="0" stop-color="#e7f9fc" stop-opacity="0.4"/>
            <stop offset="1" stop-color="#28cce8" stop-opacity="0.8"/>
        </linearGradient>
        <linearGradient id="Gradient-4" x1="250.54" y1="317.6" x2="416.37" y2="317.6" gradientUnits="userSpaceOnUse">
            <stop offset="0" stop-color="#263d5d" stop-opacity="0.4"/>
            <stop offset="0.26" stop-color="#263d5d" stop-opacity="0.55"/>
            <stop offset="0.68" stop-color="#263d5d" stop-opacity="0.73"/>
            <stop offset="1" stop-color="#263d5d" stop-opacity="0.8"/>
        </linearGradient>
        <linearGradient id="Gradient-5" x1="250.54" y1="310.9" x2="416.37" y2="310.9" gradientUnits="userSpaceOnUse">
            <stop offset="0.13" stop-color="#001b41"/>
            <stop offset="0.27" stop-color="#092347" stop-opacity="0.95"/>
            <stop offset="0.69" stop-color="#1e3657" stop-opacity="0.84"/>
            <stop offset="1" stop-color="#263d5d" stop-opacity="0.8"/>
        </linearGradient>
        <linearGradient id="Gradient-6" x1="-2353.32" y1="763.55" x2="-2258.3" y2="668.53" gradientUnits="userSpaceOnUse" gradientTransform="matrix(0.87 -0.5 1.5 0.29 1249.92 -1052.15)">
            <stop offset="0" stop-color="#11c7e6" stop-opacity="0.4"/>
            <stop offset="0.92" stop-color="#28cce8" stop-opacity="0.8"/>
        </linearGradient>
        <linearGradient id="Gradient-7" x1="-180.2" y1="-363.96" x2="-53.31" y2="-490.85" gradientUnits="userSpaceOnUse" gradientTransform="matrix(0.866025 0.5 -0.5 0.866025 305.17 632.71)">
            <stop offset="0" stop-color="#e5f7fa" stop-opacity="0.6"/>
            <stop offset="0.59" stop-color="#28cce8" stop-opacity="0.8"/>
        </linearGradient>
        <linearGradient id="Gradient-8" x1="1163.6" y1="667.85" x2="1222.8" y2="565.31" gradientUnits="userSpaceOnUse">
            <stop offset="0.04" stop-color="#a7c0e7" stop-opacity="0.7"/>
            <stop offset="0.21" stop-color="#bdd3ee" stop-opacity="0.65"/>
            <stop offset="0.45" stop-color="#8ba7de" stop-opacity="0.58"/>
            <stop offset="0.67" stop-color="#6787d3" stop-opacity="0.6"/>
            <stop offset="0.86" stop-color="#5274cc" stop-opacity="0.7"/>
            <stop offset="1" stop-color="#4a6dc9" stop-opacity="0.7"/>
        </linearGradient>
        <linearGradient id="Gradient-9" x1="1103.48" y1="586.69" x2="1294.37" y2="652.81" gradientUnits="userSpaceOnUse" gradientTransform="matrix(0.87 -0.5 -0.5 1.44 -554.19 -30.93)">
            <stop offset="0.04" stop-color="#d8e1fb" stop-opacity="0.6"/>
            <stop offset="0.31" stop-color="#a7c0e7" stop-opacity="0.64"/>
            <stop offset="0.58" stop-color="#7493d7" stop-opacity="0.67"/>
            <stop offset="0.82" stop-color="#5577cd" stop-opacity="0.69"/>
            <stop offset="1" stop-color="#4a6dc9" stop-opacity="0.85"/>
        </linearGradient>
        <linearGradient id="Gradient-10" x1="27.92" y1="10.14" x2="53.06" y2="53.69" gradientUnits="userSpaceOnUse" gradientTransform="matrix(1 0 0 1 -10.53 -1.21)">
            <stop offset="0" stop-color="#ffffff" stop-opacity="0.8"/>
            <stop offset="0.19" stop-color="#ffffff" stop-opacity="0.8"/>
            <stop offset="0.4" stop-color="#ffffff" stop-opacity="0.6"/>
            <stop offset="0.6" stop-color="#ffffff" stop-opacity="0.4"/>
            <stop offset="0.82" stop-color="#ffffff" stop-opacity="0.3"/>
            <stop offset="1" stop-color="#ffffff" stop-opacity="0.1"/>
        </linearGradient>
        <linearGradient id="Gradient-11" x1="661.01" y1="-844.67" x2="668.65" y2="-860.93" gradientUnits="userSpaceOnUse" gradientTransform="matrix(-0.87 1.37 -0.65 -0.12 31.88 -975.19)">
            <stop offset="0" stop-color="#ffffff"/>
            <stop offset="0.19" stop-color="#ffffff" stop-opacity="0.81"/>
            <stop offset="0.4" stop-color="#ffffff" stop-opacity="0.8"/>
            <stop offset="0.6" stop-color="#ffffff" stop-opacity="0.8"/>
            <stop offset="0.77" stop-color="#ffffff" stop-opacity="0.8"/>
            <stop offset="1" stop-color="#ffffff" stop-opacity="0.8"/>
        </linearGradient>
        <linearGradient id="Gradient-12" x1="1103.48" y1="586.69" x2="1294.37" y2="652.81" gradientUnits="userSpaceOnUse" gradientTransform="matrix(0.87 -0.5 -0.5 1.44 -554.19 -30.93)">
            <stop offset="0.04" stop-color="#d8e1fb" stop-opacity="0.7"/>
            <stop offset="0.31" stop-color="#a7c0e7" stop-opacity="0.7"/>
            <stop offset="0.58" stop-color="#7493d7" stop-opacity="0.75"/>
            <stop offset="0.82" stop-color="#5577cd" stop-opacity="0.75"/>
            <stop offset="1" stop-color="#4a6dc9" stop-opacity="0.95"/>
        </linearGradient>
        <linearGradient id="Gradient-13" x1="1257.79" y1="-4161.23" x2="1257.79" y2="-4245.48" gradientUnits="userSpaceOnUse" gradientTransform="matrix(-0.7 0 0 -0.7 986.08 -2496.27)">
            <stop offset="0" stop-color="#70ddf0"/>
            <stop offset="1" stop-color="#0fb9dd"/>
        </linearGradient>
        <linearGradient id="Gradient-14" x1="-1871.15" y1="-4041.89" x2="-1833.86" y2="-4221.67" gradientUnits="userSpaceOnUse" gradientTransform="matrix(0.7 0 0 -0.7 1357.64 -2496.27)">
            <stop offset="0" stop-color="#b8eef7"/>
            <stop offset="1" stop-color="#70ddf0"/>
        </linearGradient>
        <linearGradient id="Gradient-15" x1="-325.81" y1="-1353.11" x2="-324.35" y2="-1355.81" gradientUnits="userSpaceOnUse" gradientTransform="matrix(-40.55 0 0 -41.11 -13128.1 -55238)">
            <stop offset="0" stop-color="#70ddf0"/>
            <stop offset="1" stop-color="#0fb9dd"/>
        </linearGradient>
        <linearGradient id="Gradient-16" x1="-139.37" y1="664.172" x2="-135.5" y2="644.302" gradientUnits="userSpaceOnUse" gradientTransform="matrix(0.5 0.866025 -0.866025 0.5 637.43 -208.82)">
            <stop offset="0" stop-color="#8c2de0"/>
            <stop offset="0" stop-color="#ff9a9e"/>
            <stop offset="1" stop-color="#fad0c4"/>
        </linearGradient>
    </defs>
    <style>
@keyframes backup-1_t { 0% { transform: translate(61.278px,83.0339px); } 8% { transform: translate(61.278px,83.0339px); } 13% { transform: translate(67.17px,89.9099px); animation-timing-function: steps(1, start); } 87% { transform: translate(67.17px,89.9099px); animation-timing-function: cubic-bezier(0,0,0.58,1); } 95% { transform: translate(61.28px,83.0299px); } 100% { transform: translate(61.28px,83.0299px); } }
@keyframes backup-1_o { 0% { opacity: 0; } 7% { opacity: 0; animation-timing-function: cubic-bezier(0.42,0,1,1); } 14% { opacity: 0.7; animation-timing-function: steps(1, start); } 88% { opacity: 0.7; animation-timing-function: cubic-bezier(0,0,0.58,1); } 94% { opacity: 0; } 100% { opacity: 0; } }
@keyframes backup-2_t { 0% { transform: translate(79.954px,116.4459px); } 20% { transform: translate(79.954px,116.4459px); animation-timing-function: cubic-bezier(0.42,0,1,1); } 28% { transform: translate(85.85px,123.3299px); } 84% { transform: translate(85.85px,123.3299px); animation-timing-function: cubic-bezier(0,0,0.58,1); } 91% { transform: translate(79.95px,116.4499px); } 100% { transform: translate(79.95px,116.4499px); } }
@keyframes backup-2_o { 0% { opacity: 0; } 22% { opacity: 0; } 29% { opacity: 0.85; } 85% { opacity: 0.85; animation-timing-function: cubic-bezier(0,0,0.58,1); } 90% { opacity: 0; } 100% { opacity: 0; } }
@keyframes backup-3_t { 0% { transform: translate(100.587px,144.9459px); } 34% { transform: translate(100.587px,144.9459px); } 42% { transform: translate(108.449px,155.7559px); } 79% { transform: translate(108.449px,155.7559px); } 87% { transform: translate(100.59px,144.9499px); } 100% { transform: translate(100.59px,144.9499px); } }
@keyframes backup-3_o { 0% { opacity: 0; } 35% { opacity: 0; animation-timing-function: cubic-bezier(0.42,0,1,1); } 43% { opacity: 1; } 80% { opacity: 1; } 86% { opacity: 0; } 100% { opacity: 0; } }
    </style>
    <path d="M419.71,461.1L424.47,464.78C424.728,464.979,424.933,465.239,425.068,465.536C425.202,465.832,425.262,466.158,425.243,466.483C425.223,466.808,425.124,467.124,424.954,467.402C424.785,467.68,424.55,467.913,424.27,468.08L370.8,502.36C370.329,502.64,369.823,502.855,369.294,502.998C368.765,503.141,368.219,503.21,367.672,503.205C367.124,503.2,366.579,503.12,366.054,502.967C365.528,502.814,365.025,502.589,364.56,502.3L221.77,414.35C221.459,414.161,221.123,414.016,220.772,413.918C220.422,413.819,220.059,413.77,219.695,413.77C219.331,413.77,218.968,413.819,218.618,413.918C218.267,414.016,217.931,414.161,217.62,414.35L193.34,428.8C192.907,429.057,192.415,429.194,191.912,429.198C191.409,429.202,190.914,429.072,190.477,428.822C190.041,428.572,189.679,428.21,189.428,427.774C189.177,427.338,189.047,426.843,189.05,426.34L189.59,349.583" fill="none" stroke="#eaebec" stroke-miterlimit="10" transform="translate(-37.67,-113.25)"/>
    <path d="M385.18,364.52L373.41,372.36C372.949,372.668,372.446,372.909,371.917,373.077C371.389,373.245,370.839,373.338,370.285,373.353C369.73,373.368,369.176,373.305,368.639,373.166C368.102,373.026,367.587,372.813,367.11,372.53L314.93,341.53C314.468,341.257,313.971,341.048,313.453,340.908C312.935,340.769,312.4,340.7,311.863,340.704C311.326,340.709,310.793,340.786,310.277,340.934C309.761,341.082,309.267,341.299,308.81,341.58L179.19,421.39C178.296,421.934,177.275,422.232,176.228,422.253C175.182,422.274,174.149,422.018,173.235,421.509C172.32,421.001,171.556,420.26,171.022,419.361C170.487,418.461,170.2,417.436,170.19,416.39L170.19,360.583" fill="none" stroke="#eaebec" stroke-miterlimit="10" transform="translate(-37.67,-113.25)"/>
    <title>versioning</title>
    <path d="M395.32,279.39L301.5,225.23C299.64,224.15,299.6,222.41,301.42,221.36L421.5,152C422.017,151.74,422.563,151.541,423.126,151.407C423.689,151.273,424.266,151.206,424.845,151.206C425.424,151.206,426.001,151.273,426.564,151.407C427.127,151.541,427.673,151.74,428.19,152L522,206.25C523.86,207.32,523.9,209.06,522.08,210.11L402,279.44C401.482,279.697,400.936,279.893,400.372,280.023C399.809,280.153,399.232,280.216,398.654,280.212C398.076,280.207,397.5,280.135,396.939,279.997C396.377,279.859,395.834,279.655,395.32,279.39Z" fill="url(#Gradient-0)" opacity="0.8"/>
    <path d="M395.32,272.7L301.5,218.53C299.64,217.45,299.6,215.72,301.42,214.66L421.5,145.34C422.017,145.08,422.563,144.881,423.126,144.747C423.689,144.613,424.266,144.546,424.845,144.546C425.424,144.546,426.001,144.613,426.564,144.747C427.127,144.881,427.673,145.08,428.19,145.34L522,199.55C523.86,200.63,523.9,202.36,522.08,203.41L402,272.74C401.482,272.996,400.936,273.192,400.373,273.321C399.81,273.451,399.233,273.515,398.655,273.512C398.077,273.508,397.502,273.438,396.94,273.301C396.379,273.164,395.835,272.963,395.32,272.7Z" fill="url(#Gradient-1)"/>
    <path d="M221.84,195.42L6.84,319.55C4.69,320.79,2.94,319.46,2.94,316.6L2.94,139.9C2.94,137.04,4.69,133.68,6.84,132.44L221.84,8.31C223.99,7.07,225.74,8.4,225.74,11.26L225.74,188C225.74,190.82,224,194.18,221.84,195.42Z" fill="none" stroke="url(#Gradient-2)" stroke-miterlimit="10"/>
    <g opacity="0.2">
        <path d="M551.88,387.99L659.28,324.66L553.04,262.65L444.46,324.76L551.88,387.99Z" fill="#f6f7f8"/>
        <path d="M455.7,362.69L444.46,369.17L551.89,431.19L659.31,369.18L649.42,363.47L551.89,418.03L455.7,362.69Z" fill="#263d5d" opacity="0.7"/>
        <path d="M551.88,423.99L659.31,361.97L659.31,324.75L551.89,386.77L551.88,423.99Z" fill="#dfe2e7"/>
        <path d="M551.89,423.99L444.46,361.98L444.46,324.76L551.89,386.78L551.89,423.99Z" fill="#95a0b0"/>
        <path d="M544.25,412.71L544.25,412.71C544.95,413.12,545.53,412.71,545.53,411.71L545.53,393.44C545.525,393.202,545.493,392.966,545.434,392.736C545.375,392.506,545.289,392.284,545.178,392.073C545.067,391.863,544.932,391.666,544.776,391.487C544.62,391.308,544.443,391.148,544.25,391.01L544.25,391.01C543.55,390.6,542.98,391.01,542.98,392.01L542.98,410.32C542.987,410.554,543.02,410.786,543.08,411.012C543.14,411.238,543.226,411.457,543.335,411.664C543.445,411.87,543.578,412.063,543.732,412.24C543.886,412.416,544.06,412.574,544.25,412.71Z" fill="#718095"/>
        <path d="M539,410.32L539,410.32C539.7,410.73,540.27,410.32,540.27,409.32L540.27,391.05C540.268,390.812,540.238,390.576,540.181,390.345C540.124,390.115,540.039,389.892,539.929,389.681C539.819,389.471,539.684,389.274,539.528,389.095C539.371,388.917,539.194,388.757,539,388.62L539,388.62C538.3,388.21,537.73,388.62,537.73,389.62L537.73,407.93C537.737,408.164,537.77,408.396,537.83,408.622C537.89,408.848,537.976,409.067,538.085,409.274C538.195,409.48,538.328,409.673,538.482,409.85C538.636,410.026,538.81,410.184,539,410.32Z" fill="#718095"/>
        <path d="M533.65,407.22L533.65,407.22C534.35,407.63,534.92,407.22,534.92,406.22L534.92,388C534.918,387.762,534.888,387.526,534.831,387.295C534.774,387.065,534.689,386.842,534.579,386.631C534.469,386.421,534.334,386.224,534.178,386.045C534.021,385.867,533.844,385.707,533.65,385.57L533.65,385.57C532.95,385.16,532.37,385.57,532.37,386.57L532.37,404.88C532.381,405.11,532.419,405.338,532.481,405.559C532.544,405.781,532.631,405.995,532.742,406.197C532.852,406.399,532.985,406.588,533.138,406.76C533.291,406.932,533.463,407.086,533.65,407.22Z" fill="#718095"/>
    </g>
    <path d="M230.08,201.6L15.08,325.73C12.94,326.97,11.18,325.64,11.18,322.73L11.18,146.08C11.18,143.22,12.94,139.86,15.08,138.62L230.08,14.49C232.23,13.25,233.99,14.58,233.99,17.49L233.99,194.19C234,197,232.23,200.36,230.08,201.6Z" fill="url(#Gradient-3)"/>
    <ellipse rx="4.35" ry="2.51" fill="#f44e4e" opacity="0.75" transform="translate(-111.85,101.19) rotate(-60) translate(31.71,147.46)"/>
    <ellipse rx="4.35" ry="2.51" fill="#fce95e" opacity="0.75" transform="translate(-101.71,107.05) rotate(-60) translate(41.85,141.6)"/>
    <ellipse rx="4.35" ry="2.51" fill="#5fe854" opacity="0.75" transform="translate(-91.56,112.9) rotate(-60) translate(52,135.75)"/>
    <g transform="translate(344.246,323.117) scale(0.75,0.75) translate(-82.9132,-51.2259)">
        <path d="M415.52,328.47L352.29,365C351.901,365.174,351.494,365.303,351.075,365.383C350.657,365.463,350.231,365.495,349.805,365.476C349.38,365.458,348.958,365.391,348.548,365.275C348.138,365.16,347.742,364.997,347.37,364.79L251.74,309.58C250.29,308.75,250.13,307.47,251.39,306.74L314.62,270.24C315.008,270.063,315.415,269.933,315.833,269.851C316.252,269.769,316.678,269.737,317.104,269.754C317.53,269.771,317.952,269.838,318.362,269.954C318.772,270.069,319.168,270.233,319.54,270.44L415.17,325.65C416.62,326.47,416.77,327.75,415.52,328.47Z" fill="url(#Gradient-4)" opacity="0.7" transform="translate(-250.54,-263.03)"/>
        <path d="M415.52,321.77L352.29,358.28C351.902,358.455,351.495,358.585,351.076,358.666C350.658,358.748,350.232,358.78,349.806,358.763C349.381,358.745,348.959,358.678,348.548,358.564C348.138,358.449,347.743,358.286,347.37,358.08L251.74,302.86C250.29,302.03,250.13,300.75,251.39,300.03L314.62,263.52C315.008,263.343,315.415,263.213,315.833,263.131C316.252,263.049,316.678,263.017,317.104,263.034C317.53,263.051,317.952,263.118,318.362,263.234C318.772,263.349,319.168,263.513,319.54,263.72L415.17,318.93C416.62,319.77,416.77,321.05,415.52,321.77Z" fill="url(#Gradient-5)" transform="translate(-250.54,-263.03)"/>
        <path d="M394.21,314.46L339.21,346.21C338.821,346.384,338.414,346.513,337.995,346.593C337.577,346.673,337.151,346.705,336.725,346.686C336.3,346.668,335.878,346.601,335.468,346.485C335.058,346.37,334.662,346.207,334.29,346L260.29,303.28C258.84,302.45,258.68,301.17,259.94,300.45L314.94,268.7C315.329,268.526,315.736,268.397,316.155,268.317C316.573,268.237,316.999,268.205,317.425,268.224C317.85,268.242,318.272,268.309,318.682,268.425C319.092,268.54,319.488,268.703,319.86,268.91L393.86,311.63C395.31,312.46,395.47,313.74,394.21,314.46Z" fill="url(#Gradient-6)" transform="translate(-250.54,-263.03)"/>
        <ellipse rx="7.38" ry="4.26" fill="#f6f7f8" opacity="0.2" transform="translate(-250.54,-263.03) translate(375.31,335.29)"/>
    </g>
    <path d="M408.79,256.47L327.21,209.37C325.35,208.29,325.32,206.56,327.14,205.51L420,151.87C420.517,151.61,421.063,151.411,421.626,151.277C422.189,151.143,422.766,151.076,423.345,151.076C423.924,151.076,424.501,151.143,425.064,151.277C425.627,151.411,426.173,151.61,426.69,151.87L508.31,199C510.17,200.07,510.21,201.81,508.39,202.86L415.48,256.5C414.962,256.758,414.415,256.955,413.851,257.086C413.288,257.217,412.71,257.282,412.131,257.279C411.553,257.277,410.976,257.207,410.413,257.07C409.851,256.934,409.306,256.733,408.79,256.47Z" fill="url(#Gradient-7)" opacity="0.96"/>
    <ellipse rx="9.31" ry="5.38" fill="#dfe2e7" opacity="0.2" transform="translate(0,0) translate(359.87,239.75)"/>
    <g id="backup-1" opacity="0" transform="translate(119.758,172.15) translate(-58.48,-89.1161)" style="animation: 10s linear infinite both backup-1_t, 10s linear infinite both backup-1_o;">
        <path d="M226.48,290.94L121.9,351.58C120.35,352.47,112.38,347.04,112.38,344.97L112.38,239.39C112.388,238.864,112.458,238.34,112.588,237.83C112.718,237.32,112.907,236.827,113.151,236.36C113.395,235.894,113.692,235.458,114.037,235.06C114.382,234.663,114.772,234.307,115.2,234L219.62,173.57C221.17,172.68,228.62,176.78,228.62,178.85L229.34,285.55C229.328,286.078,229.255,286.603,229.122,287.113C228.989,287.624,228.797,288.118,228.55,288.584C228.302,289.051,228.001,289.487,227.653,289.883C227.304,290.28,226.911,290.635,226.48,290.94Z" fill="url(#Gradient-8)" opacity="0.9" transform="translate(-112.38,-173.445)"/>
        <path d="M226.45,290.48L122,350.9C120.45,351.8,119.18,350.84,119.18,348.77L119.18,243.18C119.189,242.655,119.26,242.132,119.39,241.623C119.52,241.114,119.709,240.621,119.953,240.156C120.197,239.691,120.494,239.255,120.839,238.858C121.183,238.462,121.573,238.107,122,237.8L226.42,177.37C227.97,176.48,229.24,177.44,229.24,179.5L229.24,285.09C229.232,285.615,229.164,286.137,229.036,286.646C228.908,287.155,228.722,287.648,228.481,288.114C228.239,288.58,227.945,289.017,227.603,289.415C227.261,289.813,226.874,290.171,226.45,290.48Z" fill="url(#Gradient-9)" transform="translate(-112.38,-173.445)"/>
        <path class="cls-2" d="M12.72,60.3C13.4248,60.5435,14.1481,60.73,14.8828,60.8576C15.6175,60.9852,16.3612,61.0536,17.1069,61.0621C17.8526,61.0706,18.5977,61.0191,19.3351,60.9082C20.0725,60.7974,20.7998,60.6274,21.51,60.4C22.214,60.1794,22.9076,59.9272,23.5888,59.6439C24.27,59.3607,24.9381,59.0468,25.5909,58.7032C26.2437,58.3596,26.8807,57.9866,27.4998,57.5855C28.1189,57.1844,28.7196,56.7554,29.3,56.3C30.475,55.4074,31.6077,54.4606,32.6946,53.4625C33.7814,52.4645,34.8211,51.4163,35.8103,50.3215C36.7996,49.2266,37.7372,48.0862,38.6203,46.9041C39.5033,45.7219,40.3308,44.4992,41.1,43.24C41.8818,42.001,42.6133,40.731,43.2927,39.433C43.9721,38.135,44.5988,36.8101,45.1714,35.4616C45.744,34.113,46.2619,32.742,46.7239,31.3517C47.1859,29.9614,47.5916,28.553,47.94,27.13C49.24,21.55,49.62,15.47,47.53,10.55C47.3135,9.96031,47.041,9.39275,46.7161,8.85512C46.3912,8.3175,46.0154,7.81229,45.594,7.34644C45.1726,6.88058,44.7075,6.45624,44.205,6.07924C43.7026,5.70224,43.1651,5.37433,42.6,5.1C42.0098,4.84376,41.3988,4.63831,40.7737,4.48588C40.1486,4.33345,39.5116,4.23459,38.8697,4.19038C38.2278,4.14617,37.5833,4.15677,36.9432,4.22206C36.3031,4.28735,35.6698,4.4071,35.05,4.58C29.68,5.79,24.81,9.42,20.63,13.44C19.5918,14.496,18.5951,15.592,17.6422,16.7255C16.6892,17.859,15.7808,19.0292,14.9188,20.2333C14.0569,21.4375,13.2422,22.6748,12.4765,23.9423C11.7109,25.2099,10.9948,26.5068,10.33,27.83C9.6282,29.1595,8.99159,30.5224,8.42242,31.9138C7.85325,33.3053,7.35221,34.7236,6.92107,36.1639C6.48993,37.6041,6.1292,39.0644,5.84018,40.5397C5.55115,42.0151,5.33417,43.5036,5.19,45C4.76,38.89,6.19,32.72,8.39,27C8.96875,25.5508,9.61005,24.1273,10.3121,22.7336C11.0141,21.3399,11.7763,19.9773,12.5963,18.6496C13.4164,17.3219,14.2936,16.0304,15.2255,14.7787C16.1575,13.527,17.1432,12.3163,18.18,11.15C18.7082,10.558,19.2535,9.98147,19.8151,9.42102C20.3766,8.86058,20.9543,8.31649,21.5473,7.78945C22.1404,7.26241,22.7485,6.75262,23.371,6.26074C23.9935,5.76885,24.6301,5.29508,25.28,4.84C25.9431,4.35831,26.6275,3.9065,27.331,3.48592C28.0344,3.06534,28.7564,2.67641,29.4946,2.32029C30.2328,1.96417,30.9866,1.64122,31.7536,1.35241C32.5207,1.0636,33.3002,0.809205,34.09,0.59C34.9318,0.346285,35.7931,0.175871,36.6642,0.0806668C37.5354,-0.0145377,38.4131,-0.0341761,39.2877,0.0219714C40.1622,0.0781189,41.0302,0.209842,41.8821,0.415666C42.7339,0.621489,43.5663,0.900642,44.37,1.25C44.7818,1.43615,45.1839,1.64304,45.5747,1.86987C45.9656,2.09671,46.3447,2.3432,46.7106,2.6084C47.0765,2.8736,47.4288,3.15717,47.766,3.45801C48.1032,3.75886,48.4249,4.07659,48.73,4.41C49.0188,4.74042,49.2945,5.08207,49.5565,5.43416C49.8184,5.78625,50.0664,6.1485,50.2999,6.52008C50.5334,6.89165,50.7522,7.27227,50.9558,7.66104C51.1594,8.04981,51.3476,8.44644,51.52,8.85C54.08,15.3,53.44,22.01,51.91,28.12C51.4994,29.6395,51.0221,31.1403,50.4796,32.6179C49.937,34.0955,49.3298,35.5485,48.6595,36.9727C47.9893,38.397,47.2568,39.791,46.464,41.1509C45.6713,42.5107,44.8191,43.835,43.91,45.12C43.0279,46.4174,42.0801,47.6689,41.0701,48.8695C40.0602,50.07,38.9895,51.2182,37.8622,52.3093C36.735,53.4005,35.5526,54.4333,34.3199,55.4036C33.0871,56.374,31.8054,57.2806,30.48,58.12C29.8146,58.5351,29.1308,58.92,28.4307,59.2735C27.7306,59.6271,27.0149,59.9489,26.2858,60.238C25.5568,60.5271,24.8151,60.7832,24.0629,61.0056C23.3108,61.2279,22.5491,61.4162,21.78,61.57C21.0185,61.7325,20.2443,61.828,19.4662,61.8556C18.688,61.8832,17.909,61.8428,17.1379,61.7347C16.3668,61.6266,15.6067,61.4513,14.8661,61.2108C14.1256,60.9703,13.4075,60.6656,12.72,60.3Z" fill="url(#Gradient-10)" transform="translate(36.5327,65.0041)"/>
        <path class="cls-3" d="M5.89,51L0.26,42.18C0.143592,42.0012,0.0638813,41.8011,0.0254996,41.5912C-0.0128821,41.3813,-0.00916909,41.1659,0.0364229,40.9575C0.082015,40.7491,0.168577,40.5518,0.291077,40.3771C0.413578,40.2024,0.569574,40.0539,0.75,39.94C0.929159,39.822,1.13009,39.741,1.34099,39.7018C1.5519,39.6625,1.76852,39.6658,1.97813,39.7115C2.18774,39.7571,2.38611,39.8442,2.56159,39.9676C2.73708,40.091,2.88613,40.2482,3,40.43L5.53,44.36L9.01,37.36C9.20096,36.9741,9.53738,36.6799,9.94528,36.542C10.3532,36.4042,10.7991,36.434,11.185,36.625C11.5709,36.816,11.8651,37.1524,12.003,37.5603C12.1408,37.9682,12.111,38.4141,11.92,38.8Z" fill="url(#Gradient-11)" transform="translate(36.5327,65.0041)"/>
    </g>
    <g id="backup-2" opacity="0" transform="translate(138.434,205.562) translate(-58.48,-89.1161)" style="animation: 10s linear infinite both backup-2_t, 10s linear infinite both backup-2_o;">
        <path d="M226.48,290.94L121.9,351.58C120.35,352.47,112.38,347.04,112.38,344.97L112.38,239.39C112.388,238.864,112.458,238.34,112.588,237.83C112.718,237.32,112.907,236.827,113.151,236.36C113.395,235.894,113.692,235.458,114.037,235.06C114.382,234.663,114.772,234.307,115.2,234L219.62,173.57C221.17,172.68,228.62,176.78,228.62,178.85L229.34,285.55C229.328,286.078,229.255,286.603,229.122,287.113C228.989,287.624,228.797,288.118,228.55,288.584C228.302,289.051,228.001,289.487,227.653,289.883C227.304,290.28,226.911,290.635,226.48,290.94Z" fill="url(#Gradient-8)" opacity="1" transform="translate(-112.38,-173.445)"/>
        <path d="M226.45,290.48L122,350.9C120.45,351.8,119.18,350.84,119.18,348.77L119.18,243.18C119.189,242.655,119.26,242.132,119.39,241.623C119.52,241.114,119.709,240.621,119.953,240.156C120.197,239.691,120.494,239.255,120.839,238.858C121.183,238.462,121.573,238.107,122,237.8L226.42,177.37C227.97,176.48,229.24,177.44,229.24,179.5L229.24,285.09C229.232,285.615,229.164,286.137,229.036,286.646C228.908,287.155,228.722,287.648,228.481,288.114C228.239,288.58,227.945,289.017,227.603,289.415C227.261,289.813,226.874,290.171,226.45,290.48Z" fill="url(#Gradient-9)" transform="translate(-112.38,-173.445)"/>
        <path class="cls-2" d="M12.72,60.3C13.4248,60.5435,14.1481,60.73,14.8828,60.8576C15.6175,60.9852,16.3612,61.0536,17.1069,61.0621C17.8526,61.0706,18.5977,61.0191,19.3351,60.9082C20.0725,60.7974,20.7998,60.6274,21.51,60.4C22.214,60.1794,22.9076,59.9272,23.5888,59.6439C24.27,59.3607,24.9381,59.0468,25.5909,58.7032C26.2437,58.3596,26.8807,57.9866,27.4998,57.5855C28.1189,57.1844,28.7196,56.7554,29.3,56.3C30.475,55.4074,31.6077,54.4606,32.6946,53.4625C33.7814,52.4645,34.8211,51.4163,35.8103,50.3215C36.7996,49.2266,37.7372,48.0862,38.6203,46.9041C39.5033,45.7219,40.3308,44.4992,41.1,43.24C41.8818,42.001,42.6133,40.731,43.2927,39.433C43.9721,38.135,44.5988,36.8101,45.1714,35.4616C45.744,34.113,46.2619,32.742,46.7239,31.3517C47.1859,29.9614,47.5916,28.553,47.94,27.13C49.24,21.55,49.62,15.47,47.53,10.55C47.3135,9.96031,47.041,9.39275,46.7161,8.85512C46.3912,8.3175,46.0154,7.81229,45.594,7.34644C45.1726,6.88058,44.7075,6.45624,44.205,6.07924C43.7026,5.70224,43.1651,5.37433,42.6,5.1C42.0098,4.84376,41.3988,4.63831,40.7737,4.48588C40.1486,4.33345,39.5116,4.23459,38.8697,4.19038C38.2278,4.14617,37.5833,4.15677,36.9432,4.22206C36.3031,4.28735,35.6698,4.4071,35.05,4.58C29.68,5.79,24.81,9.42,20.63,13.44C19.5918,14.496,18.5951,15.592,17.6422,16.7255C16.6892,17.859,15.7808,19.0292,14.9188,20.2333C14.0569,21.4375,13.2422,22.6748,12.4765,23.9423C11.7109,25.2099,10.9948,26.5068,10.33,27.83C9.6282,29.1595,8.99159,30.5224,8.42242,31.9138C7.85325,33.3053,7.35221,34.7236,6.92107,36.1639C6.48993,37.6041,6.1292,39.0644,5.84018,40.5397C5.55115,42.0151,5.33417,43.5036,5.19,45C4.76,38.89,6.19,32.72,8.39,27C8.96875,25.5508,9.61005,24.1273,10.3121,22.7336C11.0141,21.3399,11.7763,19.9773,12.5963,18.6496C13.4164,17.3219,14.2936,16.0304,15.2255,14.7787C16.1575,13.527,17.1432,12.3163,18.18,11.15C18.7082,10.558,19.2535,9.98147,19.8151,9.42102C20.3766,8.86058,20.9543,8.31649,21.5473,7.78945C22.1404,7.26241,22.7485,6.75262,23.371,6.26074C23.9935,5.76885,24.6301,5.29508,25.28,4.84C25.9431,4.35831,26.6275,3.9065,27.331,3.48592C28.0344,3.06534,28.7564,2.67641,29.4946,2.32029C30.2328,1.96417,30.9866,1.64122,31.7536,1.35241C32.5207,1.0636,33.3002,0.809205,34.09,0.59C34.9318,0.346285,35.7931,0.175871,36.6642,0.0806668C37.5354,-0.0145377,38.4131,-0.0341761,39.2877,0.0219714C40.1622,0.0781189,41.0302,0.209842,41.8821,0.415666C42.7339,0.621489,43.5663,0.900642,44.37,1.25C44.7818,1.43615,45.1839,1.64304,45.5747,1.86987C45.9656,2.09671,46.3447,2.3432,46.7106,2.6084C47.0765,2.8736,47.4288,3.15717,47.766,3.45801C48.1032,3.75886,48.4249,4.07659,48.73,4.41C49.0188,4.74042,49.2945,5.08207,49.5565,5.43416C49.8184,5.78625,50.0664,6.1485,50.2999,6.52008C50.5334,6.89165,50.7522,7.27227,50.9558,7.66104C51.1594,8.04981,51.3476,8.44644,51.52,8.85C54.08,15.3,53.44,22.01,51.91,28.12C51.4994,29.6395,51.0221,31.1403,50.4796,32.6179C49.937,34.0955,49.3298,35.5485,48.6595,36.9727C47.9893,38.397,47.2568,39.791,46.464,41.1509C45.6713,42.5107,44.8191,43.835,43.91,45.12C43.0279,46.4174,42.0801,47.6689,41.0701,48.8695C40.0602,50.07,38.9895,51.2182,37.8622,52.3093C36.735,53.4005,35.5526,54.4333,34.3199,55.4036C33.0871,56.374,31.8054,57.2806,30.48,58.12C29.8146,58.5351,29.1308,58.92,28.4307,59.2735C27.7306,59.6271,27.0149,59.9489,26.2858,60.238C25.5568,60.5271,24.8151,60.7832,24.0629,61.0056C23.3108,61.2279,22.5491,61.4162,21.78,61.57C21.0185,61.7325,20.2443,61.828,19.4662,61.8556C18.688,61.8832,17.909,61.8428,17.1379,61.7347C16.3668,61.6266,15.6067,61.4513,14.8661,61.2108C14.1256,60.9703,13.4075,60.6656,12.72,60.3Z" fill="url(#Gradient-10)" opacity="0.75" transform="translate(34.4964,61.0305)"/>
        <path class="cls-3" d="M5.89,51L0.26,42.18C0.143592,42.0012,0.0638813,41.8011,0.0254996,41.5912C-0.0128821,41.3813,-0.00916909,41.1659,0.0364229,40.9575C0.082015,40.7491,0.168577,40.5518,0.291077,40.3771C0.413578,40.2024,0.569574,40.0539,0.75,39.94C0.929159,39.822,1.13009,39.741,1.34099,39.7018C1.5519,39.6625,1.76852,39.6658,1.97813,39.7115C2.18774,39.7571,2.38611,39.8442,2.56159,39.9676C2.73708,40.091,2.88613,40.2482,3,40.43L5.53,44.36L9.01,37.36C9.20096,36.9741,9.53738,36.6799,9.94528,36.542C10.3532,36.4042,10.7991,36.434,11.185,36.625C11.5709,36.816,11.8651,37.1524,12.003,37.5603C12.1408,37.9682,12.111,38.4141,11.92,38.8Z" fill="url(#Gradient-11)" opacity="0.75" transform="translate(34.4964,61.0305)"/>
    </g>
    <g id="backup-3" opacity="0" transform="translate(159.067,234.062) translate(-58.48,-89.1161)" style="animation: 10s linear infinite both backup-3_t, 10s linear infinite both backup-3_o;">
        <path d="M226.48,290.94L121.9,351.58C120.35,352.47,112.38,347.04,112.38,344.97L112.38,239.39C112.388,238.864,112.458,238.34,112.588,237.83C112.718,237.32,112.907,236.827,113.151,236.36C113.395,235.894,113.692,235.458,114.037,235.06C114.382,234.663,114.772,234.307,115.2,234L219.62,173.57C221.17,172.68,228.62,176.78,228.62,178.85L229.34,285.55C229.328,286.078,229.255,286.603,229.122,287.113C228.989,287.624,228.797,288.118,228.55,288.584C228.302,289.051,228.001,289.487,227.653,289.883C227.304,290.28,226.911,290.635,226.48,290.94Z" fill="url(#Gradient-8)" opacity="1" transform="translate(-112.38,-173.445)"/>
        <path d="M226.45,290.48L122,350.9C120.45,351.8,119.18,350.84,119.18,348.77L119.18,243.18C119.189,242.655,119.26,242.132,119.39,241.623C119.52,241.114,119.709,240.621,119.953,240.156C120.197,239.691,120.494,239.255,120.839,238.858C121.183,238.462,121.573,238.107,122,237.8L226.42,177.37C227.97,176.48,229.24,177.44,229.24,179.5L229.24,285.09C229.232,285.615,229.164,286.137,229.036,286.646C228.908,287.155,228.722,287.648,228.481,288.114C228.239,288.58,227.945,289.017,227.603,289.415C227.261,289.813,226.874,290.171,226.45,290.48Z" fill="url(#Gradient-12)" transform="translate(-112.38,-173.445)"/>
        <path class="cls-2" d="M12.72,60.3C13.4248,60.5435,14.1481,60.73,14.8828,60.8576C15.6175,60.9852,16.3612,61.0536,17.1069,61.0621C17.8526,61.0706,18.5977,61.0191,19.3351,60.9082C20.0725,60.7974,20.7998,60.6274,21.51,60.4C22.214,60.1794,22.9076,59.9272,23.5888,59.6439C24.27,59.3607,24.9381,59.0468,25.5909,58.7032C26.2437,58.3596,26.8807,57.9866,27.4998,57.5855C28.1189,57.1844,28.7196,56.7554,29.3,56.3C30.475,55.4074,31.6077,54.4606,32.6946,53.4625C33.7814,52.4645,34.8211,51.4163,35.8103,50.3215C36.7996,49.2266,37.7372,48.0862,38.6203,46.9041C39.5033,45.7219,40.3308,44.4992,41.1,43.24C41.8818,42.001,42.6133,40.731,43.2927,39.433C43.9721,38.135,44.5988,36.8101,45.1714,35.4616C45.744,34.113,46.2619,32.742,46.7239,31.3517C47.1859,29.9614,47.5916,28.553,47.94,27.13C49.24,21.55,49.62,15.47,47.53,10.55C47.3135,9.96031,47.041,9.39275,46.7161,8.85512C46.3912,8.3175,46.0154,7.81229,45.594,7.34644C45.1726,6.88058,44.7075,6.45624,44.205,6.07924C43.7026,5.70224,43.1651,5.37433,42.6,5.1C42.0098,4.84376,41.3988,4.63831,40.7737,4.48588C40.1486,4.33345,39.5116,4.23459,38.8697,4.19038C38.2278,4.14617,37.5833,4.15677,36.9432,4.22206C36.3031,4.28735,35.6698,4.4071,35.05,4.58C29.68,5.79,24.81,9.42,20.63,13.44C19.5918,14.496,18.5951,15.592,17.6422,16.7255C16.6892,17.859,15.7808,19.0292,14.9188,20.2333C14.0569,21.4375,13.2422,22.6748,12.4765,23.9423C11.7109,25.2099,10.9948,26.5068,10.33,27.83C9.6282,29.1595,8.99159,30.5224,8.42242,31.9138C7.85325,33.3053,7.35221,34.7236,6.92107,36.1639C6.48993,37.6041,6.1292,39.0644,5.84018,40.5397C5.55115,42.0151,5.33417,43.5036,5.19,45C4.76,38.89,6.19,32.72,8.39,27C8.96875,25.5508,9.61005,24.1273,10.3121,22.7336C11.0141,21.3399,11.7763,19.9773,12.5963,18.6496C13.4164,17.3219,14.2936,16.0304,15.2255,14.7787C16.1575,13.527,17.1432,12.3163,18.18,11.15C18.7082,10.558,19.2535,9.98147,19.8151,9.42102C20.3766,8.86058,20.9543,8.31649,21.5473,7.78945C22.1404,7.26241,22.7485,6.75262,23.371,6.26074C23.9935,5.76885,24.6301,5.29508,25.28,4.84C25.9431,4.35831,26.6275,3.9065,27.331,3.48592C28.0344,3.06534,28.7564,2.67641,29.4946,2.32029C30.2328,1.96417,30.9866,1.64122,31.7536,1.35241C32.5207,1.0636,33.3002,0.809205,34.09,0.59C34.9318,0.346285,35.7931,0.175871,36.6642,0.0806668C37.5354,-0.0145377,38.4131,-0.0341761,39.2877,0.0219714C40.1622,0.0781189,41.0302,0.209842,41.8821,0.415666C42.7339,0.621489,43.5663,0.900642,44.37,1.25C44.7818,1.43615,45.1839,1.64304,45.5747,1.86987C45.9656,2.09671,46.3447,2.3432,46.7106,2.6084C47.0765,2.8736,47.4288,3.15717,47.766,3.45801C48.1032,3.75886,48.4249,4.07659,48.73,4.41C49.0188,4.74042,49.2945,5.08207,49.5565,5.43416C49.8184,5.78625,50.0664,6.1485,50.2999,6.52008C50.5334,6.89165,50.7522,7.27227,50.9558,7.66104C51.1594,8.04981,51.3476,8.44644,51.52,8.85C54.08,15.3,53.44,22.01,51.91,28.12C51.4994,29.6395,51.0221,31.1403,50.4796,32.6179C49.937,34.0955,49.3298,35.5485,48.6595,36.9727C47.9893,38.397,47.2568,39.791,46.464,41.1509C45.6713,42.5107,44.8191,43.835,43.91,45.12C43.0279,46.4174,42.0801,47.6689,41.0701,48.8695C40.0602,50.07,38.9895,51.2182,37.8622,52.3093C36.735,53.4005,35.5526,54.4333,34.3199,55.4036C33.0871,56.374,31.8054,57.2806,30.48,58.12C29.8146,58.5351,29.1308,58.92,28.4307,59.2735C27.7306,59.6271,27.0149,59.9489,26.2858,60.238C25.5568,60.5271,24.8151,60.7832,24.0629,61.0056C23.3108,61.2279,22.5491,61.4162,21.78,61.57C21.0185,61.7325,20.2443,61.828,19.4662,61.8556C18.688,61.8832,17.909,61.8428,17.1379,61.7347C16.3668,61.6266,15.6067,61.4513,14.8661,61.2108C14.1256,60.9703,13.4075,60.6656,12.72,60.3Z" fill="url(#Gradient-10)" transform="translate(36.2227,65.7326)"/>
        <path class="cls-3" d="M5.89,51L0.26,42.18C0.143592,42.0012,0.0638813,41.8011,0.0254996,41.5912C-0.0128821,41.3813,-0.00916909,41.1659,0.0364229,40.9575C0.082015,40.7491,0.168577,40.5518,0.291077,40.3771C0.413578,40.2024,0.569574,40.0539,0.75,39.94C0.929159,39.822,1.13009,39.741,1.34099,39.7018C1.5519,39.6625,1.76852,39.6658,1.97813,39.7115C2.18774,39.7571,2.38611,39.8442,2.56159,39.9676C2.73708,40.091,2.88613,40.2482,3,40.43L5.53,44.36L9.01,37.36C9.20096,36.9741,9.53738,36.6799,9.94528,36.542C10.3532,36.4042,10.7991,36.434,11.185,36.625C11.5709,36.816,11.8651,37.1524,12.003,37.5603C12.1408,37.9682,12.111,38.4141,11.92,38.8Z" fill="url(#Gradient-11)" transform="translate(36.2227,65.7326)"/>
    </g>
    <g id="person-a">
        <path id="chair-f" d="M82.09,478.67C88.9567,519.89,92.2033,540.29,91.83,539.87C91.5157,539.844,91.2009,539.825,90.8858,539.812C90.5707,539.799,90.2554,539.793,89.94,539.793C89.6246,539.793,89.3093,539.799,88.9942,539.812C88.6791,539.825,88.3643,539.844,88.05,539.87L74.21,478.67Z" fill="#263d5d"/>
        <path id="chair-e" d="M55.4,478.67C48.53,519.89,45.29,525.23,45.67,524.8C45.9845,524.777,46.2993,524.761,46.6144,524.749C46.9295,524.738,47.2447,524.732,47.56,524.732C47.8753,524.732,48.1905,524.738,48.5056,524.749C48.8207,524.761,49.1355,524.777,49.45,524.8L63.29,478.67Z" fill="#263d5d"/>
        <path id="chair-d" d="M110.67,478.67C117.53,519.89,120.78,525.23,120.4,524.8C120.086,524.777,119.771,524.761,119.456,524.749C119.141,524.738,118.825,524.732,118.51,524.732C118.195,524.732,117.879,524.738,117.564,524.749C117.249,524.761,116.934,524.777,116.62,524.8L102.78,478.67Z" fill="#263d5d"/>
        <path id="arm-d" d="M102.6,410.89L76.14,395.42L73.61,377.78L99.44,398.68Z" fill="#70ddf0"/>
        <path id="chair-c" d="M134.71,475.57L130,455.27L130,455.27C129.231,451.941,128.044,448.723,126.468,445.691C124.892,442.66,122.939,439.84,120.657,437.297C118.374,434.755,115.779,432.511,112.935,430.619C110.09,428.727,107.017,427.202,103.79,426.08L76.55,416.6L76.55,438.39L76.55,438.39C76.5487,443.254,77.504,448.072,79.3616,452.568C81.2192,457.063,83.9428,461.15,87.3774,464.595C90.812,468.04,94.8905,470.775,99.3808,472.646C103.871,474.517,108.686,475.487,113.55,475.5Z" fill="url(#Gradient-13)"/>
        <path id="chair-b" d="M54.35,384.27L54.35,384.27C50.4467,384.27,46.5817,385.039,42.9759,386.533C39.37,388.028,36.0939,390.218,33.3348,392.979C30.5757,395.74,28.3877,399.017,26.8958,402.624C25.4039,406.231,24.6374,410.097,24.64,414L24.64,437.86L84.06,445.8L84.06,414L84.06,414C84.0626,410.097,83.2961,406.231,81.8042,402.624C80.3123,399.017,78.1243,395.74,75.3652,392.979C72.6061,390.218,69.33,388.028,65.7241,386.533C62.1183,385.039,58.2533,384.27,54.35,384.27Z" fill="#0a90c4"/>
        <path id="body-a" d="M70.06,375.16C76.4867,378.947,79.9967,383.26,80.59,388.1C80.96,391.19,78.91,404.31,82.85,423.25C84.33,430.417,88.4833,441.78,95.31,457.34L63.86,460.1C53.2867,447.08,46.7767,433.943,44.33,420.69C40.64,400.81,45.33,385.69,49,379.96C49.504,379.089,50.1212,378.288,50.8355,377.579C51.5497,376.87,52.3547,376.259,53.2295,375.761C54.1043,375.263,55.0411,374.883,56.0156,374.632C56.9901,374.38,57.9936,374.258,59,374.27Z" fill="url(#Gradient-14)"/>
        <path id="neck-b" d="M55.84,374.67C56.1016,374.602,56.3654,374.542,56.6309,374.491C56.8965,374.44,57.1636,374.398,57.4319,374.365C57.7002,374.331,57.9695,374.307,58.2394,374.291C58.5093,374.275,58.7796,374.268,59.05,374.27L70.05,375.16C70.3415,375.331,70.6307,375.506,70.9175,375.685C71.2042,375.864,71.4886,376.047,71.7704,376.234C72.0522,376.421,72.3315,376.611,72.6081,376.806C72.8847,377,73.1587,377.198,73.43,377.4C73.65,382.353,71.9833,385.05,68.43,385.49C63,386.18,55.65,383.72,55.84,374.67Z" fill="#0a90c4" opacity="0.4" style="isolation: isolate;"/>
        <path id="neck-a" d="M71.15,378.61L74.23,365.94L61.86,362.86L58,377.39C59.6467,381.39,62.3467,383.39,66.1,383.39C69.8533,383.39,71.5367,381.797,71.15,378.61Z" fill="#ffd7b3"/>
        <g id="head">
            <path id="Path-214" d="M90.07,342.92L89.07,352.22L89.07,352.22C88.9549,353.259,88.8212,354.297,88.6689,355.331C88.5165,356.366,88.3457,357.397,88.1563,358.426C87.967,359.454,87.7592,360.479,87.5331,361.5C87.307,362.521,87.0626,363.538,86.8,364.55L85.69,368.84L85.69,368.84C85.4309,369.858,84.9824,370.817,84.3679,371.669C83.7534,372.521,82.984,373.249,82.1,373.815C81.2159,374.382,80.2329,374.777,79.2026,374.98C78.1722,375.183,77.1129,375.189,76.08,375L69.76,373.84L69.76,373.84C68.0217,373.523,66.3629,372.867,64.8783,371.909C63.3937,370.951,62.1124,369.71,61.1076,368.257C60.1028,366.803,59.3942,365.166,59.0222,363.439C58.6503,361.712,58.6224,359.928,58.94,358.19C59.01,357.81,59.09,357.44,59.19,357.07C61.0633,350.243,62.6667,346.183,64,344.89C65.11,343.84,66.35,337.75,70.73,338.09C73.4233,338.303,79.87,339.913,90.07,342.92Z" fill="#ffd7b3"/>
            <path id="Path-216" d="M60.77,369.34C56.6433,366.633,55.0367,363.033,55.95,358.54C57.03,353.2,50.75,340.46,59.1,332.42C67.9,329.78,75.1,330.55,83.65,329.42C91.83,331.7,96.54,343.73,91.65,346.12C91.0609,346.438,90.4477,346.709,89.8159,346.931C89.1842,347.152,88.5359,347.324,87.8772,347.443C87.2185,347.563,86.5513,347.63,85.882,347.645C85.2127,347.659,84.5433,347.621,83.88,347.53C73.15,345.47,70.46,348.12,70.29,350.28C70,354.24,68.78,367.21,60.77,369.34Z" fill="#031434"/>
            <path id="Oval-27" d="M67.33,359.28C68.3756,359.153,69.3247,358.607,69.9593,357.766C70.594,356.926,70.8597,355.863,70.6953,354.823C70.531,353.782,69.9508,352.854,69.0879,352.25C68.2251,351.646,67.1538,351.418,66.12,351.62C63.99,351.96,64.12,353.86,64.47,355.98C64.82,358.1,65.2,359.62,67.33,359.28Z" fill="#ffd7b3"/>
        </g>
        <path id="leg-c" d="M134.71,470.91L71.08,470.91L82.68,480.76L134.68,479.96Z" fill="#263d5d"/>
        <path id="leg-b" d="M61.64,471.65L111.95,481.25L128.34,539.87L137.06,539.87C136.48,539.87,134.453,523.757,130.98,491.53C147.29,483.96,151.98,476.12,151.98,476.09L153.14,473.09L153.14,470.45C152.55,460.82,147.82,462.45,138.36,460.57L98.17,452.57C78.09,452.397,66.7733,452.977,64.22,454.31C61.6667,455.643,60.8067,461.423,61.64,471.65Z" fill="#001b41"/>
        <path id="arm-b" d="M56,394.52L64.34,428.38L95.08,436L95.08,443.78L49.93,440L44.93,402.76Z" fill="#b8eef7"/>
        <path id="arm-a" d="M93.38,387.16C101.58,394.387,106.453,400.127,108,404.38C109,407.21,108.39,411.11,103.56,411.19C100.34,411.237,95.9233,406.453,90.31,396.84C90.1348,396.666,89.9649,396.487,89.8006,396.303C89.6363,396.118,89.4776,395.929,89.3247,395.735C89.1718,395.542,89.0248,395.343,88.8839,395.141C88.7431,394.938,88.6084,394.731,88.48,394.52C88.5467,394.413,90.18,391.96,93.38,387.16Z" fill="#9fe8f5"/>
        <path id="tablet-a" d="M142.51,417.89L102.25,417.89L95.89,446.34L136.15,446.34Z" fill="#263d5d"/>
        <ellipse id="sign-a" rx="3.88" ry="3.25" fill="#b8eef7" transform="translate(-321.48,359.02) rotate(-65) translate(121.03,431.82)"/>
        <path id="hand-2" d="M94.09,435.1L98.81,434.76L97.81,439.3C106.31,439.967,110.623,440.617,110.75,441.25C110.94,442.18,106.51,447.54,102.58,447.36C99.97,447.24,96.7,446.14,92.8,444.07Z" fill="#ffd7b3"/>
        <path id="cup-b" d="M86,383.55L91.61,384.79L89.89,394.42L83.69,393" stroke="#0a90c4" stroke-width="1.3275554799409px"/>
        <path id="hand" d="M88.56,384.27L95.75,386.97C94.7967,393.257,93.5967,396.337,92.15,396.21C91.6846,396.133,91.2242,396.028,90.7714,395.896C90.3186,395.764,89.8742,395.604,89.4407,395.418C89.0072,395.232,88.5854,395.02,88.1774,394.783C87.7695,394.546,87.3763,394.284,87,394Z" fill="#ffd7b3"/>
        <path id="leg-a" d="M119,494.83L108.21,499.37L104.21,489.03L112.74,482.03Z" fill="#001b41"/>
        <g id="stroke-2">
            <path d="M132,470.05C130.48,471.37,128.89,472.59,127.27,473.77C125.65,474.95,124.01,476.07,122.35,477.17C120.69,478.27,118.99,479.33,117.26,480.34C115.53,481.35,113.79,482.34,111.97,483.19C113.48,481.87,115.07,480.65,116.69,479.47C118.31,478.29,119.96,477.17,121.62,476.07C123.28,474.97,124.98,473.91,126.71,472.9C128.44,471.89,130.2,470.91,132,470.05Z" fill="#57d7ed"/>
        </g>
        <g id="stroke-1">
            <path d="M127.09,472.61C123.35,470.96,119.78,469.1,116.09,467.47C115.18,467.045,114.262,466.637,113.336,466.246C112.41,465.856,111.477,465.483,110.536,465.129C109.596,464.774,108.65,464.438,107.697,464.12C106.744,463.801,105.785,463.501,104.82,463.22C105.332,463.23,105.844,463.257,106.355,463.301C106.865,463.345,107.374,463.405,107.881,463.483C108.388,463.561,108.891,463.656,109.392,463.767C109.892,463.878,110.388,464.006,110.88,464.15C111.372,464.289,111.862,464.438,112.349,464.595C112.836,464.753,113.32,464.92,113.8,465.096C114.28,465.272,114.758,465.457,115.231,465.651C115.704,465.845,116.174,466.048,116.64,466.26C117.104,466.472,117.565,466.691,118.023,466.917C118.48,467.142,118.935,467.374,119.386,467.613C119.837,467.851,120.285,468.096,120.729,468.347C121.173,468.599,121.613,468.856,122.05,469.12C122.489,469.382,122.924,469.651,123.353,469.928C123.783,470.205,124.209,470.489,124.629,470.78C125.049,471.071,125.465,471.369,125.875,471.674C126.285,471.979,126.69,472.291,127.09,472.61Z" fill="#57d7ed"/>
        </g>
        <path id="foot-2" d="M136.91,538.94C150.197,541.36,156.883,544.1,156.97,547.16C150.89,547.393,141.477,547.62,128.73,547.84L128.32,539.73Z" fill="#0a90c4"/>
        <path id="foot" d="M108.65,499.36C108.443,499.68,108.257,500.013,108.093,500.358C107.929,500.702,107.788,501.056,107.67,501.419C107.552,501.781,107.458,502.151,107.387,502.526C107.317,502.901,107.271,503.279,107.25,503.66C107.18,505.8,106.11,510.79,101.57,510.84C97.03,510.89,94.35,500.84,94.49,496.68C94.59,493.933,97.8233,491.437,104.19,489.19Z" fill="#0a90c4"/>
        <path id="cup" d="M87.71,381.59L73.53,379.85L72.22,390.51L72.22,390.51C72.1638,390.962,72.1967,391.42,72.3169,391.858C72.437,392.297,72.642,392.708,72.9203,393.068C73.1986,393.428,73.5448,393.73,73.9393,393.957C74.3338,394.184,74.7689,394.331,75.22,394.39L82.49,395.28L82.49,395.28C82.9417,395.338,83.4003,395.306,83.8397,395.186C84.2791,395.066,84.6906,394.861,85.0508,394.583C85.4111,394.304,85.7129,393.958,85.9393,393.563C86.1656,393.167,86.312,392.732,86.37,392.28Z" fill="#0a90c4"/>
        <path id="chair-a" d="M82.77,480.74L78.07,460.44L78.07,460.44C77.2992,457.112,76.1116,453.894,74.5351,450.863C72.9587,447.832,71.0061,445.012,68.7235,442.47C66.441,439.928,63.8469,437.684,61.0025,435.792C58.1582,433.899,55.0864,432.373,51.86,431.25L24.6,421.77L24.6,443.56L24.6,443.56C24.6,448.425,25.5561,453.242,27.4141,457.738C29.272,462.233,31.9955,466.32,35.4297,469.765C38.8639,473.211,42.9419,475.948,47.4316,477.82C51.9214,479.693,56.7354,480.664,61.6,480.68Z" fill="url(#Gradient-15)"/>
    </g>
    <path d="M68.34,359.88C68.34,359.88,65.88,365.31,66.69,367.1C68,369.88,72.88,374,72.88,374L79,378.22C79.4138,378.244,79.8289,378.22,80.2372,378.149C80.6455,378.078,81.0443,377.96,81.4255,377.797C81.8068,377.635,82.168,377.429,82.5021,377.183C82.8361,376.938,83.1408,376.655,83.41,376.34C83.7651,375.939,84.077,375.501,84.3407,375.035C84.6043,374.568,84.8182,374.075,84.9789,373.564C85.1396,373.053,85.2461,372.526,85.2967,371.993C85.3473,371.46,85.3417,370.922,85.28,370.39L81.7,370.63C81.7,370.63,78.59,371.82,77.64,371.11C76.69,370.4,71.54,369.3,68.34,359.88Z" fill="#001b41"/>
    <path d="M409.33,490.17L516.73,426.84L410.49,364.83L301.91,426.94L409.33,490.17Z" fill="#f6f7f8"/>
    <path d="M313.15,464.87L301.91,471.35L409.33,533.37L516.76,471.36L506.87,465.65L409.34,520.21L313.15,464.87Z" fill="#263d5d" opacity="0.7"/>
    <path d="M409.33,526.16L516.75,464.15L516.76,426.94L409.33,488.95L409.33,526.16Z" fill="#dfe2e7"/>
    <path d="M409.33,526.17L301.91,464.15L301.91,426.94L409.34,488.96L409.33,526.17Z" fill="#95a0b0"/>
    <path d="M421.25,511.44L508,461.38C508.471,461.04,508.901,460.647,509.281,460.208C509.661,459.769,509.989,459.287,510.258,458.772C510.527,458.258,510.735,457.714,510.879,457.151C511.022,456.588,511.1,456.011,511.11,455.43L511.11,455.43C511.11,453.15,509.71,452.09,508,453.08L421.29,503.14C420.819,503.479,420.389,503.871,420.009,504.309C419.629,504.747,419.301,505.228,419.032,505.742C418.763,506.256,418.555,506.799,418.411,507.361C418.268,507.923,418.19,508.5,418.18,509.08L418.18,509.08C418.14,511.37,419.54,512.42,421.25,511.44Z" fill="#95a0b0"/>
    <path d="M401.7,514.89L401.7,514.89C402.4,515.3,402.97,514.89,402.97,513.89L402.97,495.62C402.966,495.383,402.935,495.147,402.877,494.917C402.818,494.687,402.733,494.465,402.623,494.254C402.514,494.044,402.38,493.847,402.224,493.668C402.069,493.489,401.893,493.328,401.7,493.19L401.7,493.19C401,492.78,400.43,493.19,400.43,494.19L400.43,512.5C400.437,512.734,400.47,512.966,400.53,513.192C400.59,513.418,400.676,513.637,400.785,513.844C400.895,514.05,401.028,514.243,401.182,514.42C401.336,514.596,401.51,514.754,401.7,514.89Z" fill="#718095"/>
    <path d="M396.47,512.5L396.47,512.5C397.17,512.9,397.74,512.5,397.74,511.5L397.74,493.23C397.736,492.992,397.705,492.755,397.647,492.525C397.588,492.294,397.503,492.071,397.394,491.86C397.284,491.649,397.15,491.451,396.994,491.271C396.839,491.091,396.663,490.929,396.47,490.79L396.47,490.79C395.77,490.39,395.2,490.79,395.2,491.79L395.2,510.1C395.206,510.335,395.239,510.568,395.298,510.795C395.358,511.022,395.443,511.242,395.553,511.449C395.663,511.657,395.796,511.851,395.951,512.028C396.105,512.205,396.279,512.363,396.47,512.5Z" fill="#718095"/>
    <path d="M391.1,509.4L391.1,509.4C391.8,509.8,392.37,509.4,392.37,508.4L392.37,490.13C392.366,489.892,392.335,489.655,392.277,489.425C392.218,489.194,392.133,488.971,392.024,488.76C391.914,488.549,391.78,488.351,391.624,488.171C391.469,487.991,391.293,487.829,391.1,487.69L391.1,487.69C390.4,487.29,389.82,487.69,389.82,488.69L389.82,507C389.827,507.235,389.861,507.469,389.921,507.696C389.982,507.923,390.068,508.143,390.179,508.35C390.289,508.558,390.424,508.752,390.579,508.928C390.734,509.105,390.909,509.263,391.1,509.4Z" fill="#718095"/>
    <ellipse rx="3.97" ry="2.29" fill="#70ddf0" transform="translate(-130.77,660.78) rotate(-60) translate(506.87,443.64)"/>
    <ellipse rx="3.97" ry="2.29" fill="url(#Gradient-16)" transform="translate(-137.87,656.44) rotate(-60) translate(499.56,447.62)"/>
</svg>